<?xml version="1.0" encoding="UTF-8"?>
<svg id="_Слой_4" data-name="Слой 4" xmlns="http://www.w3.org/2000/svg" viewBox="0 0 2543.97 1432.64">
  <defs>
    <style>
      .cls-1 {
        fill: #3c564c;
      }
    </style>
  </defs>
  <path class="cls-1" d="M1325.29,1298.77c0,2.02-1.63,3.65-3.65,3.65H135.88v-127.47c0-2.02,1.63-3.65,3.65-3.65s3.65,1.63,3.65,3.65v120.16s1178.45,0,1178.45,0c2.02,0,3.65,1.63,3.65,3.65Z"/>
  <path class="cls-1" d="M2408.22,132.1v85.11c0,2.02-1.63,3.65-3.65,3.65s-3.65-1.63-3.65-3.65v-77.81s-1187.14,0-1187.14,0c-2.02,0-3.65-1.63-3.65-3.65s1.63-3.65,3.65-3.65h1194.45Z"/>
  <path class="cls-1" d="M2310.4,240.59c-1.21,1.53,1.39,7.4,1.75,8.93,4.67,17.77,8.52,35.85,11.48,53.97,1.3,7.94,3.9,15.52,8.03,22.48,7.45,12.56,17.5,20.59,30.51,27.1,4.17,2.06,8.66,3.46,12.79,5.52,5.2,2.6,6.73,4.93,9.06,10.09,4.89,10.95,9.33,22.12,13.28,33.47,8.12,23.33,15.21,47.96,17.63,72.5,2.06,21.58,1.21,43.25-.58,64.83-.27,3.05-1.7,7.45-1.12,10.41-2.15-10.95-4.13-22.88-8.66-33.07-4.62-10.27-10-20.19-16.06-29.66-5.29-8.3-12.61-15.21-17.63-23.64-4.94-8.26-6.73-18.44-10.99-27.14-3.14-6.33-6.91-12.52-12.38-17.14-7.76-6.51-17.36-10.86-27.23-12.88-10.63-2.15-21.76-2.56-32.39-.36-11.58,2.38-24.32,7.36-34.41,13.51-4.17,2.56,3.59,5.56,5.34,6.59,9.2,5.56,17.63,11.93,26.56,17.9,11.44,7.63,24.09,12.65,37.82,14.31,6.37.76,12.7.63,19.11.04,5.97-.49,12.47-1.21,17.99,1.66,2.06,1.12,4.04,3.95,5.65,5.65,4.22,4.4,8.17,9.15,11.71,14.09,9.42,12.97,18.35,26.52,23.91,41.59,1.75,4.84,3.19,9.83,4.75,14.72.9,2.96,1.26,7.81,2.78,10.41-.63-1.08-1.3-2.15-2.02-3.18-3.5-5.2-7.27-10.23-11.67-14.81-5.29-5.47-7.04-12.65-10.81-19.16-3.36-5.7-7.63-10.9-12.79-15.07-2.51-2.02-5.47-3.41-8.48-4.53-10.14-3.77-21.49-2.11-32.08-2.56-1.03-.04-7.27-.36-5.7,2.15,1.08,1.66,2.29,3.23,3.32,4.94,6.19,9.87,10.09,21.89,21.71,26.87,8.17,3.54,17,5.97,26.02,5.07,10.99-1.08,19.87,7.76,25.35,16.33,6.82,10.72,8.75,21.09,7.31,33.65-4.76,41.63-13.15,83.31-23.87,123.78-4.67,17.81-8.21,35.89-12.7,53.75-.81,3.36-1.8,6.69-2.74,10-.36-1.57-.81-3.14-1.21-4.71-3.01-10.9-9.42-20.68-10.23-32.35-.54-8.21.67-16.42-.9-24.59-2.87-14.99-12.25-27.73-25.3-35.44-12.56-7.45-27.32-10.68-41.46-12.7-4.4-.63-8.79-1.48-13.1-2.51-3.41-.81-12.52-5.97-9.2,2.06,3.5,8.34,6.33,17,9.6,25.48,5.79,15.03,11.98,29.93,24.9,40.29,12.79,10.32,28.13,13.77,44.06,14.54,10.95.49,15.52,17.45,17.14,26.11,2.65,14-3.9,28.89-7.63,41.99-2.15,7.4-4.13,14.85-6.19,22.25-5.92,21.49-10.77,43.12-14.22,65.05-3.81,24.45-6.82,49.04-9.29,73.62-.4,3.82-.71,7.65-.99,11.48-.54-.58-1.09-1.16-1.6-1.71-9.84-10.99-19.96-22.18-29.02-33.82-2.44-3.14-4.79-6.35-7.03-9.63-4.75-6.94-8.93-14.23-12.33-21.93-2.18-4.94-4.39-9.96-5.1-15.35-.55-4.17,1.13-8.93,3.12-12.67,5.64-10.57,9.42-22.4,7.98-34.5-.24-2-.72-3.97-1.19-5.92-2.82-11.78-11.51-20.8-20.46-28.43-12.67-10.79-26.7-18.56-41.22-26.49-4.71-2.57-1.57,12.56-1.43,14.73,1.12,18.09-3.18,36.93,3.43,54.37,5.53,14.6,17.37,26.91,31.3,33.5,6.78,3.21,12.28,5.84,15.11,12.93,2.79,6.99,6.5,13.56,10.06,20.19,2.94,5.46,6.09,10.92,8.77,16.5-5.31-.93-13.62-7.51-16.59-11.87-1.55-2.27-1.56-5.38-2.44-7.94-.97-2.82-2.41-5.52-4.1-7.98-3.38-4.94-8.04-9.07-13.58-11.4-11.02-4.63-23.39-4.01-34.94-2.1-5.95.98-11.82,2.35-17.69,3.73-2.18.51-5.36.88-6.26,2.1-.55.74-.26,1.79,1.6,3.38,17.82,15.22,41.31,47.08,67.8,31.69,6.82-3.93,12.85-1.25,19.18,2.7,18.72,11.69,36.25,29.46,45.01,49.94.2.46.33.91.5,1.36-.11,1.42-.23,2.84-.34,4.26-.54,7.36-1.08,14.89-1.3,22.34-.31,10.72-.13,21.49,0,32.21.09,6.37.99,12.61,1.84,18.93.9,6.5,1.93,13.01,3.05,19.47,2.28,12.96,4.88,26.02,7.93,39.01-2.82-2.76-5.71-5.45-8.76-7.95-5.06-4.14-10.36-7.95-15.72-11.68-4.77-3.32-5.5-10.43-6.78-15.93-.98-4.22-2.78-8.22-5.11-11.87-4.65-7.28-11.45-13.35-19.26-17.07-8.63-4.11-19-6.06-28.29-8.05-5.35-1.15-10.73-2.15-16.11-3.1-3.4-.6-6.82-1.16-10.25-1.57-1.4-.17-3.5-.77-4.74.21-2.24,1.77.64,4.23,1.67,6.14,1.63,3.01,2.95,6.2,4.74,9.13,3.88,6.35,7.84,12.66,11.86,18.92,6.14,9.55,12.54,17.74,22.86,23.06,7.38,3.8,16.04,5.63,24.33,5.81,8.38.18,15.83-5.37,23.32-.04,9.78,6.96,20.41,13.86,28.45,22.91,4.79,18.99,10.58,37.72,17.85,55.61,2.56,6.28,5.25,12.02,7.49,18.48,2.47,7.22,5.12,14.4,7.99,21.49,1.57,3.86,3.23,7.67,4.93,11.48,3.41,7.58,6.86,15.12,10.23,22.7,3.5,7.94,6.95,15.88,10.32,23.91.45,1.07.88,2.15,1.32,3.23-1.73-.64-3.45-1.3-5.18-2.02-5.97-2.42-11.89-4.89-17.86-7.31-7.45-3.1-14.72-6.28-22.03-9.69-7.22-3.46-14.49-6.82-21.94-9.83-1.31-.53-2.64-1.02-3.95-1.54-12.95-8.32-21.36-22.25-29.96-34.75-5.21-7.58.45-14.93.41-23.32-.04-8.29-1.74-16.97-5.42-24.42-5.15-10.41-13.23-16.94-22.69-23.23-6.2-4.12-12.44-8.18-18.73-12.16-2.9-1.84-6.06-3.21-9.05-4.89-1.89-1.06-4.31-3.98-6.11-1.77-1,1.23-.43,3.33-.29,4.73.35,3.44.85,6.86,1.4,10.27.87,5.4,1.78,10.79,2.85,16.16,1.84,9.33,3.62,19.72,7.59,28.42,3.59,7.86,9.55,14.77,16.76,19.53,3.61,2.38,7.58,4.25,11.78,5.3,5.47,1.37,12.58,2.2,15.82,7.03,3.64,5.42,7.37,10.79,11.43,15.91,3.41,4.3,7.15,8.29,10.99,12.21-1.44-.52-2.87-1.06-4.31-1.56-6.42-2.24-12.16-4.98-18.44-7.54-32.84-13.5-68.51-22.12-103.46-28.4-10.86-1.93-21.72-3.54-32.66-4.8-7.36-.85-13.59-.67-20.5-3.68-20.46-8.79-38.14-26.38-49.76-45.18-3.95-6.33-6.6-12.38-2.65-19.16,15.48-26.47-16.29-50.07-31.45-67.93-1.57-1.88-2.65-2.2-3.37-1.61-1.21.9-1.61,4.08-2.11,6.24-1.39,5.88-2.83,11.76-3.81,17.68-1.93,11.53-2.6,23.91,1.97,34.95,2.33,5.56,6.42,10.23,11.35,13.64,2.47,1.66,5.16,3.14,7.99,4.13,2.56.85,5.65.9,7.9,2.47,4.35,2.96,10.9,11.31,11.84,16.6-5.61-2.69-11.04-5.83-16.51-8.79-6.6-3.59-13.15-7.36-20.14-10.14-7.09-2.87-9.69-8.39-12.88-15.16-6.55-13.95-18.8-25.84-33.38-31.45-17.41-6.64-36.3-2.42-54.38-3.63-2.15-.13-17.27-3.32-14.72,1.39,7.85,14.54,15.57,28.62,26.34,41.32,7.58,8.97,16.55,17.72,28.35,20.55,1.93.49,3.9.99,5.92,1.21,12.11,1.48,23.91-2.24,34.55-7.85,3.72-1.97,8.48-3.63,12.65-3.1,5.38.76,10.41,2.96,15.34,5.16,7.67,3.45,14.94,7.67,21.89,12.43,3.27,2.24,6.46,4.62,9.6,7.09,11.62,9.06,22.75,19.25,33.65,29.07,1.26,1.17,2.51,2.38,3.81,3.54.13.18.31.31.45.49-2.33-.09-4.71-.13-7.04-.18-3.5-.04-7,0-10.5.13-3.54.18-7.13.4-10.68.67-3.54.27-7.09.54-10.63.76-6.87.4-13.68.85-20.5,1.52-24.63,2.38-49.22,5.34-73.67,9.06-21.98,3.36-43.61,8.12-65.14,14-7.4,2.02-14.85,3.99-22.25,6.06-13.14,3.72-28.04,10.18-42.04,7.49-8.66-1.66-25.57-6.24-26.07-17.23-.67-15.93-4.08-31.27-14.31-44.1-10.36-12.97-25.21-19.2-40.24-25.08-8.44-3.27-17.09-6.15-25.44-9.65-8.03-3.37-2.92,5.79-2.11,9.2,1.03,4.31,1.88,8.66,2.47,13.06,1.97,14.18,5.16,28.98,12.56,41.55,7.67,13.1,20.37,22.52,35.35,25.44,8.17,1.62,16.38.4,24.59.99,11.67.85,21.45,7.27,32.3,10.32,1.57.4,3.14.85,4.71,1.21-3.32.94-6.68,1.93-10.05,2.74-17.86,4.4-35.94,7.85-53.75,12.52-40.56,10.59-82.19,18.8-123.87,23.42-12.56,1.39-22.93-.63-33.65-7.49-8.53-5.47-17.36-14.36-16.2-25.39.9-8.97-1.48-17.81-4.98-26.02-4.98-11.62-16.96-15.61-26.83-21.8-1.66-1.03-3.23-2.24-4.89-3.32-2.51-1.62-2.2,4.62-2.2,5.7.4,10.54-1.3,21.89,2.47,32.03,1.12,3.01,2.47,5.97,4.49,8.52,4.13,5.16,9.33,9.47,15.03,12.83,6.46,3.81,13.64,5.56,19.11,10.9,4.53,4.4,9.56,8.17,14.76,11.71,1.03.72,2.11,1.39,3.19,2.02-2.6-1.52-7.45-1.88-10.41-2.83-4.89-1.57-9.87-3.01-14.67-4.8-15.07-5.61-28.58-14.58-41.54-24.05-4.94-3.59-9.6-7.54-14.04-11.75-1.7-1.62-4.53-3.63-5.61-5.7-2.87-5.52-2.11-12.02-1.62-17.99.58-6.42.76-12.74,0-19.11-1.57-13.73-6.59-26.42-14.18-37.87-5.88-8.93-12.25-17.41-17.77-26.65-1.03-1.75-4.04-9.51-6.6-5.34-6.19,10.05-11.17,22.79-13.59,34.37-2.24,10.63-1.88,21.76.22,32.39,1.97,9.87,6.28,19.52,12.79,27.28,4.62,5.52,10.77,9.29,17.09,12.43,8.7,4.31,18.84,6.1,27.1,11.08,8.44,5.07,15.3,12.38,23.55,17.72,9.47,6.1,19.34,11.53,29.61,16.15,10.18,4.62,22.07,6.6,33.06,8.84-2.96-.63-7.4.81-10.45,1.03-21.53,1.75-43.25,2.51-64.83.36-24.54-2.47-49.13-9.65-72.41-17.86-11.35-3.99-22.48-8.48-33.42-13.41-5.16-2.33-7.49-3.9-10.05-9.11-2.11-4.13-3.41-8.61-5.47-12.79-6.46-13.06-14.49-23.15-27.01-30.64-6.95-4.13-14.49-6.77-22.43-8.08-18.12-3.01-36.21-6.95-53.93-11.66-1.53-.4-7.4-3.01-8.93-1.8-2.11,1.71,2.24,6.95,3.23,8.48,4.22,6.59,8.39,13.19,13.15,19.38,6.73,8.75,12.65,18.4,20.32,26.34,9.42,9.69,22.34,16.73,35.76,18.84,4.31.67,8.57,1.21,12.92,1.39,8.7.36,17.72.09,26.47,1.84,8.48,1.75,16.73,5.2,24.9,8.12,14.04,5.02,27.82,10.05,41.95,14.81,1.3.4,2.56.81,3.86,1.21-.04,0-.13.04-.18.04-1.57.54-3.14,1.12-4.71,1.66-4.67,1.53-10.45,2.96-15.34,3.41-3.14.27-6.33.18-9.47.45-17.32,1.48-34.64,4.31-50.16,12.92-14.63,8.08-26.43,20.1-37.01,32.84-.67.81-1.3,1.61-1.97,2.38-7.76,9.56-15.48,19.02-23.55,28.31-.45.54-.9,1.12-.99,1.8-.09.94,1.3,2.11,2.06,2.42,1.12.49,3.45.04,4.62-.04,4.22-.18,8.3-1.08,12.47-1.79,16.15-2.69,33.38-4.44,47.87-12.7,9.96-5.7,19.43-13.01,27.46-21.45,8.79-9.24,15.21-20.23,23.02-30.33,2.96-3.86,5.74-8.79,10.14-11.22,14.36-7.81,30.73-2.42,45.94-1.26,13.1,1.03,26.16,2.06,39.26,3.05,18.49,1.48,37.33-.85,55.63-2.29,3.14-.27,6.33-.49,9.47-.76,4.08-.31,8.12-.67,12.16-1.08,21.13-1.88,42.49-4.71,63.4-9.42,6.95-1.61,13.95-3.19,20.91-4.8,6.15-1.39,12.25-2.78,18.39-4.26-2.56,1.3-5.11,2.65-7.63,3.95-2.87,1.48-5.74,2.96-8.57,4.49-5.79,3.19-11.62,6.37-17.41,9.6-11.67,6.55-23.55,12.65-35.31,18.98-2.87,1.53-5.7,3.14-8.57,4.62-10.18,5.38-21.04,12.11-32.66,13.55-7.13.85-17.14,2.38-23.55-1.66-4.35-2.78-7.13-7.54-11.17-10.68-4.85-3.77-10.36-6.55-15.97-8.93-12.29-5.25-24.23-7.45-37.55-6.82-5.79.31-11.58.67-17.36.76-2.56.04-17.32-2.33-17.95.9-.09.63.13,1.26.36,1.84,1.34,3.19,3.23,6.1,5.25,8.93,14.31,20.37,39.44,37.96,65.5,32.75,7.9-1.57,16.33-3.77,23.42-7.63,3.05-1.71,5.79-3.19,9.24-3.54,3.81-.4,7.63-.36,11.4-.72,2.65-.27,5.43-.49,7.99-1.21,1.26-.31,5.25-.67,5.97-1.39-2.06,2.06-4.58,3.86-7.31,4.98-2.47,1.08-5.34,1.08-7.99,1.44-11.89,1.62-23.73,6.15-32.71,14.27-11.8,10.63-16.33,25.75-20.28,40.56-1.93,7.4-3.77,14.85-5.74,22.3-.27,1.03-3.77,6.86.76,4.08,14.49-8.88,31.76-13.64,45.27-24,8.57-6.6,14.8-15.61,18.17-25.98,1.88-5.83,3.14-11.84,3.72-17.9.27-2.83-.63-5.83.09-8.61.9-3.23,3.59-4.44,6.19-6.19,18.98-12.47,38.45-23.24,59-32.8,26.2-12.2,49.94-30.42,78.51-37.87,12.61-3.28,25.35-6.01,38.05-8.97,5.65-1.35,11.26-2.74,16.82-4.26,7.18-2.02,14.36-4.17,21.49-6.37,18.66-5.74,36.97-12.02,56.08-16.6,21.76-5.25,44.78-11.04,67.21-11.98,2.2-.09,8.39.54,10.05-1.21-17.68,18.71-33.74,37.91-49.04,58.64-4.94,6.68-10.18,14.09-17.86,17.81-.09,0-.13,0-.18.04-.45.22-.9.4-1.35.58-3.81.99-5.83-3.77-8.57-5.74-9.56-6.95-23.38-6.46-33.74-1.88-10.23,4.49-18.89,11.93-29.52,15.61-8.35,2.92,5.61,8.12,8.3,9.2,6.37,2.6,13.01,4.76,19.79,5.97,13.24,2.33,27.28.4,36.34-10.41,2.6-3.14,4.31-7,7.81-9.33,6.19-4.08,12.25-7.4,17.27-13.06-1.12,2.78-2.15,5.56-3.1,8.39-2.69,8.26-4.08,15.07-10.14,21.71-2.56,2.83-5.47,5.29-8.03,8.12-10.09,11.04-15.61,26.87-11.93,41.37,3.9,15.43,16.91,26.51,27.28,38.58,4.35,5.03,8.43,10.5,14.04,14.04.94.63,2.29,1.12,3.1.36.45-.45.58-1.08.63-1.7,1.52-11.67,3.05-23.29,4.08-35,.9-10.23,1.39-20.55.04-30.69-1.39-10.18-4.71-20.23-10.9-28.44-3.32-4.35-7.58-8.62-7.9-14.04-.13-2.47.58-4.89,1.35-7.27,7.4-23.02,20.64-41.59,35.94-59.99,1.48-1.75,2.96-3.5,4.44-5.25-.49,1.26-.99,2.47-1.3,3.77-1.84,6.77-2.06,14.4-1.17,21.31.49,4.04,3.1,9.15,2.47,13.19-.9,5.43-4.62,9.78-5.29,15.48-.72,5.7.09,11.53,2.06,16.91,2.69,7.27,7.4,13.82,12.43,19.7,1.26,1.48,2.56,2.96,3.9,4.31,7.45,7.49,16.29,14.9,25.62,19.88.18.09.36.18.58.27,2.65,1.21,3.77-1.53,3.5-3.77-.54-4.62-.4-9.29-.22-13.95.45-9.78,1.17-19.74.13-29.48-.85-7.85-3.01-16.02-8.61-21.81-4.53-4.71-10.45-8.21-16.96-9.38-3.14-.54-5.79-.22-8.84.22-2.65.36-3.9,0-4.71-2.83-1.17-4.31-1.93-8.88-2.2-13.37-.63-9.33.58-22.12,7.27-29.39,8.88-9.69,24.23-11.26,36.83-12.88,36.61-4.71,74.03-6.46,110.91-3.68,8.03.63,15.88,2.24,23.82,3.54,22.07,3.72,44.46,7.76,66.09,14.13,7.72,2.29,15.34,4.89,22.93,7.58,7.58,2.74,15.07,5.7,22.57,8.7,5.52,2.2,11.04,4.44,16.51,6.68-1.53.27-3.05.54-4.58.94-3.5.9-6.86,2.06-10.27,3.32-6.46,2.38-12.79,5.07-19.07,7.9-5.2,2.33-10.45,5.34-15.84,7.18-4.62,1.57-9.51,4.17-14.45,4.85-6.82.94-13.77,2.06-20.68,1.48-4.22-.31-9.47-.36-12.83-3.45-1.57-1.48-2.33-4.13-3.41-5.97-3.81-6.6-9.91-11.8-16.96-14.54-8.21-3.14-17-1.84-25.48-.67-5.38.76-10.77,1.84-16.06,3.32-2.74.76-13.41,2.96-7.4,7.31,11.8,8.48,23.15,18.93,36.83,24.23.85.36,1.7.67,2.56.94,8.3,2.47,18.8,2.2,25.03-4.62,3.41-3.68,5.83-4.67,11.04-3.77,7.45,1.3,15.21,1.3,22.61-.31,1.08-.22,2.15-.49,3.23-.76-2.02,1.08-4.04,2.2-6.01,3.36-5.16,3.05-10.23,6.19-15.16,9.6-4.4,3.05-8.97,2.96-14.04,3.54-8.21.94-16.73,2.83-24.32,6.19-3.41,1.52-6.73,3.23-10.01,5.02-9.51,5.21-17.72,12.65-24,21.49-6.77,9.47-10.59,20.41-14.67,31.23-1.3,3.45-2.56,6.91-3.81,10.36-1.57,4.31-3.19,8.57-4.89,12.83-1.3,3.28-.31,5.52,3.77,3.86,14.67-6.1,29.57-11.66,44.19-17.86,9.2-3.9,18.75-8.17,25.8-15.7,7.76-8.3,12.92-19.16,15.34-30.24,1.3-5.97.72-11.98,1.62-17.9.49-3.41,1.97-5.25,4.89-6.86,12.74-7,25.17-14.49,37.87-21.49,12.43-6.86,25.44-11.22,38.85-16.02,15.79-5.65,27.82-.63,42.53,5.65,13.55,5.74,27.01,11.62,40.47,17.63,5.53,2.49,11.07,4.99,16.61,7.48,1.48,3.73,2.97,7.47,4.57,11.13,1.68,3.87,6.55,21.82,12.19,19.69,4.72-1.79,1.42-7.23.14-10.09-2.44-5.47-4.88-10.94-7.32-16.42,3.71,1.67,7.41,3.35,11.14,5.02,3.37,1.51,11.69,8.3,14.55,3.13,2.98-5.39-5.98-7.11-9.07-8.6-6.32-3.05-12.66-6.05-18.98-9.11-.78-.38-1.57-.7-2.36-1.05-1.55-3.47-3.09-6.93-4.64-10.4-5.97-13.41-11.8-26.96-17.5-40.51-6.24-14.76-11.17-26.74-5.47-42.58,4.84-13.37,9.2-26.38,16.11-38.72,7.09-12.7,14.63-25.12,21.67-37.82,1.57-2.92,3.45-4.4,6.86-4.89,5.92-.85,11.93-.22,17.95-1.53,11.04-2.38,21.94-7.49,30.24-15.25,7.54-7,11.89-16.56,15.84-25.75,6.24-14.58,11.85-29.48,17.99-44.1,1.66-4.08-.54-5.07-3.86-3.77-4.26,1.66-8.53,3.27-12.83,4.8-3.45,1.26-6.95,2.51-10.41,3.77-10.81,4.04-21.76,7.85-31.27,14.58-8.84,6.28-16.29,14.45-21.58,23.96-1.8,3.28-3.5,6.59-5.03,9.96-3.36,7.58-5.34,16.06-6.28,24.32-.58,5.07-.54,9.65-3.59,14.04-3.41,4.89-6.64,9.92-9.65,15.08-1.21,1.97-2.33,3.99-3.41,6.06.27-1.12.54-2.2.81-3.28,1.57-7.36,1.61-15.16.36-22.57-.9-5.25.13-7.67,3.81-11.04,6.82-6.24,7.13-16.73,4.71-24.99-.27-.9-.58-1.75-.94-2.6-5.2-13.68-15.66-25.12-24.09-36.92-4.31-6.01-6.6,4.62-7.36,7.4-1.48,5.25-2.6,10.63-3.36,16.06-1.17,8.43-2.51,17.23.58,25.44,2.74,7.09,7.9,13.19,14.49,17,1.84,1.08,4.44,1.84,5.92,3.45,3.1,3.41,3.1,8.66,3.45,12.83.54,6.91-.63,13.91-1.57,20.68-.67,4.94-3.32,9.78-4.89,14.45-1.84,5.38-4.89,10.59-7.27,15.79-2.83,6.28-5.52,12.61-7.94,19.07-1.26,3.36-2.47,6.73-3.37,10.23-.4,1.53-.67,3.05-.94,4.62-2.24-5.52-4.49-11.04-6.64-16.6-2.96-7.49-5.92-14.99-8.61-22.57-2.69-7.58-5.25-15.21-7.49-22.97-6.28-21.63-10.27-44.06-13.91-66.13-1.3-7.94-2.87-15.79-3.5-23.82-2.6-36.88-.72-74.3,4.13-110.91,1.66-12.61,3.28-27.91,13.01-36.79,7.27-6.64,20.05-7.81,29.39-7.18,4.49.31,9.06,1.08,13.37,2.29,2.83.81,3.19,2.06,2.83,4.71-.45,3.05-.81,5.65-.27,8.84,1.17,6.51,4.62,12.43,9.33,17,5.74,5.61,13.91,7.81,21.76,8.66,9.74,1.08,19.7.4,29.48,0,4.66-.18,9.33-.27,13.91.27,2.29.27,5.02-.81,3.81-3.5-.09-.18-.18-.4-.27-.58-4.94-9.33-12.34-18.22-19.74-25.66-1.39-1.39-2.87-2.65-4.31-3.9-5.88-5.07-12.38-9.83-19.7-12.56-5.38-1.97-11.17-2.78-16.91-2.11-5.7.67-10,4.35-15.48,5.25-3.99.63-9.11-1.98-13.15-2.51-6.95-.94-14.54-.72-21.35,1.08-1.26.36-2.51.81-3.72,1.3,1.7-1.48,3.45-2.96,5.2-4.44,18.44-15.21,37.1-28.4,60.16-35.71,2.33-.76,4.8-1.43,7.22-1.3,5.47.36,9.69,4.62,14.04,7.94,8.16,6.19,18.21,9.56,28.4,10.99,10.14,1.39,20.46.94,30.69.09,11.71-.99,23.37-2.47,35-3.95.63-.09,1.3-.18,1.7-.63.81-.85.27-2.15-.31-3.14-3.54-5.61-9.02-9.69-14.04-14.04-12.02-10.45-23.02-23.46-38.45-27.46-14.49-3.72-30.33,1.75-41.41,11.8-2.83,2.56-5.34,5.43-8.17,8.03-6.64,6.01-13.46,7.36-21.71,10.05-2.83.9-5.65,1.93-8.39,3.05,5.65-4.98,8.97-11.04,13.1-17.23,2.33-3.45,6.19-5.2,9.33-7.81,10.86-8.97,12.88-23.06,10.54-36.3-1.17-6.77-3.32-13.37-5.88-19.78-1.08-2.69-6.24-16.64-9.15-8.3-3.72,10.59-11.22,19.2-15.75,29.43-4.58,10.36-5.16,24.18,1.8,33.78,1.97,2.69,6.68,4.75,5.7,8.57-.18.45-.4.9-.58,1.35-.04.04-.04.09-.04.13-3.77,7.67-11.17,12.92-17.9,17.81-20.77,15.25-40.06,31.23-58.77,48.81,1.75-1.66,1.12-7.81,1.26-10,.99-22.43,6.86-45.45,12.2-67.21,4.67-19.07,10.95-37.33,16.78-55.99,2.2-7.13,4.4-14.27,6.42-21.49,1.57-5.56,3.01-11.17,4.35-16.78,3.01-12.7,5.79-25.39,9.15-38,7.54-28.58,25.8-52.27,38.09-78.38,9.65-20.5,20.46-39.98,33.02-58.86,1.75-2.65,2.96-5.34,6.24-6.19,2.74-.72,5.74.18,8.57-.04,6.1-.58,12.11-1.84,17.95-3.68,10.36-3.32,19.38-9.56,26.02-18.08,10.45-13.46,15.25-30.73,24.18-45.18,2.83-4.53-3.05-1.03-4.08-.76-7.45,1.93-14.89,3.72-22.34,5.65-14.81,3.9-29.92,8.34-40.6,20.1-8.12,8.97-12.74,20.82-14.4,32.71-.36,2.65-.36,5.47-1.44,7.94-1.17,2.74-2.96,5.25-5.02,7.31.72-.72,1.08-4.71,1.44-5.97.67-2.56.94-5.34,1.21-7.99.36-3.77.36-7.58.76-11.4.36-3.45,1.88-6.19,3.54-9.24,3.95-7.09,6.15-15.52,7.76-23.38,5.29-26.02-12.2-51.24-32.53-65.64-2.83-1.97-5.74-3.9-8.93-5.25-.58-.27-1.21-.49-1.8-.36-3.23.58-.94,15.34-.99,17.95-.09,5.79-.49,11.57-.81,17.32-.72,13.37,1.48,25.26,6.64,37.6,2.38,5.61,5.12,11.17,8.88,16.02,3.14,4.04,7.9,6.82,10.63,11.17,4.04,6.42,2.47,16.47,1.57,23.55-1.44,11.66-8.21,22.48-13.64,32.62-1.53,2.87-3.14,5.7-4.67,8.57-6.33,11.75-12.52,23.6-19.07,35.26-3.28,5.74-6.46,11.57-9.69,17.36-1.52,2.83-3.05,5.65-4.53,8.52-1.3,2.56-2.65,5.07-3.95,7.63,1.48-6.1,2.92-12.25,4.35-18.35,1.61-7,3.23-13.95,4.8-20.95,4.85-20.82,7.72-42.17,9.69-63.31.4-4.08.76-8.12,1.12-12.16.27-3.14.49-6.33.76-9.47,1.53-18.3,3.9-37.1,2.51-55.63-.94-13.1-1.93-26.16-2.87-39.26-1.17-15.21-6.46-31.63,1.39-45.94,2.42-4.4,7.4-7.13,11.26-10.09,10.09-7.76,21.13-14.13,30.42-22.93,8.43-8.03,15.79-17.41,21.54-27.37,8.3-14.45,10.09-31.67,12.88-47.83.72-4.17,1.62-8.25,1.84-12.47.04-1.17.54-3.5.04-4.62-.31-.76-1.48-2.15-2.42-2.06-.67.04-1.26.54-1.8.99-9.29,8.03-18.8,15.75-28.35,23.47-.81.63-1.62,1.3-2.42,1.93-12.79,10.54-24.86,22.3-32.98,36.92-8.66,15.48-11.57,32.8-13.1,50.07-.31,3.14-.22,6.37-.49,9.47-.45,4.94-1.88,10.68-3.45,15.34-.54,1.57-1.12,3.14-1.66,4.71-.04.04-.04.13-.09.18-.36-1.26-.76-2.56-1.17-3.86-4.71-14.13-9.69-27.91-14.63-41.99-2.92-8.21-6.37-16.42-8.07-24.95-1.71-8.75-1.39-17.72-1.75-26.47-.18-4.35-.63-8.62-1.3-12.92-2.06-13.41-9.11-26.38-18.75-35.8-7.9-7.72-17.54-13.68-26.25-20.46-6.19-4.75-12.74-8.97-19.34-13.19-1.53-.99-6.78-5.38-8.48-3.28ZM2331.17,454.6c-7.76-.27-15.7-1.66-22.93-4.04-11.93-3.9-21.63-11.17-31.94-17.99-3.01-2.02-5.92-4.13-8.97-6.06-2.78-1.7-5.79-2.6-7.63-5.38,7.54-2.69,14.67-6.55,22.57-8.84,8.03-2.33,16.38-3.63,24.72-3.14,12.25.67,25.35,2.87,34.86,11.22,8.57,7.49,16.42,18.22,18.75,29.66-2.2-1.97-4.44-3.86-6.77-5.61-5.56-4.22-11.35-7.81-17.77-10.72-12.34-5.56-25.21-11.76-38.99-12.47-.76,0-.99,1.21-.27,1.48,6.37,2.15,12.97,3.68,19.25,6.24,6.06,2.42,12.29,5.02,17.81,8.48,5.56,3.45,10.99,7.36,16.2,11.35,2.47,1.93,4.84,3.9,7.22,5.92-.67-.18-1.35-.36-2.02-.49-7.94-1.3-16.11.72-24.09.4ZM2348.31,515.7c-4.58-3.19-7.45-7.99-10.09-12.74-2.15-3.86-4.35-9.78-7.67-12.65,12.43,1.66,26.51-2.06,37.6,5.52,8.34,5.74,13.32,14.18,17.14,23.2.09.22.18.45.27.67-.09-.09-.22-.18-.31-.27-3.1-2.38-6.24-4.62-9.47-6.77-3.27-2.15-6.55-4.26-9.92-6.24-3.32-1.93-6.68-4.04-10.27-5.38-1.48-.58-2.38,1.3-1.08,2.15,3.23,2.11,6.77,3.81,10.05,5.83,3.32,1.97,6.51,4.13,9.65,6.37,3.1,2.24,6.15,4.62,9.11,7.04-11.71,2.29-25.35,0-35-6.73ZM2338.89,728.68c-5.2-.54-10.41-1.44-15.3-3.36-8.93-3.5-17.05-8.97-23.82-15.75-7.4-8.21-11.98-19.52-16.47-29.57-3.77-8.57-6.37-17.77-10.63-26.07v-.05c.27.09.54.18.85.27,1.62.49,3.27,1.03,4.93,1.53,11.85,3.45,24.5,3.63,36.39,7.36,3.1,1.03,6.06,2.24,9.02,3.59,8.79,4.04,16.96,9.78,22.57,17.86,3.28,4.71,5.25,9.91,6.42,15.34,1.57,7.45,1.08,14.76.67,22.12-.67-1.21-1.34-2.42-2.02-3.59-3.5-6.01-7.63-11.62-12.29-16.82-4.67-5.2-9.83-9.92-15.43-14.04-5.29-3.9-11.49-8.35-17.95-9.87-.72-.18-1.3.85-.67,1.35,2.56,1.88,5.43,3.36,8.16,4.98,2.96,1.75,5.83,3.68,8.57,5.74,5.34,3.95,10.32,8.48,14.8,13.46,4.49,5.03,8.52,10.54,11.94,16.38,1.75,3.01,3.19,6.15,4.62,9.24-.04.4-.04.76-.04,1.12-4.58.36-9.74-.76-14.31-1.21ZM2235.63,868.29c-7.88-8.84-13.06-20.1-14.43-31.87-1.35-11.6.89-23.2.24-34.82-.29-4.04.08-9.23-1.27-13.02,9.42,4.72,18.89,10.02,27.22,16.51,10.68,8.33,24.5,18.65,28.81,31.95,4.67,14.39-.55,30.16-7.1,42.92-.55,1.07-1.14,2.12-1.72,3.18-.33-1.5-.64-3.02-1-4.52-1.47-6.23-3.2-12.36-5.26-18.42-2.1-6.18-4.38-12.3-6.85-18.35-2.29-5.6-4.51-11.78-8.12-16.69-.38-.52-1.07-.09-.95.48,1.35,6.16,4.25,12.11,6.36,18.05,2.1,5.89,4.02,11.84,5.75,17.85,1.73,6,3.4,12.04,4.98,18.08.57,2.2,1.09,4.41,1.62,6.62-10.81-3.31-20.76-9.51-28.28-17.95ZM2231.37,932.71c-8.14-4.88-14.42-12.57-21.5-18.77-2.72-2.38-5.42-4.95-8.28-7.28-2.01-1.64-4.09-3.16-6.3-4.41.48-.12.97-.25,1.45-.37,5.58-1.32,11.32-1.97,16.96-3.01,11.96-2.2,23.74-4.01,35.03,1.77,5.48,2.8,10.11,7.15,13.18,12.48,1.66,2.88,2.47,5.79,3.28,8.73-.44-.4-.87-.81-1.32-1.19-3.43-2.95-7.15-5.53-11.1-7.74-7.62-4.25-16.96-8-25.86-7.19-.57.05-.83.94-.23,1.17,4.11,1.54,8.36,2.63,12.48,4.14,3.98,1.46,7.88,3.14,11.59,5.2,3.85,2.14,7.54,4.63,10.96,7.41,1.64,1.34,3.23,2.75,4.74,4.24,0,0,.02.02.02.02-1.91,1.13-3.74,2.41-5.65,3.46-8.86,4.89-20.41,6.77-29.47,1.33ZM2278.35,1106.96c-10.36-1.62-20.25-7.27-27.16-15.11-9.77-11.1-17.06-25.11-24.84-37.65-.3-.48-.59-.96-.88-1.44,1.63.28,3.26.56,4.88.84,13.83,2.41,27.81,4.23,41.16,8.77,13.56,4.6,25.61,14.83,29.35,29.07.18.69.72,2.79,1.17,5.02.17.82.32,1.66.44,2.46-5.4-5.74-11.38-10.99-17.78-15.48-4.77-3.35-9.76-6.33-14.97-8.94-2.51-1.26-5.05-2.45-7.61-3.58-2.36-1.04-5.18-2.7-7.77-2.85-1.25-.07-1.55,1.45-.71,2.15,2.09,1.72,5.37,2.54,7.81,3.74,2.39,1.17,4.72,2.44,7.01,3.79,4.8,2.82,9.45,5.91,13.91,9.25,6.95,5.21,13.35,10.93,19.27,17.21-2.21,1.63-5.71,2.22-8.29,2.98-5.13,1.5-9.93.6-15-.19ZM2282.1,1218.62c-2.22-.49-4.31-1.06-5-1.25-14.18-3.98-24.21-16.18-28.59-29.82-4.32-13.42-5.92-27.43-8.1-41.29-.26-1.63-.5-3.26-.76-4.89.48.3.95.6,1.43.9,12.41,7.98,26.31,15.49,37.24,25.44,7.73,7.03,13.22,17.01,14.68,27.4.71,5.08,1.54,9.9-.05,15-.8,2.57-1.44,6.06-3.11,8.24-6.18-6.02-11.8-12.51-16.9-19.54-3.27-4.51-6.28-9.21-9.02-14.05-1.31-2.32-2.55-4.67-3.68-7.07-1.15-2.46-1.93-5.76-3.61-7.87-.68-.86-2.21-.58-2.16.67.11,2.6,1.72,5.45,2.73,7.82,1.09,2.58,2.25,5.14,3.46,7.67,2.53,5.25,5.43,10.29,8.7,15.11,4.39,6.47,9.54,12.53,15.2,18.03-.79-.13-1.63-.29-2.45-.47ZM2052.6,1112.72c-.85,8.88,2.87,18.26,7.09,25.89,2.2,3.95,4.75,7.67,7.72,11.13.36.45.76.9,1.17,1.35-2.92-.85-5.83-1.66-8.7-3.32-5.34-3.1-9.65-7.76-12.43-13.23-5.74-11.31-3.9-23.11-1.66-35.04,1.08-5.65,1.75-11.4,3.1-16.96.09-.49.22-.99.36-1.43,1.26,2.2,2.74,4.31,4.4,6.28,2.33,2.87,4.89,5.61,7.22,8.34,6.19,7.09,13.86,13.42,18.71,21.54,5.38,9.11,3.5,20.64-1.44,29.48-1.08,1.93-2.33,3.68-3.5,5.61-1.48-1.53-2.87-3.1-4.22-4.76-2.78-3.41-5.25-7.13-7.36-10.99-2.06-3.72-3.72-7.63-5.21-11.62-1.48-4.13-2.56-8.34-4.08-12.47-.22-.58-1.12-.36-1.17.22ZM1983.73,1161.76c-13.28-4.35-23.55-18.22-31.85-28.94-6.46-8.34-11.71-17.81-16.42-27.28,3.81,1.35,8.97,1.03,13.01,1.3,11.62.72,23.24-1.48,34.86-.09,11.75,1.39,22.97,6.64,31.81,14.54,8.39,7.54,14.58,17.5,17.86,28.35-2.24-.54-4.44-1.08-6.64-1.66-6.06-1.57-12.07-3.28-18.08-5.02-5.97-1.75-11.93-3.72-17.81-5.83-5.92-2.11-11.89-5.03-18.04-6.42-.54-.13-.99.58-.49.94,4.94,3.63,11.08,5.88,16.69,8.17,6.01,2.51,12.16,4.8,18.3,6.95,6.06,2.06,12.2,3.81,18.4,5.29,1.53.36,3.01.67,4.53,1.03-1.08.58-2.11,1.17-3.19,1.71-12.79,6.5-28.58,11.66-42.94,6.95ZM1800.86,1242.25c-5.43-1.17-10.63-3.19-15.34-6.46-8.03-5.61-13.77-13.82-17.81-22.61-1.35-2.96-2.47-5.97-3.54-9.02-3.68-11.93-3.77-24.54-7.22-36.43-.49-1.66-.99-3.32-1.53-4.98-.04-.27-.13-.54-.22-.81h.04c8.26,4.26,17.45,6.91,26.02,10.72,10.05,4.49,21.31,9.15,29.48,16.6,6.78,6.77,12.2,14.9,15.66,23.82,1.93,4.94,2.83,10.1,3.32,15.34.49,4.58,1.57,9.74,1.17,14.31h-1.08c-3.14-1.39-6.24-2.87-9.24-4.62-5.83-3.46-11.31-7.49-16.33-12.02-4.98-4.49-9.47-9.47-13.46-14.8-2.02-2.78-3.9-5.65-5.65-8.61-1.61-2.74-3.1-5.61-4.98-8.17-.45-.63-1.48-.09-1.35.63,1.53,6.5,5.92,12.7,9.83,18.04,4.08,5.61,8.79,10.77,13.95,15.43,5.2,4.71,10.81,8.84,16.82,12.38,1.17.67,2.33,1.35,3.59,2.02-7.4.4-14.67.85-22.12-.76ZM1619.92,1274.06c-9.02-3.86-17.45-8.84-23.15-17.23-7.54-11.08-3.77-25.17-5.38-37.6,2.87,3.32,8.79,5.52,12.61,7.67,4.75,2.69,9.56,5.61,12.74,10.14,6.68,9.69,8.93,23.38,6.59,35.04-2.42-2.96-4.76-6.01-7-9.11-2.24-3.14-4.35-6.37-6.37-9.65-1.97-3.32-3.68-6.86-5.79-10.1-.81-1.3-2.74-.45-2.15,1.03,1.35,3.59,3.45,7,5.38,10.32,1.93,3.36,3.99,6.68,6.15,9.92,2.15,3.23,4.4,6.42,6.73,9.51.09.09.22.22.31.31-.22-.09-.45-.18-.67-.27ZM1521.44,1230.27c-8.3-9.56-10.5-22.66-11.13-34.86-.45-8.39.9-16.73,3.23-24.77,2.29-7.85,6.24-14.99,8.93-22.52,2.78,1.84,3.68,4.89,5.38,7.63,1.88,3.1,3.99,6.01,5.97,9.02,6.82,10.36,14.04,20.1,17.9,31.99,2.33,7.27,3.72,15.16,3.95,22.93.27,8.03-1.75,16.2-.49,24.14.13.67.31,1.35.49,1.97-2.02-2.33-3.99-4.76-5.88-7.22-3.99-5.2-7.85-10.68-11.31-16.2-3.45-5.56-6.01-11.8-8.43-17.86-2.51-6.28-3.99-12.88-6.19-19.29-.22-.72-1.48-.45-1.43.27.67,13.77,6.82,26.69,12.34,39.08,2.87,6.37,6.42,12.2,10.63,17.77,1.75,2.38,3.63,4.62,5.56,6.77-11.4-2.33-22.07-10.27-29.52-18.84ZM1430.14,1267.6c-8.57-.45-17.23-1.08-25.39-3.86-2.69-.9-5.25-2.06-7.76-3.36-23.02-11.76-36.34-36.61-49.85-57.52,15.7,3.41,30.69,9.65,46.52,12.34,13.15,2.29,26.61,6.82,37.19,15.39,10.27,8.35,18.53,19.56,23.55,31.81.54,1.3,1.03,3.01,1.26,4.58-1.08-.36-2.15-.72-3.19-1.12-3.27-1.26-6.55-2.51-9.78-3.86-6.6-2.69-13.19-5.43-19.7-8.3-6.6-2.87-13.1-5.97-19.52-9.29-3.1-1.61-6.24-3.19-9.33-4.85-3.14-1.61-6.33-3.86-9.69-4.98-.99-.31-2.06.99-1.21,1.84,2.42,2.47,5.88,4.31,8.79,6.15,2.96,1.88,5.92,3.72,8.97,5.43,6.37,3.63,12.88,7,19.52,10.18,6.5,3.19,13.19,6.1,20.01,8.57,2.6.94,5.2,1.84,7.81,2.69-6.06-.4-12.25-1.53-18.21-1.84ZM1494.57,1308.02c-2.51.99-4.98,2.02-7.45,3.14-5.79,2.56-11.4,5.52-16.91,8.7-10.68,6.15-20.91,13.23-30.24,21.36-5.29,4.62-10.72,9.33-14.81,15.07-.67.94.58,1.97,1.44,1.3,6.15-4.76,11.66-10.36,17.72-15.25,6.15-4.94,12.52-9.56,19.2-13.82,6.55-4.17,13.41-7.99,20.41-11.4,5.25-2.56,10.63-4.71,15.93-7.09-.09.13-.18.31-.31.45-3.54,4.22-7.31,8.17-10.5,12.7-3.5,5.07-7.09,10.01-11.04,14.76-8.12,9.74-17.41,18.57-28.09,25.48-9.33,6.06-19.96,9.74-30.73,12.2-10.68,2.42-21.62,3.86-32.39,5.79-.36-1.48.94-2.83,2.06-3.86,3.77-3.36,7.31-6.95,10.5-10.81,11.31-13.77,22.97-27.86,36.92-39.26,13.06-10.68,31.14-16.24,47.65-18.66,3.5-.49,7.04-.49,10.54-.81h.09ZM1623.51,1392.37c5.34-8.39,10.99-16.42,18.08-23.46,3.45-3.41,7.09-6.64,10.95-9.51,1.97-1.48,3.99-2.87,6.06-4.17.31-.18.63-.36.99-.54.76,4.13.58,7.94-.31,12.29-.9,4.31-2.38,8.48-3.77,12.65-2.51,7.76-6.28,15.25-12.11,21.04-10.5,10.41-24.5,15.84-37.6,22.16-2.29,1.08-4.53,2.33-6.73,3.68.09-.27.22-.49.31-.72,2.47-6.42,3.5-13.05,5.2-19.74,2.11-8.21,4.4-16.69,8.12-24.36,4.26-8.75,11.49-16.06,19.7-21.13,4.26-2.6,8.88-4.71,13.77-5.92,3.28-.85,6.6-1.17,9.87-1.8-1.93,1.3-3.77,2.69-5.56,4.13-3.95,3.19-7.72,6.6-11.22,10.27-6.82,7.18-13.01,15.39-17.09,24.45-.36.76.9,1.39,1.35.67ZM1627.64,1345.03c2.51.36,5.07.63,7.63.94-1.26.58-3.23,1.39-5.52,2.24-5.07,1.88-11.35,4.04-12.52,4.35-7,1.93-14.27,3.05-21.54,2.38-11.22-1.08-22.7-6.28-31.18-13.6-7.85-6.68-14.49-14.76-19.96-23.42.54.85,5.47.67,6.42.76,3.01.22,6.01.31,9.06.22,5.88-.09,11.71-.63,17.59-.9,19.79-.76,47.51,5.03,57.52,24.09-2.29-.13-4.53-.31-6.82-.54-5.92-.54-11.84-1.17-17.72-2.11-5.74-.85-11.49-1.88-17.14-3.1-5.97-1.21-11.84-2.92-17.81-3.99-.9-.18-1.12,1.21-.31,1.48,5.56,2.06,11.48,3.32,17.23,4.67,5.74,1.35,11.58,2.56,17.41,3.63,5.88,1.03,11.76,2.06,17.68,2.87ZM1930.26,1312.24c-6.77,1.35-13.46,1.44-20.32,1.44-.85,0-.9,1.17-.09,1.3,6.73,1.35,14.13.85,20.86-.45,3.54-.67,7.09-1.57,10.54-2.78-.27.63-.67,1.26-1.21,1.97-1.75,2.11-3.95,4.44-4.4,4.85-3.05,2.87-6.59,5.16-10.5,6.64-7.67,2.87-15.97,2.02-23.73-.18-3.99-1.12-7.94-2.6-11.8-4.13-1.35-.54-7.67-4.67-8.79-4.17,3.41-1.48,6.28-3.63,9.51-5.52,4.22-2.47,8.39-4.98,12.74-7.09,8.66-4.26,18.26-6.86,27.77-4.17,3.14.9,6.19,2.47,8.39,4.89,1.35,1.48,2.2,2.78,2.42,4.08-3.68,1.39-7.45,2.56-11.4,3.32ZM1959.87,1326.33c.45.58.94,1.12,1.39,1.66,9.6,10.9,16.02,24.99,17.09,39.62.63,17.54-1.97,35.04-3.54,52.49-.09,1.3-.22,2.6-.36,3.86,0,.27-.05.54-.05.81-1.17-1.12-2.29-2.2-3.36-3.32-8.97-9.6-17.95-19.65-25.84-30.1-1.12-1.53-2.2-3.1-3.23-4.71-11.62-18.08-3.59-42.13,11.67-55.72-1.52,8.66-1.97,17.41-1.35,26.25.9,12.16,3.59,24.45,8.97,35.44.49,1.03,1.93.27,1.53-.76-4.13-11.22-7.09-22.84-7.54-34.86-.36-10.01.72-20.05,3.14-29.75.49-.31.94-.67,1.43-.99,0,.04.05.04.05.09ZM2021.15,1287.56c10.09,1.79,18.26,9.51,21,19.29,4.4,15.61.72,31.81,1.03,47.65,0,.58,0,1.17.04,1.75-.85-.58-1.7-1.21-2.56-1.79-10.41-7.58-20.91-15.79-28.35-26.47-4.04-5.7-7.09-12.34-8.21-19.25-.99-6.37.36-11.67,2.74-17.18.45,1.97.94,3.9,1.52,5.83,1.48,4.89,3.36,9.65,5.56,14.27,2.24,4.58,4.85,8.97,7.81,13.15,2.78,3.95,5.92,8.75,10.09,11.31.76.45,1.84-.31,1.35-1.17-2.29-4.17-5.97-7.63-8.7-11.57-2.87-4.13-5.43-8.57-7.67-13.1-2.15-4.49-3.99-9.06-5.47-13.82-.72-2.38-1.35-4.8-1.93-7.22-.09-.31-.14-.63-.18-.99,4.04-.49,7.72-1.39,11.93-.67ZM2215.87,1309.91c-3.95,1.03-7.81,3.19-11.26,4.89-5.2,2.6-10.23,5.56-14.98,8.93-9.42,6.64-17.68,14.72-24.77,23.82-4.04,5.2-7.58,10.77-9.83,17-.58,1.62,1.61,2.6,2.6,1.35,4.4-5.7,8.35-11.76,12.92-17.32,4.4-5.43,9.38-10.36,14.67-14.94,5.29-4.62,10.95-8.75,16.87-12.47,3.1-1.88,6.24-3.63,9.47-5.2,1.62-.81,3.32-1.48,4.94-2.29.09,1.44.13,2.92.13,4.17.09,10.9-2.74,21.13-7.72,30.73-5.79,11.17-14.76,19.61-26.47,24.32-10.41,4.17-20.64,8.75-30.91,13.28-4.89,2.2-9.96,4.04-15.03,5.92-.67.27-1.35.54-2.06.85.22-.49.4-.94.58-1.43.72-1.66,1.43-3.32,2.11-4.98,4.26-10.27,7.85-20.82,12.2-31,5.2-12.2,13.46-23.51,24.59-31.09,11.35-7.63,25.26-12.88,38.81-14.72.99-.13,2.02-.27,3.05-.27.04.13.04.31.09.45ZM2207.34,1291.82c-8.88,8.7-21.4,3.86-30.6-1.57-9.15-5.38-16.96-12.52-25.57-18.53-.13-.09-.27-.18-.4-.27.76.49,6.37-1.8,7.4-2.02,2.92-.76,5.83-1.44,8.75-1.97,5.92-1.12,11.98-1.8,17.99-1.26,6.91.63,13.77,3.37,18.8,8.17,2.02,1.93,3.54,4.13,4.85,6.51.67,1.17,2.24,3.36,2.92,5.07-5.2-.27-10.41-.85-15.57-1.97-3.72-.85-7.36-1.93-10.95-3.23-3.68-1.35-7.18-3.27-10.9-4.49-1.3-.4-2.06,1.26-1.08,2.06,3.14,2.51,7.18,4.04,10.9,5.47,3.77,1.44,7.72,2.6,11.66,3.5,4.71,1.03,9.51,1.75,14.31,1.93-.81.9-1.62,1.75-2.51,2.6ZM2422.74,1115.73c.81-1.62,1.52-3.28,2.29-4.89,1.62-3.23,3.36-6.42,5.29-9.47,3.72-5.92,7.9-11.58,12.52-16.82,4.58-5.29,9.56-10.23,14.98-14.63,5.61-4.53,11.62-8.48,17.36-12.88,1.3-.99.27-3.14-1.3-2.56-6.28,2.2-11.89,5.74-17.09,9.74-9.11,7.04-17.23,15.3-23.87,24.68-3.41,4.75-6.37,9.78-9.02,14.98-1.71,3.41-3.9,7.27-4.89,11.22-.18-.04-.36-.04-.49-.09.04-1.03.13-2.06.27-3.05,1.93-13.5,7.22-27.46,14.89-38.72,7.58-11.17,18.93-19.34,31.14-24.5,10.23-4.31,20.77-7.9,31.09-12.11,1.66-.67,3.32-1.39,4.98-2.06.49-.18.94-.4,1.44-.58-.31.67-.58,1.39-.85,2.06-1.93,5.02-3.77,10.09-5.97,15.03-4.62,10.23-9.2,20.46-13.41,30.82-4.76,11.66-13.19,20.64-24.41,26.38-9.65,4.94-19.88,7.76-30.73,7.63-1.3-.04-2.74-.09-4.22-.18ZM2389.99,1107.7c-2.38-1.35-4.58-2.87-6.46-4.89-4.8-5.02-7.54-11.89-8.12-18.8-.49-6.01.18-12.07,1.3-17.99.54-2.96,1.26-5.88,2.02-8.75.27-1.03,2.56-6.64,2.06-7.4.04.13.13.27.22.36,6.01,8.7,13.15,16.51,18.48,25.66,5.38,9.24,10.14,21.81,1.44,30.64-.85.85-1.7,1.66-2.6,2.51-.18-4.85-.85-9.6-1.88-14.31-.9-3.99-2.02-7.94-3.45-11.76-1.44-3.68-2.96-7.76-5.43-10.86-.81-1.03-2.47-.27-2.06,1.03,1.17,3.72,3.1,7.22,4.4,10.95,1.3,3.59,2.38,7.22,3.23,10.95,1.12,5.16,1.66,10.36,1.93,15.57-1.71-.67-3.9-2.24-5.07-2.92ZM2437.99,860.58c-.54-.49-1.08-.99-1.66-1.39-.04-.05-.04-.09-.09-.09.31-.49.67-.94.99-1.44,9.74-2.33,19.79-3.41,29.75-3.01,12.02.49,23.64,3.45,34.86,7.67,1.03.36,1.8-1.08.76-1.57-10.99-5.38-23.29-8.12-35.44-9.06-8.79-.67-17.59-.27-26.2,1.26,13.59-15.21,37.69-23.19,55.77-11.44,1.57,1.03,3.14,2.06,4.67,3.23,10.45,7.94,20.46,16.96,30.01,25.93,1.12,1.08,2.2,2.2,3.27,3.36-.22,0-.49.04-.76.04-1.3.13-2.6.27-3.86.36-17.45,1.48-34.95,4.04-52.54,3.37-14.63-1.12-28.67-7.63-39.53-17.23ZM2414.93,838.46c-2.42-2.2-3.99-5.29-4.89-8.39-2.65-9.56,0-19.16,4.26-27.77,2.15-4.4,4.67-8.52,7.13-12.7,1.93-3.23,4.08-6.1,5.56-9.56-.49,1.12,3.63,7.49,4.13,8.84,1.52,3.86,3.01,7.81,4.13,11.84,2.15,7.72,3.01,16.02.09,23.69-1.48,3.9-3.81,7.45-6.69,10.45-.45.49-2.74,2.65-4.89,4.4-.67.54-1.35.94-1.97,1.21,1.21-3.41,2.15-7,2.87-10.54,1.3-6.73,1.84-14.09.49-20.86-.13-.81-1.3-.76-1.3.13-.04,6.86-.13,13.5-1.48,20.28-.81,3.95-1.97,7.72-3.41,11.4-1.3-.27-2.6-1.08-4.04-2.42ZM2418.57,903.34c6.96,1.12,13.55,4.22,19.25,8.26,10.63,7.54,18.8,18.04,26.34,28.49.63.85,1.21,1.71,1.79,2.56-.58-.04-1.17-.04-1.75-.09-15.84-.36-32.03,3.28-47.65-1.17-9.74-2.78-17.45-10.99-19.2-21.09-.72-4.22.22-7.9.72-11.93.36.04.67.13.99.22,2.42.54,4.85,1.21,7.22,1.93,4.71,1.48,9.33,3.32,13.77,5.52,4.53,2.24,8.97,4.85,13.1,7.72,3.9,2.78,7.36,6.46,11.53,8.75.85.49,1.62-.58,1.17-1.35-2.56-4.17-7.31-7.31-11.26-10.14-4.17-2.96-8.52-5.61-13.15-7.85-4.58-2.24-9.33-4.08-14.22-5.61-1.93-.58-3.86-1.12-5.83-1.57,5.52-2.33,10.86-3.68,17.18-2.65ZM2465.77,559c.18-.36.36-.67.54-.99,1.35-2.06,2.74-4.08,4.17-6.06,2.92-3.86,6.15-7.49,9.56-10.9,7.09-7.04,15.12-12.7,23.55-17.99.72-.49.09-1.7-.72-1.35-9.06,4.04-17.27,10.18-24.5,17-3.68,3.46-7.09,7.22-10.27,11.17-1.48,1.8-2.87,3.63-4.17,5.52.63-3.28.99-6.55,1.84-9.87,1.21-4.85,3.32-9.47,5.97-13.73,5.12-8.16,12.43-15.39,21.22-19.61,7.63-3.72,16.15-5.97,24.41-8.03,6.64-1.66,13.28-2.69,19.7-5.16.27-.09.49-.18.72-.27-1.35,2.15-2.56,4.4-3.68,6.68-6.33,13.1-11.84,27.05-22.3,37.51-5.83,5.83-13.33,9.56-21.09,12.07-4.17,1.35-8.34,2.83-12.65,3.72-4.35.85-8.17,1.03-12.29.27ZM2443.74,474.96c1.08,5.97,2.74,11.85,3.95,17.81,1.17,5.7,2.2,11.4,3.05,17.14.9,5.92,1.53,11.8,2.06,17.72.18,2.29.36,4.58.49,6.86-19.07-10.1-24.72-37.82-23.87-57.61.27-5.88.81-11.71.94-17.59.09-3.05.04-6.06-.18-9.11-.09-.9.09-5.83-.76-6.37,8.66,5.52,16.69,12.2,23.33,20.01,7.27,8.57,12.47,20.06,13.5,31.23.63,7.27-.49,14.58-2.47,21.54-.31,1.21-2.47,7.45-4.4,12.56-.85,2.24-1.66,4.22-2.24,5.47-.31-2.56-.58-5.11-.94-7.67-.76-5.88-1.75-11.8-2.83-17.68-1.03-5.83-2.2-11.62-3.5-17.41-1.35-5.74-2.56-11.67-4.62-17.23-.31-.81-1.66-.58-1.53.31ZM2468.23,324.53c-5.74,4.08-10.5,9.51-15.12,14.81-8.17,9.29-15.3,19.47-21.49,30.15-3.19,5.47-6.19,11.13-8.79,16.87-1.08,2.47-2.15,4.94-3.14,7.45v-.09c.31-3.5.36-7.04.85-10.54,2.51-16.47,8.08-34.55,18.84-47.6,11.44-13.91,25.57-25.53,39.35-36.74,3.9-3.19,7.49-6.73,10.86-10.45,1.03-1.17,2.38-2.42,3.9-2.06-1.97,10.72-3.45,21.72-5.92,32.35-2.51,10.77-6.24,21.36-12.29,30.69-6.95,10.68-15.84,19.92-25.62,28-4.76,3.95-9.74,7.49-14.76,10.99-4.53,3.19-8.52,6.95-12.79,10.45-.13.13-.27.22-.4.36,2.38-5.29,4.58-10.72,7.13-15.93,3.41-7.04,7.27-13.82,11.49-20.41,4.26-6.64,8.88-13.01,13.86-19.11,4.93-6.06,10.54-11.53,15.34-17.68.67-.85-.36-2.11-1.3-1.48ZM2372.4,296.04c1.3,2.51,2.42,5.07,3.32,7.76,2.74,8.21,3.36,16.82,3.77,25.44.31,5.97,1.39,12.16,1.8,18.22-.85-2.6-1.75-5.21-2.65-7.81-2.47-6.82-5.38-13.55-8.52-20.05-3.14-6.64-6.51-13.15-10.09-19.56-1.71-3.05-3.54-6.01-5.39-8.97-1.88-2.96-3.68-6.37-6.15-8.84-.85-.81-2.15.22-1.84,1.26,1.08,3.32,3.32,6.55,4.93,9.65,1.66,3.1,3.19,6.28,4.8,9.38,3.32,6.42,6.37,12.92,9.24,19.52,2.83,6.55,5.52,13.15,8.21,19.74,1.34,3.28,2.6,6.51,3.86,9.78.36,1.03.72,2.11,1.08,3.19-1.57-.18-3.28-.72-4.58-1.26-12.2-5.07-23.42-13.32-31.72-23.69-8.52-10.59-13.01-24.09-15.25-37.24-2.65-15.84-8.79-30.82-12.16-46.53,20.86,13.55,45.67,26.96,57.34,50.03Z"/>
  <path class="cls-1" d="M948.09.74c-14.49,8.88-31.76,13.64-45.27,24-8.57,6.59-14.8,15.61-18.17,25.98-1.89,5.83-3.14,11.84-3.72,17.9-.27,2.83.63,5.83-.09,8.61-.9,3.23-3.59,4.44-6.19,6.19-18.98,12.47-38.45,23.24-59,32.8-26.2,12.2-49.94,30.42-78.51,37.87-12.61,3.27-25.35,6.01-38.05,8.97-5.65,1.35-11.26,2.74-16.82,4.26-7.18,2.02-14.36,4.17-21.49,6.37-18.66,5.74-36.97,12.02-56.08,16.6-21.76,5.25-44.78,11.04-67.21,11.98-2.2.09-8.39-.54-10.05,1.21,17.68-18.71,33.74-37.91,49.04-58.64,4.94-6.68,10.18-14.09,17.86-17.81.09,0,.13,0,.18-.04.45-.22.9-.4,1.35-.58,3.81-.99,5.83,3.77,8.57,5.74,9.56,6.95,23.38,6.46,33.74,1.88,10.23-4.49,18.89-11.93,29.52-15.61,8.35-2.92-5.61-8.12-8.3-9.2-6.37-2.6-13.01-4.76-19.79-5.97-13.24-2.33-27.28-.4-36.34,10.41-2.6,3.14-4.31,7-7.81,9.33-6.19,4.08-12.25,7.4-17.27,13.06,1.12-2.78,2.15-5.56,3.1-8.39,2.69-8.26,4.08-15.07,10.14-21.72,2.56-2.83,5.47-5.29,8.03-8.12,10.09-11.04,15.61-26.88,11.93-41.37-3.9-15.43-16.91-26.52-27.28-38.58-4.35-5.03-8.43-10.5-14.04-14.04-.94-.63-2.29-1.12-3.1-.36-.45.45-.58,1.08-.63,1.7-1.52,11.67-3.05,23.29-4.08,35-.9,10.23-1.39,20.55-.04,30.69,1.39,10.18,4.71,20.23,10.9,28.44,3.32,4.35,7.58,8.61,7.9,14.04.13,2.47-.58,4.89-1.35,7.27-7.4,23.02-20.64,41.59-35.94,59.99-1.48,1.75-2.96,3.5-4.44,5.25.49-1.26.99-2.47,1.3-3.77,1.84-6.77,2.06-14.4,1.17-21.31-.49-4.04-3.1-9.15-2.47-13.19.9-5.43,4.62-9.78,5.29-15.48.72-5.7-.09-11.53-2.06-16.91-2.69-7.27-7.4-13.82-12.43-19.7-1.26-1.48-2.56-2.96-3.9-4.31-7.45-7.49-16.29-14.9-25.62-19.88-.18-.09-.36-.18-.58-.27-2.65-1.21-3.77,1.53-3.5,3.77.54,4.62.4,9.29.22,13.95-.45,9.78-1.17,19.74-.13,29.48.85,7.85,3.01,16.02,8.61,21.8,4.53,4.71,10.45,8.21,16.96,9.38,3.14.54,5.79.22,8.84-.22,2.65-.36,3.9,0,4.71,2.83,1.17,4.31,1.93,8.88,2.2,13.37.63,9.33-.58,22.12-7.27,29.39-8.88,9.69-24.23,11.26-36.83,12.88-36.61,4.71-74.03,6.46-110.91,3.68-8.03-.63-15.88-2.24-23.82-3.54-22.07-3.72-44.46-7.76-66.09-14.13-7.72-2.29-15.34-4.89-22.93-7.58-7.58-2.74-15.07-5.7-22.57-8.7-5.52-2.2-11.04-4.44-16.51-6.68,1.53-.27,3.05-.54,4.58-.94,3.5-.9,6.86-2.06,10.27-3.32,6.46-2.38,12.79-5.07,19.07-7.9,5.2-2.33,10.45-5.34,15.84-7.18,4.62-1.57,9.51-4.17,14.45-4.85,6.82-.94,13.77-2.06,20.68-1.48,4.22.31,9.47.36,12.83,3.46,1.57,1.48,2.33,4.13,3.41,5.97,3.81,6.59,9.92,11.8,16.96,14.54,8.21,3.14,17,1.84,25.48.67,5.38-.76,10.77-1.84,16.06-3.32,2.74-.76,13.41-2.96,7.4-7.31-11.8-8.48-23.15-18.93-36.83-24.23-.85-.36-1.7-.67-2.56-.94-8.3-2.47-18.8-2.2-25.04,4.62-3.41,3.68-5.83,4.67-11.04,3.77-7.45-1.3-15.21-1.3-22.61.31-1.08.22-2.15.49-3.23.76,2.02-1.08,4.04-2.2,6.01-3.36,5.16-3.05,10.23-6.19,15.17-9.6,4.4-3.05,8.97-2.96,14.04-3.54,8.21-.94,16.73-2.83,24.32-6.19,3.41-1.52,6.73-3.23,10.01-5.02,9.51-5.21,17.72-12.65,24-21.49,6.77-9.47,10.59-20.41,14.67-31.23,1.3-3.46,2.56-6.91,3.81-10.36,1.57-4.31,3.19-8.57,4.89-12.83,1.3-3.28.31-5.52-3.77-3.86-14.67,6.1-29.57,11.66-44.19,17.86-9.2,3.9-18.75,8.17-25.8,15.7-7.76,8.3-12.92,19.16-15.34,30.24-1.3,5.97-.72,11.98-1.62,17.9-.49,3.41-1.97,5.25-4.89,6.86-12.74,7-25.17,14.49-37.87,21.49-12.43,6.86-25.44,11.22-38.85,16.02-15.79,5.65-27.82.63-42.53-5.65-13.55-5.74-27.01-11.62-40.47-17.63-5.53-2.49-11.07-4.99-16.61-7.48-1.48-3.73-2.97-7.47-4.57-11.13-1.68-3.87-6.55-21.82-12.19-19.69-4.72,1.79-1.42,7.23-.14,10.09,2.44,5.47,4.88,10.94,7.32,16.42-3.71-1.67-7.41-3.35-11.14-5.02-3.37-1.51-11.69-8.3-14.55-3.13-2.98,5.39,5.97,7.11,9.07,8.6,6.32,3.05,12.66,6.05,18.98,9.11.78.38,1.57.7,2.36,1.05,1.55,3.47,3.09,6.93,4.64,10.4,5.97,13.41,11.8,26.96,17.5,40.51,6.24,14.76,11.17,26.74,5.47,42.58-4.84,13.37-9.2,26.38-16.11,38.72-7.09,12.7-14.63,25.12-21.67,37.82-1.57,2.92-3.45,4.4-6.86,4.89-5.92.85-11.93.22-17.95,1.53-11.04,2.38-21.94,7.49-30.24,15.25-7.54,7-11.89,16.56-15.84,25.75-6.24,14.58-11.84,29.48-17.99,44.1-1.66,4.08.54,5.07,3.86,3.77,4.26-1.66,8.53-3.27,12.83-4.8,3.45-1.26,6.95-2.51,10.41-3.77,10.81-4.04,21.76-7.85,31.27-14.58,8.84-6.28,16.29-14.45,21.58-23.96,1.8-3.27,3.5-6.59,5.03-9.96,3.36-7.58,5.34-16.06,6.28-24.32.58-5.07.54-9.65,3.59-14.04,3.41-4.89,6.64-9.91,9.65-15.08,1.21-1.97,2.33-3.99,3.41-6.06-.27,1.12-.54,2.2-.81,3.28-1.57,7.36-1.61,15.16-.36,22.57.9,5.25-.13,7.67-3.81,11.04-6.82,6.24-7.13,16.73-4.71,24.99.27.9.58,1.75.94,2.6,5.2,13.68,15.66,25.12,24.09,36.92,4.31,6.01,6.59-4.62,7.36-7.4,1.48-5.25,2.6-10.63,3.36-16.06,1.17-8.43,2.51-17.23-.58-25.44-2.74-7.09-7.9-13.19-14.49-17-1.84-1.08-4.44-1.84-5.92-3.46-3.1-3.41-3.1-8.66-3.45-12.83-.54-6.91.63-13.91,1.57-20.68.67-4.94,3.32-9.78,4.89-14.45,1.84-5.38,4.89-10.59,7.27-15.79,2.83-6.28,5.52-12.61,7.94-19.07,1.26-3.37,2.47-6.73,3.36-10.23.4-1.52.67-3.05.94-4.62,2.24,5.52,4.49,11.04,6.64,16.6,2.96,7.49,5.92,14.99,8.61,22.57,2.69,7.58,5.25,15.21,7.49,22.97,6.28,21.63,10.27,44.06,13.91,66.13,1.3,7.94,2.87,15.79,3.5,23.82,2.6,36.88.72,74.3-4.13,110.91-1.66,12.61-3.27,27.91-13.01,36.79-7.27,6.64-20.05,7.81-29.39,7.18-4.49-.31-9.06-1.08-13.37-2.29-2.83-.81-3.19-2.06-2.83-4.71.45-3.05.81-5.65.27-8.84-1.17-6.5-4.62-12.43-9.33-17-5.74-5.61-13.91-7.81-21.76-8.66-9.74-1.08-19.7-.4-29.48,0-4.66.18-9.33.27-13.91-.27-2.29-.27-5.02.81-3.81,3.5.09.18.18.4.27.58,4.94,9.33,12.34,18.22,19.74,25.66,1.39,1.39,2.87,2.65,4.31,3.9,5.88,5.07,12.38,9.83,19.7,12.56,5.38,1.97,11.17,2.78,16.91,2.11,5.7-.67,10-4.35,15.48-5.25,3.99-.63,9.11,1.97,13.15,2.51,6.95.94,14.53.72,21.35-1.08,1.26-.36,2.51-.81,3.72-1.3-1.7,1.48-3.45,2.96-5.2,4.44-18.44,15.21-37.1,28.4-60.16,35.71-2.33.76-4.8,1.44-7.22,1.3-5.47-.36-9.69-4.62-14.04-7.94-8.16-6.19-18.21-9.56-28.4-10.99-10.14-1.39-20.46-.94-30.69-.09-11.71.99-23.37,2.47-35,3.95-.63.09-1.3.18-1.7.63-.81.85-.27,2.15.31,3.14,3.54,5.61,9.02,9.69,14.04,14.04,12.02,10.45,23.02,23.46,38.45,27.46,14.49,3.72,30.33-1.75,41.41-11.8,2.83-2.56,5.34-5.43,8.17-8.03,6.64-6.01,13.46-7.36,21.71-10.05,2.83-.9,5.65-1.93,8.39-3.05-5.65,4.98-8.97,11.04-13.1,17.23-2.33,3.45-6.19,5.21-9.33,7.81-10.86,8.97-12.88,23.06-10.54,36.3,1.17,6.77,3.32,13.37,5.88,19.79,1.08,2.69,6.24,16.64,9.15,8.3,3.72-10.59,11.22-19.2,15.75-29.43,4.58-10.36,5.16-24.18-1.8-33.78-1.97-2.69-6.68-4.75-5.7-8.57.18-.45.4-.9.58-1.35.04-.04.04-.09.04-.13,3.77-7.67,11.17-12.92,17.9-17.81,20.77-15.25,40.06-31.23,58.77-48.81-1.75,1.66-1.12,7.81-1.26,10.01-.99,22.43-6.86,45.45-12.2,67.21-4.67,19.07-10.95,37.33-16.78,55.99-2.2,7.13-4.4,14.27-6.42,21.49-1.57,5.56-3.01,11.17-4.35,16.78-3.01,12.7-5.79,25.39-9.15,38-7.54,28.58-25.8,52.27-38.09,78.38-9.65,20.5-20.46,39.98-33.02,58.86-1.75,2.65-2.96,5.34-6.24,6.19-2.74.72-5.74-.18-8.57.04-6.1.58-12.11,1.84-17.95,3.68-10.36,3.32-19.38,9.56-26.02,18.08-10.45,13.46-15.25,30.73-24.18,45.18-2.83,4.53,3.05,1.03,4.08.76,7.45-1.93,14.89-3.72,22.34-5.65,14.81-3.9,29.92-8.35,40.6-20.1,8.12-8.97,12.74-20.82,14.4-32.71.36-2.65.36-5.47,1.44-7.94,1.17-2.74,2.96-5.25,5.02-7.31-.72.72-1.08,4.71-1.44,5.97-.67,2.56-.94,5.34-1.21,7.99-.36,3.77-.36,7.58-.76,11.4-.36,3.45-1.88,6.19-3.54,9.24-3.95,7.09-6.15,15.52-7.76,23.38-5.29,26.02,12.2,51.24,32.53,65.64,2.83,1.97,5.74,3.9,8.93,5.25.58.27,1.21.49,1.8.36,3.23-.58.94-15.34.99-17.95.09-5.79.49-11.57.81-17.32.72-13.37-1.48-25.26-6.64-37.6-2.38-5.61-5.12-11.17-8.88-16.02-3.14-4.04-7.9-6.82-10.63-11.17-4.04-6.42-2.47-16.47-1.57-23.55,1.44-11.66,8.21-22.48,13.64-32.62,1.52-2.87,3.14-5.7,4.67-8.57,6.33-11.75,12.52-23.6,19.07-35.26,3.28-5.74,6.46-11.57,9.69-17.36,1.52-2.83,3.05-5.65,4.53-8.52,1.3-2.56,2.65-5.07,3.95-7.63-1.48,6.1-2.92,12.25-4.35,18.35-1.61,7-3.23,13.95-4.8,20.95-4.85,20.82-7.72,42.17-9.69,63.3-.4,4.08-.76,8.12-1.12,12.16-.27,3.14-.49,6.33-.76,9.47-1.53,18.3-3.9,37.1-2.51,55.63.94,13.1,1.93,26.16,2.87,39.26,1.17,15.21,6.46,31.63-1.39,45.94-2.42,4.4-7.4,7.13-11.26,10.1-10.09,7.76-21.13,14.13-30.42,22.93-8.43,8.03-15.79,17.41-21.54,27.37-8.3,14.45-10.09,31.67-12.88,47.83-.72,4.17-1.62,8.25-1.84,12.47-.04,1.17-.54,3.5-.04,4.62.31.76,1.48,2.15,2.42,2.06.67-.04,1.26-.54,1.8-.99,9.29-8.03,18.8-15.75,28.35-23.47.81-.63,1.62-1.3,2.42-1.93,12.79-10.54,24.86-22.3,32.98-36.92,8.66-15.48,11.57-32.8,13.1-50.07.31-3.14.22-6.37.49-9.47.45-4.94,1.88-10.68,3.45-15.34.54-1.57,1.12-3.14,1.66-4.71.04-.04.04-.13.09-.18.36,1.26.76,2.56,1.17,3.86,4.71,14.13,9.69,27.91,14.63,41.99,2.92,8.21,6.37,16.42,8.07,24.94,1.71,8.75,1.39,17.72,1.75,26.47.18,4.35.63,8.61,1.3,12.92,2.06,13.41,9.11,26.38,18.75,35.8,7.9,7.72,17.54,13.68,26.25,20.46,6.19,4.75,12.74,8.97,19.34,13.19,1.53.99,6.78,5.38,8.48,3.28,1.21-1.53-1.39-7.4-1.75-8.93-4.66-17.77-8.52-35.85-11.48-53.97-1.3-7.94-3.9-15.52-8.03-22.48-7.45-12.56-17.5-20.59-30.51-27.1-4.17-2.06-8.66-3.45-12.79-5.52-5.2-2.6-6.73-4.93-9.06-10.09-4.89-10.95-9.33-22.12-13.28-33.47-8.12-23.33-15.21-47.96-17.63-72.5-2.06-21.58-1.21-43.25.58-64.83.27-3.05,1.7-7.45,1.12-10.41,2.15,10.95,4.13,22.88,8.66,33.06,4.62,10.27,10,20.19,16.06,29.66,5.29,8.3,12.61,15.21,17.63,23.64,4.94,8.26,6.73,18.44,10.99,27.14,3.14,6.33,6.91,12.52,12.38,17.14,7.76,6.51,17.36,10.86,27.23,12.88,10.63,2.15,21.76,2.56,32.39.36,11.58-2.38,24.32-7.36,34.41-13.51,4.17-2.56-3.59-5.56-5.34-6.59-9.2-5.56-17.63-11.94-26.56-17.9-11.44-7.63-24.09-12.65-37.82-14.31-6.37-.76-12.7-.63-19.11-.04-5.97.49-12.47,1.21-17.99-1.66-2.06-1.12-4.04-3.95-5.65-5.65-4.22-4.4-8.17-9.15-11.71-14.09-9.42-12.97-18.35-26.51-23.91-41.59-1.75-4.84-3.19-9.83-4.76-14.72-.9-2.96-1.26-7.81-2.78-10.41.63,1.08,1.3,2.15,2.02,3.19,3.5,5.2,7.27,10.23,11.67,14.81,5.29,5.47,7.04,12.65,10.81,19.16,3.36,5.7,7.63,10.9,12.79,15.07,2.51,2.02,5.47,3.41,8.48,4.53,10.14,3.77,21.49,2.11,32.08,2.56,1.03.04,7.27.36,5.7-2.15-1.08-1.66-2.29-3.23-3.32-4.94-6.19-9.87-10.09-21.89-21.71-26.87-8.17-3.54-17-5.97-26.02-5.07-10.99,1.08-19.87-7.76-25.35-16.33-6.82-10.72-8.75-21.09-7.31-33.65,4.76-41.64,13.15-83.31,23.87-123.78,4.67-17.81,8.21-35.89,12.7-53.75.81-3.36,1.8-6.69,2.74-10.01.36,1.57.81,3.14,1.21,4.71,3.01,10.9,9.42,20.68,10.23,32.35.54,8.21-.67,16.42.9,24.59,2.87,14.99,12.25,27.73,25.3,35.44,12.56,7.45,27.32,10.68,41.46,12.7,4.4.63,8.79,1.48,13.1,2.51,3.41.81,12.52,5.97,9.2-2.06-3.5-8.34-6.33-17-9.6-25.48-5.79-15.03-11.98-29.93-24.9-40.29-12.79-10.32-28.13-13.77-44.06-14.54-10.95-.49-15.52-17.45-17.14-26.11-2.65-14,3.9-28.89,7.63-41.99,2.15-7.4,4.13-14.85,6.19-22.25,5.92-21.49,10.77-43.11,14.22-65.05,3.81-24.45,6.82-49.04,9.29-73.62.4-3.82.71-7.65.99-11.48.54.58,1.09,1.16,1.6,1.71,9.84,10.99,19.96,22.18,29.02,33.82,2.44,3.14,4.79,6.35,7.03,9.63,4.75,6.94,8.93,14.23,12.33,21.93,2.18,4.94,4.39,9.96,5.1,15.35.55,4.17-1.13,8.93-3.12,12.67-5.64,10.57-9.42,22.4-7.98,34.51.24,2,.72,3.97,1.18,5.92,2.82,11.78,11.51,20.8,20.46,28.43,12.67,10.79,26.7,18.56,41.22,26.49,4.71,2.57,1.57-12.56,1.43-14.73-1.12-18.09,3.18-36.93-3.43-54.37-5.53-14.6-17.37-26.91-31.3-33.5-6.78-3.21-12.28-5.84-15.11-12.93-2.79-7-6.5-13.56-10.06-20.19-2.94-5.46-6.09-10.92-8.77-16.5,5.31.93,13.62,7.51,16.59,11.87,1.55,2.27,1.56,5.38,2.44,7.94.97,2.82,2.41,5.52,4.1,7.98,3.38,4.94,8.04,9.07,13.58,11.4,11.02,4.63,23.39,4.01,34.94,2.1,5.95-.98,11.82-2.35,17.69-3.73,2.18-.51,5.35-.88,6.26-2.1.55-.74.26-1.79-1.6-3.38-17.82-15.22-41.31-47.08-67.81-31.68-6.82,3.93-12.85,1.25-19.18-2.7-18.72-11.69-36.25-29.46-45.01-49.95-.2-.46-.33-.91-.5-1.36.11-1.42.23-2.84.34-4.26.54-7.36,1.08-14.9,1.3-22.34.31-10.72.13-21.49,0-32.21-.09-6.37-.99-12.61-1.84-18.93-.9-6.51-1.93-13.01-3.05-19.47-2.28-12.96-4.88-26.02-7.93-39.01,2.82,2.76,5.71,5.45,8.76,7.95,5.06,4.14,10.36,7.95,15.72,11.68,4.77,3.32,5.5,10.43,6.78,15.93.98,4.22,2.78,8.22,5.11,11.87,4.65,7.28,11.45,13.35,19.26,17.07,8.63,4.11,19,6.06,28.29,8.05,5.35,1.15,10.73,2.15,16.11,3.1,3.4.6,6.82,1.16,10.25,1.57,1.4.17,3.5.77,4.74-.21,2.24-1.77-.64-4.24-1.67-6.14-1.63-3.01-2.95-6.2-4.74-9.13-3.88-6.35-7.84-12.66-11.86-18.92-6.14-9.55-12.54-17.74-22.86-23.06-7.38-3.8-16.04-5.63-24.33-5.81-8.38-.18-15.83,5.37-23.32.04-9.78-6.96-20.41-13.86-28.45-22.91-4.79-18.99-10.58-37.72-17.85-55.61-2.56-6.28-5.25-12.02-7.49-18.48-2.47-7.22-5.12-14.4-7.99-21.49-1.57-3.86-3.23-7.67-4.93-11.48-3.41-7.58-6.86-15.12-10.23-22.7-3.5-7.94-6.95-15.88-10.32-23.91-.45-1.07-.88-2.15-1.32-3.23,1.73.64,3.45,1.3,5.18,2.02,5.97,2.42,11.89,4.89,17.86,7.31,7.45,3.1,14.72,6.28,22.03,9.69,7.22,3.45,14.49,6.82,21.94,9.83,1.31.53,2.64,1.02,3.95,1.54,12.95,8.32,21.36,22.25,29.96,34.75,5.21,7.58-.45,14.93-.41,23.32.04,8.29,1.74,16.97,5.42,24.42,5.15,10.41,13.23,16.94,22.69,23.23,6.2,4.12,12.44,8.18,18.73,12.16,2.9,1.84,6.06,3.21,9.05,4.89,1.89,1.06,4.31,3.98,6.12,1.77,1-1.23.43-3.33.29-4.73-.35-3.44-.85-6.86-1.4-10.27-.87-5.4-1.78-10.79-2.85-16.16-1.84-9.33-3.62-19.72-7.59-28.42-3.59-7.86-9.55-14.77-16.76-19.53-3.61-2.38-7.58-4.25-11.78-5.3-5.47-1.37-12.58-2.2-15.82-7.03-3.64-5.43-7.37-10.79-11.43-15.91-3.41-4.3-7.15-8.29-10.99-12.21,1.44.52,2.87,1.06,4.31,1.56,6.42,2.24,12.16,4.98,18.44,7.54,32.84,13.5,68.51,22.12,103.46,28.4,10.86,1.93,21.72,3.54,32.66,4.8,7.36.85,13.59.67,20.5,3.68,20.46,8.79,38.14,26.38,49.76,45.18,3.95,6.33,6.6,12.38,2.65,19.16-15.48,26.47,16.29,50.07,31.45,67.93,1.57,1.88,2.65,2.2,3.36,1.61,1.21-.9,1.61-4.08,2.11-6.24,1.39-5.88,2.83-11.76,3.81-17.68,1.93-11.53,2.6-23.91-1.97-34.95-2.33-5.56-6.42-10.23-11.35-13.64-2.47-1.66-5.16-3.14-7.99-4.13-2.56-.85-5.65-.9-7.9-2.47-4.35-2.96-10.9-11.31-11.84-16.6,5.61,2.69,11.04,5.83,16.51,8.79,6.6,3.59,13.15,7.36,20.14,10.14,7.09,2.87,9.69,8.39,12.88,15.16,6.55,13.95,18.8,25.84,33.38,31.45,17.41,6.64,36.3,2.42,54.38,3.63,2.15.13,17.27,3.32,14.72-1.39-7.85-14.54-15.57-28.62-26.34-41.32-7.58-8.97-16.55-17.72-28.36-20.55-1.93-.49-3.9-.99-5.92-1.21-12.11-1.48-23.91,2.24-34.55,7.85-3.72,1.97-8.48,3.63-12.65,3.1-5.38-.76-10.41-2.96-15.34-5.16-7.67-3.45-14.94-7.67-21.89-12.43-3.28-2.24-6.46-4.62-9.6-7.09-11.62-9.06-22.75-19.25-33.65-29.07-1.26-1.17-2.51-2.38-3.81-3.54-.13-.18-.31-.31-.45-.49,2.33.09,4.71.13,7.04.18,3.5.04,7,0,10.5-.13,3.54-.18,7.13-.4,10.68-.67,3.54-.27,7.09-.54,10.63-.76,6.87-.4,13.68-.85,20.5-1.52,24.63-2.38,49.22-5.34,73.67-9.06,21.98-3.36,43.61-8.12,65.14-14,7.4-2.02,14.85-3.99,22.25-6.06,13.15-3.72,28.04-10.18,42.04-7.49,8.66,1.66,25.57,6.24,26.07,17.23.67,15.93,4.08,31.27,14.31,44.1,10.36,12.97,25.21,19.2,40.24,25.08,8.44,3.27,17.09,6.15,25.44,9.65,8.03,3.36,2.92-5.79,2.11-9.2-1.03-4.31-1.88-8.66-2.47-13.05-1.97-14.18-5.16-28.98-12.56-41.55-7.67-13.1-20.37-22.52-35.35-25.44-8.17-1.61-16.38-.4-24.59-.99-11.67-.85-21.45-7.27-32.3-10.32-1.57-.4-3.14-.85-4.71-1.21,3.32-.94,6.68-1.93,10.05-2.74,17.86-4.4,35.94-7.85,53.75-12.52,40.56-10.59,82.19-18.8,123.87-23.42,12.56-1.39,22.93.63,33.65,7.49,8.53,5.47,17.36,14.36,16.2,25.39-.9,8.97,1.48,17.81,4.98,26.02,4.98,11.62,16.96,15.61,26.83,21.8,1.66,1.03,3.23,2.24,4.89,3.32,2.51,1.62,2.2-4.62,2.2-5.7-.4-10.54,1.3-21.89-2.47-32.03-1.12-3.01-2.47-5.97-4.49-8.52-4.13-5.16-9.33-9.47-15.03-12.83-6.46-3.81-13.64-5.56-19.11-10.9-4.53-4.4-9.56-8.17-14.76-11.71-1.03-.72-2.11-1.39-3.19-2.02,2.6,1.52,7.45,1.88,10.41,2.83,4.89,1.57,9.87,3.01,14.67,4.8,15.07,5.61,28.58,14.58,41.54,24.05,4.94,3.59,9.6,7.54,14.04,11.75,1.7,1.62,4.53,3.63,5.61,5.7,2.87,5.52,2.11,12.02,1.62,17.99-.58,6.42-.76,12.74,0,19.11,1.57,13.73,6.59,26.43,14.18,37.87,5.88,8.93,12.25,17.41,17.77,26.65,1.03,1.75,4.04,9.51,6.6,5.34,6.19-10.05,11.17-22.79,13.59-34.37,2.24-10.63,1.88-21.76-.22-32.39-1.97-9.87-6.28-19.52-12.79-27.28-4.62-5.52-10.77-9.29-17.09-12.43-8.7-4.31-18.84-6.1-27.1-11.08-8.44-5.07-15.3-12.38-23.55-17.72-9.47-6.1-19.34-11.53-29.61-16.15-10.18-4.62-22.07-6.6-33.07-8.84,2.96.63,7.4-.81,10.45-1.03,21.53-1.75,43.25-2.51,64.83-.36,24.54,2.47,49.13,9.65,72.41,17.86,11.35,3.99,22.48,8.48,33.42,13.41,5.16,2.33,7.49,3.9,10.05,9.11,2.11,4.13,3.41,8.61,5.47,12.79,6.46,13.06,14.49,23.15,27.01,30.64,6.95,4.13,14.49,6.77,22.43,8.08,18.12,3.01,36.21,6.95,53.93,11.66,1.53.4,7.4,3.01,8.93,1.8,2.11-1.71-2.24-6.95-3.23-8.48-4.22-6.59-8.39-13.19-13.15-19.38-6.73-8.75-12.65-18.4-20.32-26.34-9.42-9.69-22.34-16.73-35.76-18.84-4.31-.67-8.57-1.21-12.92-1.39-8.7-.36-17.72-.09-26.47-1.84-8.48-1.75-16.73-5.2-24.9-8.12-14.04-5.02-27.82-10.05-41.95-14.81-1.3-.4-2.56-.81-3.86-1.21.04,0,.13-.04.18-.04,1.57-.54,3.14-1.12,4.71-1.66,4.67-1.53,10.45-2.96,15.34-3.41,3.14-.27,6.33-.18,9.47-.45,17.32-1.48,34.64-4.31,50.16-12.92,14.63-8.08,26.43-20.1,37.01-32.84.67-.81,1.3-1.61,1.97-2.38,7.76-9.56,15.48-19.02,23.55-28.31.45-.54.9-1.12.99-1.8.09-.94-1.3-2.11-2.06-2.42-1.12-.49-3.45-.04-4.62.04-4.22.18-8.3,1.08-12.47,1.79-16.15,2.69-33.38,4.44-47.87,12.7-9.96,5.7-19.43,13.01-27.46,21.45-8.79,9.24-15.21,20.23-23.02,30.33-2.96,3.86-5.74,8.79-10.14,11.22-14.36,7.81-30.73,2.42-45.94,1.26-13.1-1.03-26.16-2.06-39.26-3.05-18.49-1.48-37.33.85-55.63,2.29-3.14.27-6.33.49-9.47.76-4.08.31-8.12.67-12.16,1.08-21.13,1.88-42.49,4.71-63.4,9.42-6.95,1.61-13.95,3.19-20.91,4.8-6.15,1.39-12.25,2.78-18.39,4.26,2.56-1.3,5.11-2.65,7.63-3.95,2.87-1.48,5.74-2.96,8.57-4.49,5.79-3.19,11.62-6.37,17.41-9.6,11.67-6.55,23.55-12.65,35.31-18.98,2.87-1.53,5.7-3.14,8.57-4.62,10.18-5.38,21.04-12.11,32.66-13.55,7.13-.85,17.14-2.38,23.55,1.66,4.35,2.78,7.13,7.54,11.17,10.68,4.85,3.77,10.36,6.55,15.97,8.93,12.29,5.25,24.23,7.45,37.55,6.82,5.79-.31,11.58-.67,17.36-.76,2.56-.04,17.32,2.33,17.95-.9.09-.63-.13-1.26-.36-1.84-1.34-3.19-3.23-6.1-5.25-8.93-14.31-20.37-39.44-37.96-65.5-32.75-7.9,1.57-16.33,3.77-23.42,7.63-3.05,1.71-5.79,3.19-9.24,3.55-3.81.4-7.63.36-11.4.72-2.65.27-5.43.49-7.99,1.21-1.26.31-5.25.67-5.97,1.39,2.06-2.06,4.58-3.86,7.31-4.98,2.47-1.08,5.34-1.08,7.99-1.44,11.89-1.62,23.73-6.15,32.71-14.27,11.8-10.63,16.33-25.75,20.28-40.56,1.93-7.4,3.77-14.85,5.74-22.3.27-1.03,3.77-6.86-.76-4.08ZM613.71,120.4c6.77-1.34,13.46-1.43,20.32-1.43.85,0,.9-1.17.09-1.3-6.73-1.35-14.13-.85-20.86.45-3.54.67-7.09,1.57-10.54,2.78.27-.63.67-1.26,1.21-1.97,1.75-2.11,3.95-4.44,4.4-4.85,3.05-2.87,6.59-5.16,10.5-6.64,7.67-2.87,15.97-2.02,23.73.18,3.99,1.12,7.94,2.6,11.8,4.13,1.35.54,7.67,4.67,8.79,4.17-3.41,1.48-6.28,3.63-9.51,5.52-4.22,2.47-8.39,4.98-12.74,7.09-8.66,4.26-18.26,6.86-27.77,4.17-3.14-.9-6.19-2.47-8.39-4.89-1.35-1.48-2.2-2.78-2.42-4.08,3.68-1.39,7.45-2.56,11.4-3.32ZM584.1,106.31c-.45-.58-.94-1.12-1.39-1.66-9.6-10.9-16.02-24.99-17.09-39.62-.63-17.54,1.97-35.04,3.54-52.49.09-1.3.22-2.6.36-3.86,0-.27.05-.54.05-.81,1.17,1.12,2.29,2.2,3.36,3.32,8.97,9.6,17.95,19.65,25.84,30.1,1.12,1.53,2.2,3.1,3.23,4.71,11.62,18.08,3.59,42.13-11.67,55.72,1.52-8.66,1.97-17.41,1.35-26.25-.9-12.16-3.59-24.45-8.97-35.44-.49-1.03-1.93-.27-1.53.76,4.13,11.22,7.09,22.84,7.54,34.86.36,10.01-.72,20.05-3.14,29.75-.49.31-.94.67-1.43.99,0-.04-.05-.04-.05-.09ZM522.81,145.08c-10.09-1.79-18.26-9.51-21-19.29-4.4-15.61-.72-31.81-1.03-47.65,0-.58,0-1.17-.04-1.75.85.58,1.7,1.21,2.56,1.79,10.41,7.58,20.91,15.79,28.35,26.47,4.04,5.7,7.09,12.34,8.21,19.25.99,6.37-.36,11.67-2.74,17.18-.45-1.97-.94-3.9-1.52-5.83-1.48-4.89-3.36-9.65-5.56-14.27-2.24-4.58-4.85-8.97-7.81-13.15-2.78-3.95-5.92-8.75-10.09-11.31-.76-.45-1.84.31-1.35,1.17,2.29,4.17,5.97,7.63,8.7,11.57,2.87,4.13,5.43,8.57,7.67,13.1,2.15,4.49,3.99,9.06,5.47,13.82.72,2.38,1.35,4.8,1.93,7.22.09.31.14.63.18.99-4.04.49-7.72,1.39-11.93.67ZM328.1,122.73c3.95-1.03,7.81-3.18,11.26-4.89,5.2-2.6,10.23-5.56,14.98-8.93,9.42-6.64,17.68-14.72,24.77-23.82,4.04-5.2,7.58-10.77,9.83-17,.58-1.62-1.61-2.6-2.6-1.35-4.4,5.7-8.35,11.76-12.92,17.32-4.4,5.43-9.38,10.36-14.67,14.94-5.29,4.62-10.95,8.75-16.87,12.47-3.1,1.88-6.24,3.63-9.47,5.2-1.62.81-3.32,1.48-4.94,2.29-.09-1.44-.13-2.92-.13-4.17-.09-10.9,2.74-21.13,7.72-30.73,5.79-11.17,14.76-19.61,26.47-24.32,10.41-4.17,20.64-8.75,30.91-13.28,4.89-2.2,9.96-4.04,15.03-5.92.67-.27,1.35-.54,2.06-.85-.22.49-.4.94-.58,1.43-.72,1.66-1.43,3.32-2.11,4.98-4.26,10.27-7.85,20.82-12.2,31-5.2,12.2-13.46,23.51-24.59,31.09-11.35,7.63-25.26,12.88-38.81,14.72-.99.13-2.02.27-3.05.27-.04-.13-.04-.31-.09-.45ZM336.62,140.81c8.88-8.7,21.4-3.86,30.6,1.57,9.15,5.38,16.96,12.52,25.57,18.53.13.09.27.18.4.27-.76-.49-6.37,1.8-7.4,2.02-2.92.76-5.83,1.44-8.75,1.97-5.92,1.12-11.98,1.8-17.99,1.26-6.91-.63-13.77-3.36-18.8-8.17-2.02-1.93-3.54-4.13-4.85-6.5-.67-1.17-2.24-3.37-2.92-5.07,5.2.27,10.41.85,15.57,1.97,3.72.85,7.36,1.93,10.95,3.23,3.68,1.35,7.18,3.28,10.9,4.49,1.3.4,2.06-1.26,1.08-2.06-3.14-2.51-7.18-4.04-10.9-5.47-3.77-1.44-7.72-2.6-11.66-3.5-4.71-1.03-9.51-1.75-14.31-1.93.81-.9,1.62-1.75,2.51-2.6ZM121.22,316.91c-.81,1.62-1.52,3.27-2.29,4.89-1.62,3.23-3.36,6.42-5.29,9.47-3.72,5.92-7.9,11.58-12.52,16.82-4.58,5.3-9.56,10.23-14.98,14.63-5.61,4.53-11.62,8.48-17.36,12.88-1.3.99-.27,3.14,1.3,2.56,6.28-2.2,11.89-5.74,17.09-9.74,9.11-7.04,17.23-15.3,23.87-24.68,3.41-4.76,6.37-9.78,9.02-14.98,1.71-3.41,3.9-7.27,4.89-11.22.18.04.36.04.49.09-.04,1.03-.13,2.06-.27,3.05-1.93,13.5-7.22,27.46-14.89,38.72-7.58,11.17-18.93,19.34-31.14,24.5-10.23,4.31-20.77,7.9-31.09,12.11-1.66.67-3.32,1.39-4.98,2.06-.49.18-.94.4-1.44.58.31-.67.58-1.39.85-2.06,1.93-5.02,3.77-10.1,5.97-15.03,4.62-10.23,9.2-20.46,13.41-30.82,4.76-11.66,13.19-20.64,24.41-26.38,9.65-4.94,19.88-7.76,30.73-7.63,1.3.04,2.74.09,4.22.18ZM153.98,324.94c2.38,1.35,4.58,2.87,6.46,4.89,4.8,5.02,7.54,11.89,8.12,18.8.49,6.01-.18,12.07-1.3,17.99-.54,2.96-1.26,5.88-2.02,8.75-.27,1.03-2.56,6.64-2.06,7.4-.04-.13-.13-.27-.22-.36-6.01-8.7-13.15-16.51-18.48-25.66-5.38-9.24-10.14-21.8-1.44-30.64.85-.85,1.7-1.66,2.6-2.51.18,4.85.85,9.6,1.88,14.31.9,3.99,2.02,7.94,3.45,11.76,1.44,3.68,2.96,7.76,5.43,10.86.81,1.03,2.47.27,2.06-1.03-1.17-3.72-3.1-7.22-4.4-10.95-1.3-3.59-2.38-7.22-3.23-10.95-1.12-5.16-1.66-10.36-1.93-15.57,1.71.67,3.9,2.24,5.07,2.92ZM105.97,572.06c.54.49,1.08.99,1.66,1.39.04.05.04.09.09.09-.31.49-.67.94-.99,1.44-9.74,2.33-19.79,3.41-29.75,3.01-12.02-.49-23.64-3.46-34.86-7.67-1.03-.36-1.8,1.08-.76,1.57,10.99,5.38,23.29,8.12,35.44,9.06,8.79.67,17.59.27,26.2-1.26-13.59,15.21-37.69,23.19-55.77,11.44-1.57-1.03-3.14-2.06-4.67-3.23-10.45-7.94-20.46-16.96-30.01-25.93-1.12-1.08-2.2-2.2-3.28-3.36.22,0,.49-.04.76-.04,1.3-.13,2.6-.27,3.86-.36,17.45-1.48,34.95-4.04,52.54-3.37,14.63,1.12,28.67,7.63,39.53,17.23ZM129.03,594.18c2.42,2.2,3.99,5.29,4.89,8.39,2.65,9.56,0,19.16-4.26,27.77-2.15,4.4-4.66,8.52-7.13,12.7-1.93,3.23-4.08,6.1-5.56,9.56.49-1.12-3.63-7.49-4.13-8.84-1.52-3.86-3.01-7.81-4.13-11.84-2.15-7.72-3.01-16.02-.09-23.69,1.48-3.9,3.81-7.45,6.69-10.45.45-.49,2.74-2.65,4.89-4.4.67-.54,1.35-.94,1.97-1.21-1.21,3.41-2.15,7-2.87,10.54-1.3,6.73-1.84,14.09-.49,20.86.13.81,1.3.76,1.3-.13.05-6.86.13-13.5,1.48-20.28.81-3.95,1.97-7.72,3.41-11.4,1.3.27,2.6,1.08,4.04,2.42ZM125.4,529.3c-6.96-1.12-13.55-4.22-19.25-8.26-10.63-7.54-18.8-18.04-26.34-28.49-.63-.85-1.21-1.71-1.79-2.56.58.04,1.17.04,1.75.09,15.84.36,32.03-3.28,47.65,1.17,9.74,2.78,17.45,10.99,19.2,21.09.72,4.22-.22,7.9-.72,11.93-.36-.04-.67-.13-.99-.22-2.42-.54-4.85-1.21-7.22-1.93-4.71-1.48-9.33-3.32-13.77-5.52-4.53-2.24-8.97-4.85-13.1-7.72-3.9-2.78-7.36-6.46-11.53-8.75-.85-.49-1.62.58-1.17,1.35,2.56,4.17,7.31,7.31,11.26,10.14,4.17,2.96,8.52,5.61,13.15,7.85,4.58,2.24,9.33,4.08,14.22,5.61,1.93.58,3.86,1.12,5.83,1.57-5.52,2.33-10.86,3.68-17.18,2.65ZM78.2,873.64c-.18.36-.36.67-.54.99-1.35,2.06-2.74,4.08-4.17,6.06-2.92,3.86-6.15,7.49-9.56,10.9-7.09,7.04-15.12,12.7-23.55,17.99-.72.49-.09,1.7.72,1.35,9.06-4.04,17.27-10.18,24.5-17,3.68-3.45,7.09-7.22,10.27-11.17,1.48-1.8,2.87-3.63,4.17-5.52-.63,3.27-.99,6.55-1.84,9.87-1.21,4.85-3.32,9.47-5.97,13.73-5.12,8.17-12.43,15.39-21.22,19.61-7.63,3.72-16.15,5.97-24.41,8.03-6.64,1.66-13.28,2.69-19.7,5.16-.27.09-.49.18-.72.27,1.35-2.15,2.56-4.4,3.68-6.68,6.33-13.1,11.84-27.05,22.3-37.51,5.83-5.83,13.33-9.56,21.09-12.07,4.17-1.35,8.34-2.83,12.65-3.72,4.35-.85,8.17-1.03,12.29-.27ZM100.23,957.67c-1.08-5.97-2.74-11.85-3.95-17.81-1.17-5.7-2.2-11.4-3.05-17.14-.9-5.92-1.53-11.8-2.06-17.72-.18-2.29-.36-4.58-.49-6.86,19.07,10.09,24.72,37.82,23.87,57.61-.27,5.88-.81,11.71-.94,17.59-.09,3.05-.04,6.06.18,9.11.09.9-.09,5.83.76,6.37-8.66-5.52-16.69-12.2-23.33-20.01-7.27-8.57-12.47-20.06-13.5-31.23-.63-7.27.49-14.58,2.47-21.54.31-1.21,2.47-7.45,4.4-12.56.85-2.24,1.66-4.22,2.24-5.47.31,2.56.58,5.12.94,7.67.76,5.88,1.75,11.8,2.83,17.68,1.03,5.83,2.2,11.62,3.5,17.41,1.35,5.74,2.56,11.67,4.62,17.23.31.81,1.66.58,1.53-.31ZM75.73,1108.11c5.74-4.08,10.5-9.51,15.12-14.81,8.17-9.29,15.3-19.47,21.49-30.15,3.19-5.47,6.19-11.13,8.79-16.87,1.08-2.47,2.15-4.94,3.14-7.45v.09c-.31,3.5-.36,7.04-.85,10.54-2.51,16.47-8.08,34.55-18.84,47.6-11.44,13.91-25.57,25.53-39.35,36.74-3.9,3.19-7.49,6.73-10.86,10.45-1.03,1.17-2.38,2.42-3.9,2.06,1.97-10.72,3.45-21.71,5.92-32.35,2.51-10.77,6.24-21.36,12.29-30.69,6.95-10.68,15.84-19.92,25.62-28,4.76-3.95,9.74-7.49,14.76-10.99,4.53-3.19,8.52-6.95,12.79-10.45.13-.13.27-.22.4-.36-2.38,5.29-4.58,10.72-7.13,15.93-3.41,7.04-7.27,13.82-11.49,20.41-4.26,6.64-8.88,13.01-13.86,19.11-4.93,6.06-10.54,11.53-15.34,17.68-.67.85.36,2.11,1.3,1.48ZM169.77,1079.17c12.2,5.07,23.42,13.32,31.72,23.69,8.52,10.59,13.01,24.09,15.25,37.24,2.65,15.84,8.79,30.82,12.16,46.53-20.86-13.55-45.67-26.96-57.34-50.03-1.3-2.51-2.42-5.07-3.32-7.76-2.74-8.21-3.36-16.82-3.77-25.44-.31-5.97-1.39-12.16-1.8-18.22.85,2.6,1.75,5.2,2.65,7.81,2.47,6.82,5.38,13.55,8.52,20.05,3.14,6.64,6.51,13.15,10.09,19.56,1.71,3.05,3.54,6.01,5.38,8.97,1.88,2.96,3.68,6.37,6.15,8.84.85.81,2.15-.22,1.84-1.26-1.08-3.32-3.32-6.55-4.93-9.65-1.66-3.1-3.19-6.28-4.8-9.38-3.32-6.42-6.37-12.92-9.24-19.52-2.83-6.55-5.52-13.15-8.21-19.74-1.35-3.28-2.6-6.51-3.86-9.78-.36-1.03-.72-2.11-1.08-3.19,1.57.18,3.28.72,4.58,1.26ZM212.8,978.04c7.76.27,15.7,1.66,22.93,4.04,11.93,3.9,21.63,11.17,31.94,17.99,3.01,2.02,5.92,4.13,8.97,6.06,2.78,1.7,5.79,2.6,7.63,5.38-7.54,2.69-14.67,6.55-22.57,8.84-8.03,2.33-16.38,3.63-24.72,3.14-12.25-.67-25.35-2.87-34.86-11.22-8.57-7.49-16.42-18.22-18.75-29.65,2.2,1.97,4.44,3.86,6.77,5.61,5.56,4.22,11.35,7.81,17.77,10.72,12.34,5.56,25.21,11.76,38.99,12.47.76,0,.99-1.21.27-1.48-6.37-2.15-12.97-3.68-19.25-6.24-6.06-2.42-12.29-5.02-17.81-8.48-5.56-3.45-10.99-7.36-16.2-11.35-2.47-1.93-4.84-3.9-7.22-5.92.67.18,1.35.36,2.02.49,7.94,1.3,16.11-.72,24.09-.4ZM195.66,916.94c4.58,3.19,7.45,7.99,10.09,12.74,2.15,3.86,4.35,9.78,7.67,12.65-12.43-1.66-26.51,2.06-37.6-5.52-8.34-5.74-13.32-14.18-17.14-23.2-.09-.22-.18-.45-.27-.67.09.09.22.18.31.27,3.1,2.38,6.24,4.62,9.47,6.77,3.28,2.15,6.55,4.26,9.92,6.24,3.32,1.93,6.68,4.04,10.27,5.38,1.48.58,2.38-1.3,1.08-2.15-3.23-2.11-6.77-3.81-10.05-5.83-3.32-1.97-6.51-4.13-9.65-6.37-3.1-2.24-6.15-4.62-9.11-7.04,11.71-2.29,25.35,0,35,6.73ZM205.08,703.96c5.21.54,10.41,1.44,15.3,3.36,8.93,3.5,17.05,8.97,23.82,15.75,7.4,8.21,11.98,19.52,16.47,29.57,3.77,8.57,6.37,17.77,10.63,26.07v.05c-.27-.09-.54-.18-.85-.27-1.62-.49-3.28-1.03-4.93-1.53-11.85-3.45-24.5-3.63-36.39-7.36-3.1-1.03-6.06-2.24-9.02-3.59-8.79-4.04-16.96-9.78-22.57-17.86-3.28-4.71-5.25-9.92-6.42-15.34-1.57-7.45-1.08-14.76-.67-22.12.67,1.21,1.35,2.42,2.02,3.59,3.5,6.01,7.63,11.62,12.29,16.82,4.67,5.2,9.83,9.92,15.43,14.04,5.29,3.9,11.49,8.35,17.95,9.87.72.18,1.3-.85.67-1.35-2.56-1.88-5.43-3.36-8.16-4.98-2.96-1.75-5.83-3.68-8.57-5.74-5.34-3.95-10.32-8.48-14.8-13.46-4.49-5.03-8.52-10.54-11.93-16.38-1.75-3.01-3.19-6.15-4.62-9.24.04-.4.04-.76.04-1.12,4.58-.36,9.74.76,14.31,1.21ZM308.34,564.35c7.88,8.84,13.06,20.1,14.43,31.87,1.35,11.6-.89,23.21-.24,34.82.29,4.04-.08,9.23,1.27,13.02-9.42-4.72-18.89-10.02-27.22-16.51-10.68-8.33-24.5-18.65-28.81-31.95-4.67-14.39.55-30.16,7.1-42.92.55-1.07,1.14-2.12,1.72-3.18.33,1.51.64,3.02,1,4.52,1.47,6.23,3.2,12.36,5.26,18.42,2.1,6.18,4.38,12.3,6.85,18.35,2.29,5.6,4.51,11.78,8.11,16.69.38.52,1.07.09.95-.48-1.35-6.16-4.25-12.11-6.36-18.05-2.1-5.89-4.02-11.84-5.75-17.85-1.73-6-3.4-12.04-4.98-18.08-.57-2.2-1.09-4.41-1.62-6.62,10.81,3.31,20.76,9.51,28.28,17.95ZM312.59,499.93c8.14,4.88,14.42,12.57,21.5,18.77,2.72,2.38,5.42,4.95,8.28,7.28,2.01,1.64,4.09,3.16,6.3,4.42-.48.12-.97.25-1.45.37-5.58,1.32-11.32,1.97-16.96,3.01-11.96,2.2-23.74,4.01-35.03-1.77-5.48-2.8-10.11-7.15-13.18-12.48-1.66-2.88-2.47-5.79-3.28-8.74.44.4.87.81,1.32,1.2,3.43,2.95,7.15,5.53,11.1,7.74,7.62,4.25,16.96,8,25.86,7.19.57-.05.83-.94.23-1.17-4.11-1.54-8.36-2.63-12.48-4.14-3.98-1.46-7.88-3.14-11.59-5.2-3.85-2.14-7.54-4.63-10.96-7.41-1.64-1.34-3.23-2.75-4.74-4.24,0,0-.02-.02-.03-.02,1.91-1.13,3.74-2.41,5.65-3.46,8.86-4.89,20.41-6.77,29.47-1.33ZM265.62,325.68c10.36,1.62,20.25,7.27,27.16,15.11,9.77,11.1,17.06,25.11,24.84,37.65.3.48.59.96.88,1.44-1.63-.28-3.26-.56-4.88-.84-13.83-2.41-27.81-4.23-41.16-8.77-13.56-4.6-25.61-14.83-29.35-29.07-.18-.69-.72-2.79-1.17-5.02-.17-.82-.32-1.66-.44-2.46,5.4,5.74,11.38,10.99,17.78,15.48,4.77,3.35,9.76,6.33,14.97,8.94,2.51,1.26,5.05,2.45,7.61,3.58,2.36,1.04,5.18,2.7,7.77,2.85,1.25.07,1.55-1.45.71-2.15-2.09-1.72-5.37-2.54-7.81-3.74-2.39-1.17-4.72-2.44-7.01-3.79-4.8-2.82-9.45-5.91-13.91-9.25-6.95-5.21-13.35-10.93-19.27-17.21,2.21-1.63,5.71-2.22,8.29-2.98,5.13-1.5,9.93-.6,15,.19ZM261.86,214.02c2.22.49,4.31,1.06,5,1.25,14.18,3.98,24.21,16.18,28.59,29.82,4.32,13.42,5.92,27.43,8.1,41.29.26,1.63.5,3.26.76,4.89-.48-.3-.95-.6-1.43-.9-12.41-7.98-26.31-15.49-37.24-25.44-7.73-7.03-13.22-17.01-14.68-27.4-.71-5.08-1.54-9.9.05-15,.8-2.57,1.44-6.06,3.11-8.24,6.18,6.02,11.8,12.51,16.9,19.54,3.27,4.51,6.28,9.21,9.02,14.05,1.31,2.32,2.55,4.67,3.68,7.07,1.15,2.46,1.93,5.76,3.61,7.87.68.86,2.21.58,2.16-.67-.11-2.6-1.72-5.45-2.73-7.82-1.09-2.58-2.25-5.14-3.46-7.67-2.53-5.25-5.43-10.29-8.7-15.11-4.39-6.47-9.54-12.54-15.2-18.03.79.13,1.63.29,2.45.48ZM491.36,319.92c.85-8.88-2.87-18.26-7.09-25.89-2.2-3.95-4.75-7.67-7.72-11.13-.36-.45-.76-.9-1.17-1.35,2.92.85,5.83,1.66,8.7,3.32,5.34,3.1,9.65,7.76,12.43,13.23,5.74,11.31,3.9,23.11,1.66,35.04-1.08,5.65-1.75,11.4-3.1,16.96-.09.49-.22.99-.36,1.44-1.26-2.2-2.74-4.31-4.4-6.28-2.33-2.87-4.89-5.61-7.22-8.34-6.19-7.09-13.86-13.42-18.71-21.54-5.38-9.11-3.5-20.64,1.44-29.48,1.08-1.93,2.33-3.68,3.5-5.61,1.48,1.52,2.87,3.1,4.22,4.76,2.78,3.41,5.25,7.13,7.36,10.99,2.06,3.72,3.72,7.63,5.21,11.62,1.48,4.13,2.56,8.34,4.08,12.47.22.58,1.12.36,1.17-.22ZM560.23,270.88c13.28,4.35,23.55,18.22,31.85,28.94,6.46,8.34,11.71,17.81,16.42,27.28-3.81-1.35-8.97-1.03-13.01-1.3-11.62-.72-23.24,1.48-34.86.09-11.75-1.39-22.97-6.64-31.81-14.54-8.39-7.54-14.58-17.5-17.86-28.35,2.24.54,4.44,1.08,6.64,1.66,6.06,1.57,12.07,3.28,18.08,5.02,5.97,1.75,11.94,3.72,17.81,5.83,5.92,2.11,11.89,5.03,18.04,6.42.54.13.99-.58.49-.94-4.94-3.63-11.08-5.88-16.69-8.16-6.01-2.51-12.16-4.8-18.3-6.95-6.06-2.06-12.2-3.81-18.39-5.29-1.53-.36-3.01-.67-4.53-1.03,1.08-.58,2.11-1.17,3.19-1.71,12.79-6.5,28.58-11.66,42.94-6.95ZM743.1,190.39c5.43,1.17,10.63,3.18,15.34,6.46,8.03,5.61,13.77,13.82,17.81,22.61,1.35,2.96,2.47,5.97,3.54,9.02,3.68,11.93,3.77,24.54,7.22,36.43.49,1.66.99,3.32,1.53,4.98.04.27.13.54.22.81h-.04c-8.26-4.26-17.45-6.91-26.02-10.72-10.05-4.49-21.31-9.15-29.48-16.6-6.78-6.77-12.2-14.9-15.66-23.82-1.93-4.94-2.83-10.1-3.32-15.34-.49-4.58-1.57-9.74-1.17-14.31h1.08c3.14,1.39,6.24,2.87,9.24,4.62,5.83,3.45,11.31,7.49,16.33,12.02,4.98,4.49,9.47,9.47,13.46,14.8,2.02,2.78,3.9,5.65,5.65,8.62,1.61,2.74,3.1,5.61,4.98,8.17.45.63,1.48.09,1.35-.63-1.53-6.51-5.92-12.7-9.83-18.04-4.08-5.61-8.79-10.77-13.95-15.43-5.2-4.71-10.81-8.84-16.82-12.38-1.17-.67-2.33-1.35-3.59-2.02,7.4-.4,14.67-.85,22.12.76ZM924.04,158.58c9.02,3.86,17.45,8.84,23.15,17.23,7.54,11.08,3.77,25.17,5.38,37.6-2.87-3.32-8.79-5.52-12.61-7.67-4.75-2.69-9.56-5.61-12.74-10.14-6.68-9.69-8.93-23.38-6.59-35.04,2.42,2.96,4.75,6.01,7,9.11,2.24,3.14,4.35,6.37,6.37,9.65,1.97,3.32,3.68,6.86,5.79,10.09.81,1.3,2.74.45,2.15-1.03-1.35-3.59-3.45-7-5.38-10.32-1.93-3.37-3.99-6.68-6.15-9.92-2.15-3.23-4.4-6.42-6.73-9.51-.09-.09-.22-.22-.31-.31.22.09.45.18.67.27ZM1022.52,202.37c8.3,9.56,10.5,22.66,11.13,34.86.45,8.39-.9,16.73-3.23,24.77-2.29,7.85-6.24,14.99-8.93,22.52-2.78-1.84-3.68-4.89-5.38-7.63-1.88-3.1-3.99-6.01-5.97-9.02-6.82-10.36-14.04-20.1-17.9-31.99-2.33-7.27-3.72-15.17-3.95-22.93-.27-8.03,1.75-16.2.49-24.14-.13-.67-.31-1.34-.49-1.97,2.02,2.33,3.99,4.76,5.88,7.22,3.99,5.2,7.85,10.68,11.31,16.2,3.45,5.56,6.01,11.8,8.43,17.86,2.51,6.28,3.99,12.88,6.19,19.29.22.72,1.48.45,1.44-.27-.67-13.77-6.82-26.69-12.34-39.08-2.87-6.37-6.42-12.2-10.63-17.77-1.75-2.38-3.63-4.62-5.56-6.77,11.4,2.33,22.07,10.27,29.52,18.84ZM1113.82,165.04c8.57.45,17.23,1.08,25.39,3.86,2.69.9,5.25,2.06,7.76,3.37,23.02,11.76,36.34,36.61,49.85,57.52-15.7-3.41-30.69-9.65-46.52-12.34-13.15-2.29-26.61-6.82-37.19-15.39-10.27-8.35-18.53-19.56-23.55-31.81-.54-1.3-1.03-3.01-1.26-4.58,1.08.36,2.15.72,3.19,1.12,3.28,1.26,6.55,2.51,9.78,3.86,6.6,2.69,13.19,5.43,19.7,8.3,6.6,2.87,13.1,5.97,19.52,9.29,3.1,1.61,6.24,3.18,9.33,4.85,3.14,1.61,6.33,3.86,9.69,4.98.99.31,2.06-.99,1.21-1.84-2.42-2.47-5.88-4.31-8.79-6.15-2.96-1.88-5.92-3.72-8.97-5.43-6.37-3.63-12.88-7-19.52-10.18-6.5-3.19-13.19-6.1-20.01-8.57-2.6-.94-5.2-1.84-7.81-2.69,6.06.4,12.25,1.53,18.21,1.84ZM1049.39,124.62c2.51-.99,4.98-2.02,7.45-3.14,5.79-2.56,11.4-5.52,16.91-8.7,10.68-6.15,20.91-13.24,30.24-21.36,5.29-4.62,10.72-9.33,14.81-15.07.67-.94-.58-1.97-1.44-1.3-6.15,4.76-11.66,10.36-17.72,15.25-6.15,4.94-12.52,9.56-19.2,13.82-6.55,4.17-13.41,7.99-20.41,11.4-5.25,2.56-10.63,4.71-15.93,7.09.09-.13.18-.31.31-.45,3.54-4.22,7.31-8.17,10.5-12.7,3.5-5.07,7.09-10.01,11.04-14.76,8.12-9.74,17.41-18.57,28.09-25.48,9.33-6.06,19.96-9.74,30.73-12.2,10.68-2.42,21.62-3.86,32.39-5.79.36,1.48-.94,2.83-2.06,3.86-3.77,3.36-7.31,6.95-10.5,10.81-11.31,13.77-22.97,27.86-36.92,39.26-13.06,10.68-31.14,16.24-47.65,18.66-3.5.49-7.04.49-10.54.81h-.09ZM916.32,87.6c-2.51-.36-5.07-.63-7.63-.94,1.26-.58,3.23-1.39,5.52-2.24,5.07-1.88,11.35-4.04,12.52-4.35,7-1.93,14.27-3.05,21.54-2.38,11.22,1.08,22.7,6.28,31.18,13.6,7.85,6.68,14.49,14.76,19.96,23.42-.54-.85-5.47-.67-6.42-.76-3.01-.22-6.01-.31-9.06-.22-5.88.09-11.71.63-17.59.9-19.79.76-47.51-5.03-57.52-24.09,2.29.13,4.53.31,6.82.54,5.92.54,11.84,1.17,17.72,2.11,5.74.85,11.49,1.88,17.14,3.09,5.97,1.21,11.84,2.92,17.81,3.99.9.18,1.12-1.21.31-1.48-5.56-2.06-11.48-3.32-17.23-4.67-5.74-1.35-11.58-2.56-17.41-3.63-5.88-1.03-11.76-2.06-17.68-2.87ZM944.59,6.85c-2.47,6.42-3.5,13.06-5.2,19.74-2.11,8.21-4.4,16.69-8.12,24.36-4.26,8.75-11.49,16.06-19.7,21.13-4.26,2.6-8.88,4.71-13.77,5.92-3.28.85-6.6,1.17-9.87,1.8,1.93-1.3,3.77-2.69,5.56-4.13,3.95-3.19,7.72-6.59,11.22-10.27,6.82-7.18,13.01-15.39,17.09-24.45.36-.76-.9-1.39-1.35-.67-5.34,8.39-10.99,16.42-18.08,23.46-3.45,3.41-7.09,6.64-10.95,9.51-1.97,1.48-3.99,2.87-6.06,4.17-.31.18-.63.36-.99.54-.76-4.13-.58-7.94.31-12.29.9-4.31,2.38-8.48,3.77-12.65,2.51-7.76,6.28-15.25,12.11-21.04,10.5-10.41,24.5-15.84,37.6-22.16,2.29-1.08,4.53-2.33,6.73-3.68-.09.27-.22.49-.31.72Z"/>
</svg>