<?xml version="1.0" encoding="UTF-8"?>
<svg id="Layer_2" data-name="Layer 2" xmlns="http://www.w3.org/2000/svg" viewBox="0 0 772.09 1047.43">
  <defs>
    <style>
      .cls-1 {
        fill: #101010;
      }
    </style>
  </defs>
  <g>
    <g>
      <path class="cls-1" d="M226.63,1044.38c-23.58-68.99-34.34-142.02-32.27-214.88,2.06-72.8,16.87-145.24,44.06-212.82,28.22-70.11,73.22-131.1,106.61-198.55,30.85-62.31,46.73-130.33,45.25-199.95-1.44-67.83-18.71-135.43-51.18-195.08-4.05-7.44-8.34-14.73-12.85-21.91-.92-1.47-2.67-1.54-3.93-.51-24.96,20.43-33.89,53.8-30.87,84.99,3.49,35.95,22.82,67.02,46.55,93.35,14.78,16.39,31.24,31.15,47.7,45.82,2.4,2.13,5.94-1.39,3.54-3.54-27.29-24.32-55.29-49.29-74.11-81.06-16.45-27.78-24.14-61.06-16.05-92.86,4.3-16.91,13.22-32.06,26.78-43.16-1.31-.17-2.62-.34-3.93-.51,36.72,58.52,57.93,126.13,62.49,195.01,4.62,69.79-7.96,139.87-37.27,203.4-31.47,68.21-77.14,128.77-107.1,197.77-28.46,65.53-45.11,135.98-49.67,207.25-4.58,71.6,3.09,144.1,23.29,212.98,2.52,8.59,5.24,17.11,8.14,25.57,1.03,3.03,5.87,1.73,4.82-1.33h0Z"/>
      <path class="cls-1" d="M320.17,6.45c13.41,11.34,26.98,22.52,40.18,34.11,11.3,9.93,22.35,20.41,31.39,32.5,9.04,12.08,15.84,25.69,18.51,40.62,2.97,16.62.68,33.71-3.88,49.82-4.76,16.82-11.93,32.83-19.48,48.56-.92,1.93-1.86,3.85-2.79,5.77-.59,1.21-.33,2.7.9,3.42,1.1.64,2.83.32,3.42-.9,7.81-16.07,15.45-32.33,20.91-49.37,5.26-16.41,8.49-33.84,6.77-51.11-1.59-15.97-7.47-30.94-16.41-44.21-8.65-12.84-19.56-23.98-30.99-34.34-12.83-11.62-26.26-22.58-39.48-33.74l-5.52-4.66c-1.03-.87-2.52-1.01-3.54,0-.89.89-1.04,2.66,0,3.54h0Z"/>
      <path class="cls-1" d="M361.79,404.55c1.12-6.54,4.05-12.16,8.38-17.14,4.57-5.25,9.73-10,14.48-15.08,10.66-11.38,22.35-21.91,35.42-30.46,13.36-8.74,28.08-15.31,43.77-18.46,7.81-1.57,15.79-2.22,23.75-1.86,8.02.37,15.85,1.96,23.51,4.32,15.28,4.7,29.81,11.95,45.62,14.84,2.01.37,4.04.66,6.07.89-.22-1.64-.44-3.27-.66-4.91-13.94,3.85-21.89,16.76-31.17,26.77-4.84,5.22-10.36,9.55-16.68,12.84-6.32,3.3-13.17,5.47-20.14,6.93-14.67,3.07-29.84,2.97-44.75,2.37-15.16-.61-30.36-1.9-45.54-.81-14.67,1.05-29.62,4.43-41.7,13.22-1.57,1.14-3.09,2.35-4.55,3.62-1.02.89-.91,2.63,0,3.54,1.01,1.01,2.52.89,3.54,0,10.9-9.51,25.07-13.69,39.23-15.08,15.02-1.48,30.14-.36,45.18.35,15.02.7,30.16.95,45.05-1.48,14.39-2.34,28.45-7.63,39.4-17.5,5.18-4.67,9.44-10.23,14.01-15.47,4.33-4.97,9.01-9.87,15-12.82,1.43-.7,2.91-1.23,4.44-1.65,1.19-.33,1.97-1.53,1.79-2.74-.2-1.32-1.18-2.02-2.46-2.17-16.19-1.85-31.1-9.14-46.39-14.26-7.81-2.62-15.76-4.61-23.97-5.42-8.3-.82-16.66-.45-24.9.8-16.26,2.47-31.81,8.69-45.82,17.22-13.63,8.3-25.91,18.73-37.03,30.15-2.74,2.81-5.36,5.74-8.11,8.55-2.46,2.52-4.99,4.96-7.42,7.51-4.66,4.89-8.72,10.28-10.87,16.76-.58,1.74-1,3.53-1.31,5.34-.23,1.33.35,2.69,1.75,3.08,1.2.33,2.85-.41,3.08-1.75h0Z"/>
      <path class="cls-1" d="M561.87,335.07c-14.42-10.96-30.34-19.83-47.21-26.44-8.43-3.31-17.1-6.02-25.91-8.1-9.72-2.29-19.72-3.82-29.73-3.68-16.96.24-33.28,5.94-47.21,15.52-13.94,9.59-24.91,22.45-33.72,36.79-9.11,14.82-15.66,31.15-19.69,48.06-.52,2.16-.99,4.34-1.43,6.52-.27,1.32.38,2.7,1.75,3.08,1.23.34,2.81-.42,3.08-1.75,3.36-16.62,8.95-32.73,17.21-47.57,7.96-14.29,17.99-27.52,30.95-37.62,12.25-9.54,27.05-16.24,42.6-17.69,18.63-1.73,37.61,2.91,55.06,9.13,16.5,5.88,32.18,14.07,46.46,24.2,1.78,1.26,3.53,2.56,5.27,3.87,1.08.82,2.8.17,3.42-.9.75-1.28.18-2.6-.9-3.42h0Z"/>
      <path class="cls-1" d="M265.96,498.78c.76-26.23,1.05-52.7-2.79-78.73-3.49-23.67-11.7-46.7-26.74-65.56-8.15-10.22-18.35-18.88-30.1-24.67-1.01-.5-2.21-.43-3.03.39-.73.73-1.03,2.14-.39,3.03,6.51,9.02,6.68,20.14,5.53,30.79-1.24,11.57-4.03,23.02-3.83,34.71.43,25.58,12.91,49.01,28.43,68.64,9,11.39,19.15,21.79,29.27,32.17,2.25,2.31,5.79-1.23,3.54-3.54-17.67-18.11-35.75-36.64-46.78-59.74-5.24-10.97-8.8-22.94-9.38-35.13-.56-11.69,2.04-23.16,3.47-34.7,1.51-12.19,1.56-25.33-5.94-35.73l-3.42,3.42c20.64,10.17,35.35,28.97,44.37,49.77,9.8,22.62,12.22,47.65,12.98,72.04.45,14.27.22,28.56-.2,42.83-.09,3.22,4.91,3.22,5,0h0Z"/>
      <path class="cls-1" d="M204.12,333.84c14.94,5.43,30.36,9.94,44.61,17.09,13.8,6.92,27.51,15.11,35.52,28.79,7.52,12.84,10.18,28.26,10.63,42.97.41,13.37-1.29,26.84-5.81,39.46-4.36,12.17-11.58,23.29-21.56,31.58-1.22,1.02-2.49,1.97-3.78,2.89-1.1.78-1.62,2.18-.9,3.42.64,1.09,2.31,1.68,3.42.9,11.29-7.98,19.92-19.07,25.37-31.75,5.59-12.98,8.14-27.09,8.31-41.2.18-15.22-2.03-31.04-8.36-44.98-3.38-7.44-8.19-14.14-14.24-19.64-6.02-5.47-12.96-9.82-20.11-13.67-14.69-7.91-30.43-13.17-46.13-18.68-1.89-.66-3.77-1.33-5.65-2.02-1.27-.46-2.74.52-3.08,1.75-.38,1.39.47,2.61,1.75,3.08h0Z"/>
      <path class="cls-1" d="M236.79,711.69c2.76-14.67,8.63-28.47,16.95-40.84,8.27-12.31,18.76-23.02,30.15-32.46,12.29-10.18,25.76-19.07,39.77-26.7,15.79-8.6,32.44-15.51,49.4-21.46,17.18-6.03,34.67-11.11,52.19-16.07,2.17-.61,4.33-1.23,6.5-1.84-.94-1.22-1.88-2.45-2.82-3.67-8.38,14.52-16.9,29.03-27.01,42.44-9.73,12.91-21.17,24.84-34.94,33.46-15.63,9.78-33.56,14.11-51.35,18.13-16.57,3.74-33.21,7.7-48.89,14.38-13.24,5.64-26.02,14.22-32.13,27.74-.82,1.81-1.53,3.66-2.12,5.55-.96,3.08,3.86,4.39,4.82,1.33,2.09-6.65,5.86-12.53,10.91-17.32,5.16-4.9,11.38-8.56,17.81-11.54,6.77-3.14,13.88-5.52,21.01-7.7,8.65-2.65,17.41-4.79,26.23-6.78,18.08-4.08,36.48-8.09,52.74-17.37,14.27-8.14,26.28-19.71,36.48-32.49,10.48-13.15,19.27-27.51,27.71-42.02,1.02-1.76,2.04-3.52,3.06-5.28,1.08-1.87-.71-4.27-2.82-3.67-17.73,5-35.48,10.02-52.94,15.92-17.43,5.89-34.62,12.67-51,21.11-14.74,7.6-28.81,16.62-41.85,26.86-12.04,9.46-23.09,20.21-32.16,32.58-8.95,12.2-15.73,26.05-19.3,40.78-.45,1.85-.85,3.72-1.2,5.6-.25,1.33.37,2.7,1.75,3.08,1.22.34,2.82-.41,3.08-1.75h0Z"/>
      <path class="cls-1" d="M430.81,566.69c-20.86-1.97-41.78-4.4-62.77-3.63-10.35.38-20.72,1.55-30.79,4.01-9.1,2.23-17.9,5.62-26.21,9.94-15.23,7.91-28.74,19.04-40,31.96-11.53,13.22-20.9,28.27-28.06,44.27-3.6,8.04-6.69,16.31-9.2,24.75-2.68,9-5.58,18.9-3.52,28.32.51,2.31,1.39,4.54,2.57,6.58,1.61,2.79,5.93.27,4.32-2.52-4.67-8.1-2.11-18.15.18-26.58,2.23-8.22,5-16.3,8.28-24.15,6.48-15.51,15.08-30.3,25.74-43.32,10.58-12.92,23.2-24.2,37.72-32.53,7.4-4.25,15.24-7.73,23.4-10.22,9.61-2.92,19.56-4.5,29.57-5.19,20.46-1.41,40.97.63,61.33,2.6,2.48.24,4.96.48,7.45.72,1.35.13,2.5-1.24,2.5-2.5,0-1.46-1.15-2.37-2.5-2.5h0Z"/>
      <path class="cls-1" d="M191.12,711.17c-4.76-14.87-11.28-29.2-19.54-42.46-8.21-13.19-18.14-25.39-29.64-35.85-11.67-10.61-24.95-19.49-39.44-25.76-15.1-6.53-31.27-10.44-47.71-11.29-16.12-.83-32.51,1.36-47.68,6.94-1.99.73-3.96,1.53-5.91,2.37-1.58.67-1.46,2.87-.51,3.93,18.64,20.84,37.51,41.77,60.05,58.53,11.59,8.62,24.07,15.73,37.39,21.33,14.03,5.9,28.64,10.22,43.23,14.45,15.09,4.37,30.31,8.28,45.41,12.64,3.1.89,4.42-3.93,1.33-4.82-13.46-3.89-27.03-7.39-40.5-11.23-14.31-4.08-28.66-8.2-42.55-13.6-13.34-5.19-25.96-11.86-37.67-20.1-11.2-7.89-21.5-17-31.26-26.6-11.1-10.93-21.52-22.52-31.9-34.13-.17,1.31-.34,2.62-.51,3.93,14.34-6.12,30-8.92,45.55-8.79,15.77.13,31.45,3.26,46.16,8.92,14.33,5.52,27.64,13.65,39.31,23.61,11.41,9.73,21.35,21.13,29.65,33.61,8.33,12.54,15.08,26.14,20.08,40.34.63,1.78,1.23,3.57,1.8,5.37.98,3.05,5.81,1.75,4.82-1.33h0Z"/>
      <path class="cls-1" d="M74.88,601.71c25.42-9.8,54.9-10.68,79.02,3.19,10.32,5.93,19.3,14.29,25.39,24.57,6.66,11.25,9.58,24.23,10.31,37.18.87,15.23-.92,30.47-2.86,45.56-.17,1.34,1.27,2.5,2.5,2.5,1.49,0,2.33-1.15,2.5-2.5,3.46-27.02,6.73-56.54-6.18-81.71-12.09-23.56-37.06-37.91-62.89-40.65-16.6-1.76-33.59,1.06-49.12,7.04-1.26.49-2.13,1.68-1.75,3.08.33,1.2,1.81,2.23,3.08,1.75h0Z"/>
      <path class="cls-1" d="M168.56,807.5c-22.79-2.77-44.36,6.96-61.86,20.88-18.47,14.69-32.66,33.66-42.81,54.87-5.83,12.18-10.47,24.89-14.39,37.8-.81,2.66,3.31,4.51,4.57,1.93,5-10.22,14.54-16.94,24.66-21.53,11.9-5.4,24.91-7.78,37.18-12.18,11.11-3.98,21.2-9.8,29.79-17.95,7.96-7.56,14.47-16.74,18.96-26.75,5.13-11.42,7.82-23.9,7.34-36.44-.12-3.21-5.12-3.22-5,0,.83,21.49-8.02,42.77-23.12,57.98-7.94,8-17.46,13.95-28.01,17.87-12.35,4.58-25.38,7.07-37.53,12.22-11.64,4.94-22.89,12.6-28.58,24.25,1.52.64,3.05,1.28,4.57,1.93,6.7-22.06,15.55-43.75,29.1-62.55,6.58-9.13,14.37-17.37,22.9-24.69,8.21-7.04,17.34-13.19,27.31-17.43,11.03-4.69,23-6.66,34.93-5.22,1.34.16,2.5-1.27,2.5-2.5,0-1.49-1.15-2.34-2.5-2.5h0Z"/>
      <path class="cls-1" d="M172.25,806.19c-2.03-2.71-4.54-4.71-7.67-6.02-3.04-1.27-6.28-1.8-9.55-2.16-3.29-.36-6.61-.5-9.9-.86-3.92-.44-7.8-1.31-11.69-1.94-16.51-2.67-33.55-3.81-49.27,2.94-12.45,5.34-22.77,14.87-30.31,26.01-8.4,12.41-12.99,26.8-14.62,41.62-1.89,17.15.24,34.58,4.17,51.3.48,2.04.99,4.08,1.52,6.11.82,3.11,5.64,1.79,4.82-1.33-4.17-15.87-6.82-32.25-6.09-48.7.65-14.43,4.07-28.74,11.29-41.33,6.3-10.99,15.25-20.6,26.4-26.76,5.88-3.25,12.26-5.35,18.9-6.35,8.23-1.25,16.7-.73,24.92.3,7.7.97,15.29,2.79,23.03,3.42,5.67.46,12.1.4,17,3.69,1.03.69,1.98,1.59,2.72,2.58.81,1.08,2.16,1.63,3.42.9,1.06-.62,1.71-2.33.9-3.42h0Z"/>
      <path class="cls-1" d="M226.13,960.9c3.32-25.33,17.17-48.15,34.95-66.02,19.78-19.89,44.65-33.61,70.25-44.55,15.17-6.48,30.72-12.02,46.25-17.57-.81-1.39-1.62-2.79-2.43-4.18-5.11,4.97-7.8,11.65-9.81,18.37-2.05,6.85-3.74,13.76-6.7,20.31-5.97,13.22-15.1,24.64-26.48,33.61-10.28,8.1-22.12,14.07-34.09,19.22-12.28,5.29-24.91,9.73-37.3,14.78-12.44,5.08-24.74,10.72-35.88,18.29-1.39.94-2.75,1.92-4.1,2.92-1.08.8-1.63,2.16-.9,3.42.62,1.07,2.33,1.71,3.42.9,10.74-7.98,22.78-13.99,35.07-19.18,12.43-5.24,25.17-9.72,37.63-14.89,12.32-5.11,24.48-10.87,35.35-18.68,11.75-8.44,21.67-19.15,28.6-31.89,3.6-6.61,6.27-13.62,8.3-20.86,1.84-6.53,3.43-13.35,7.26-19.06.91-1.36,1.97-2.59,3.14-3.73,1.72-1.67-.03-5.04-2.43-4.18-14.12,5.04-28.25,10.09-42.11,15.83-13.93,5.76-27.62,12.17-40.57,19.89-11.92,7.11-23.19,15.33-33.23,24.93-9.51,9.09-17.96,19.4-24.65,30.74-6.63,11.24-11.53,23.61-13.81,36.48-.3,1.69-.54,3.38-.76,5.08-.18,1.34,1.27,2.5,2.5,2.5,1.5,0,2.32-1.15,2.5-2.5h0Z"/>
      <path class="cls-1" d="M375.7,827.88c-18.29.87-36.55,2.19-54.77,3.98-8.94.88-17.92,1.73-26.75,3.41-7.67,1.46-15.1,3.7-22.25,6.84-12.99,5.71-24.77,14.32-34.2,24.92-10.05,11.28-17.5,24.72-20.74,39.54-3.39,15.56-2.54,31.82,1.19,47.24.47,1.96,1,3.9,1.56,5.83.9,3.08,5.72,1.77,4.82-1.33-4.25-14.58-6.05-30.14-3.71-45.23,2.25-14.53,8.4-27.94,17.68-39.32,8.69-10.66,19.61-19.38,31.93-25.48,6.27-3.11,12.88-5.44,19.68-7.06,8.33-1.98,16.85-2.95,25.35-3.83,17.8-1.84,35.64-3.24,53.51-4.19,2.23-.12,4.47-.23,6.7-.34,3.2-.15,3.22-5.15,0-5h0Z"/>
      <path class="cls-1" d="M392.66,218.41c5-9.91,11.54-18.91,19.42-26.73,7.68-7.64,16.44-14.07,25.75-19.58,9.98-5.9,20.6-11.08,31.58-14.83,12.32-4.21,25.22-6.62,38.22-7.16,14.49-.6,28.99,1.1,42.93,5.11-.37-1.39-.74-2.79-1.1-4.18-8.75,9.98-17.32,20.16-26.42,29.83-8.25,8.76-17.26,16.68-27.94,22.34-19.99,10.59-43.11,13.06-65.4,12.89-12.95-.1-25.88-1.09-38.78-2.21-1.35-.12-2.5,1.23-2.5,2.5,0,1.45,1.15,2.38,2.5,2.5,23.28,2.02,46.87,3.68,70.1.2,11.28-1.69,22.35-4.73,32.68-9.6,11.02-5.19,20.61-12.65,29.18-21.26,5.01-5.04,9.71-10.38,14.39-15.72,5.24-5.98,10.49-11.96,15.73-17.93,1.23-1.4.79-3.63-1.1-4.18-25.72-7.4-53.57-7.17-79.19.56-11.75,3.55-23.08,8.76-33.78,14.75-9.83,5.5-19.18,11.97-27.45,19.63-9.43,8.73-17.33,19.07-23.12,30.55-1.45,2.87,2.87,5.4,4.32,2.52h0Z"/>
      <path class="cls-1" d="M552.99,149.05c-10.98-9.22-23.99-15.83-37.92-19.23-13.86-3.38-28.4-3.65-42.39-.84-13.77,2.76-26.81,8.7-38.23,16.84-11.39,8.11-21.18,18.23-29.18,29.67-7.98,11.42-14.11,24.16-18.16,37.49-.49,1.62-.95,3.26-1.38,4.9-.82,3.11,4,4.44,4.82,1.33,3.41-12.96,8.8-25.33,16-36.64,7.12-11.18,16.03-21.22,26.44-29.45,10.43-8.25,22.5-14.58,35.38-18,13.04-3.46,26.87-4.04,40.14-1.59,13.36,2.47,26.07,7.86,37.01,15.94,1.35.99,2.65,2.04,3.94,3.12,1.03.87,2.52,1.01,3.54,0,.89-.89,1.04-2.66,0-3.54h0Z"/>
      <path class="cls-1" d="M261.41,497.82c-2.47,19.6-4.95,39.2-7.42,58.8-.71,5.6-1.41,11.2-2.12,16.8-.17,1.34,1.27,2.5,2.5,2.5,1.49,0,2.33-1.15,2.5-2.5,2.47-19.6,4.95-39.2,7.42-58.8.71-5.6,1.41-11.2,2.12-16.8.17-1.34-1.27-2.5-2.5-2.5-1.49,0-2.33,1.15-2.5,2.5h0Z"/>
      <path class="cls-1" d="M185.03,711.69c3.9,15.74,4.24,32.11,6.12,48.15.53,4.55,1.17,9.09,2.04,13.58.26,1.33,1.84,2.08,3.08,1.75,1.39-.38,2.01-1.75,1.75-3.08-3.12-15.99-3.36-32.39-5.66-48.5-.63-4.45-1.43-8.87-2.51-13.23-.77-3.12-5.6-1.8-4.82,1.33h0Z"/>
      <path class="cls-1" d="M233.24,710.78c-7.31,14.43-12.84,29.67-20.07,44.13-6.26,12.53-11.42,25.53-16.14,38.71-2.41,6.73-4.7,13.5-6.9,20.31-.99,3.07,3.84,4.38,4.82,1.33,4.07-12.6,8.43-25.12,13.36-37.41,2.46-6.13,5.07-12.22,8.03-18.13,3.57-7.16,6.87-14.43,10.03-21.79,3.56-8.29,7.11-16.58,11.18-24.63,1.45-2.86-2.86-5.4-4.32-2.52h0Z"/>
      <path class="cls-1" d="M168.32,811.65c12.23,7.94,15.81,22.49,19.62,35.65.89,3.09,5.72,1.77,4.82-1.33-2.13-7.36-4.13-14.82-7.45-21.76-3.27-6.85-8.07-12.72-14.47-16.87-2.71-1.76-5.22,2.57-2.52,4.32h0Z"/>
      <path class="cls-1" d="M220.66,958.98c-2.2,17.71-4.14,35.46-4.32,53.33-.05,5.35.04,10.71.24,16.06.12,3.21,5.12,3.22,5,0-.68-17.87.25-35.66,2.19-53.42.58-5.33,1.23-10.65,1.89-15.97.17-1.34-1.27-2.5-2.5-2.5-1.49,0-2.33,1.15-2.5,2.5h0Z"/>
      <path class="cls-1" d="M357.27,403.74c-9.12,21.85-24.53,40.39-39.19,58.69-4.02,5.01-8.02,10.04-11.88,15.18-.81,1.08-.17,2.79.9,3.42,1.28.75,2.61.19,3.42-.9,14.19-18.89,30.25-36.44,42.36-56.83,3.49-5.87,6.58-11.94,9.21-18.24.52-1.25-.56-2.75-1.75-3.08-1.44-.4-2.55.49-3.08,1.75h0Z"/>
    </g>
    <path class="cls-1" d="M306.83,271.62c-10.28,6.06-19.47,15.37-22.31,27.29-2.66,11.18.47,25.94,11.93,31.1,2.85,1.28,6.01,1.79,9.08,1.02,1.46-.36,2.78-1.09,4.2-1.56,1.5-.5,3.04-.51,4.6-.32,3.22.39,6.39,1.44,9.66,1.15,3.2-.29,6.04-1.58,8.55-3.57,9.37-7.42,11.31-21.57,7.34-32.3-4.64-12.54-16.77-20.99-29.73-23.07-1.33-.21-2.69.34-3.08,1.75-.33,1.19.41,2.86,1.75,3.08,9.95,1.59,19.5,7.06,24.55,15.99,4.79,8.46,4.92,20.23-1.34,28.03-1.48,1.84-3.34,3.52-5.55,4.43-2.55,1.06-5.21.69-7.85.2-3.04-.57-6.12-1.16-9.19-.48-2.58.57-4.75,2.18-7.48,2.03-4.89-.26-8.8-4.47-10.89-8.55-2.31-4.51-2.93-9.84-2.26-14.82,1.6-11.93,10.56-21.2,20.54-27.09,2.77-1.63.26-5.96-2.52-4.32h0Z"/>
    <path class="cls-1" d="M307.01,270.19c.79-.13.06-.02-.15-.02-.09,0-.8-.05-.33,0,.45.05-.27-.07-.4-.11-.1-.03-.19-.06-.28-.09-.45-.14.49.26.04.02-.18-.09-.35-.18-.53-.29-.09-.05-.17-.11-.25-.16-.34-.22.11.08.15.12-.12-.15-.31-.26-.44-.4-.09-.09-.16-.18-.25-.27-.21-.22.31.46.07.1-.12-.19-.24-.37-.34-.57-.27-.53.15.48-.03-.08-.04-.12-.06-.24-.1-.36-.08-.26.11-.16.02.22.05-.2-.02-.55-.01-.76,0-.32.14.01-.03.22.03-.04.06-.27.06-.29.04-.15.21-.43.18-.58.04.23-.22.46-.07.18.05-.09.09-.18.14-.27.06-.11.13-.22.2-.32.23-.34.08-.01-.07.08.17-.11.32-.36.47-.49.44-.4-.41.26.09-.07.17-.11.43-.2.59-.33-.05.04-.57.19-.18.08.14-.04.28-.09.43-.13.09-.02.2-.03.29-.06-.06.02-.63.04-.22.05.15,0,.5.08.62.03-.28.12-.5-.1-.2-.01.12.04.25.06.37.1.1.03.19.07.29.1.29.09-.49-.26-.1-.04.2.12.41.22.6.35.09.06.17.12.26.18.29.2-.46-.42-.07-.05.35.34.7.66,1.02,1.04.06.08.14.19.21.25-.04-.04-.34-.47-.09-.11.13.18.26.36.38.54.27.41.53.83.76,1.26.03.06.33.48.11.16-.07-.19-.07-.18,0,.03-.02-.11-.03-.22-.05-.32,0,.1.08-.7.16-.65-.02-.01-.21.41-.27.41.08,0,.32-.4.09-.12-.11.13-.21.26-.32.39-.18.22-.37.43-.57.63-.17.17-.5.36-.62.57.03-.06.47-.32.11-.1-.14.08-.28.16-.41.25-.28.19-.02-.14.17-.06-.05-.02-.31.1-.37.12-.48.12.05-.11.14,0-.05,0-.1,0-.15,0-.27-.02-.21,0,.19.04-.69-.11-1.3-.11-1.93.25-.52.3-1.01.9-1.15,1.49-.27,1.2.36,2.86,1.75,3.08.91.14,1.81.19,2.71-.1.95-.31,1.71-.8,2.48-1.44.48-.4.9-.85,1.3-1.33.61-.73,1.24-1.47,1.53-2.39.56-1.76-.47-3.44-1.43-4.84-.9-1.31-1.91-2.45-3.21-3.38-1.18-.84-2.69-1.34-4.14-1.34-1.69,0-3.25.7-4.52,1.78-2.46,2.09-3.17,5.57-1.83,8.46.65,1.39,1.86,2.6,3.21,3.33,1.65.9,3.4,1.13,5.24.83,1.29-.21,2.13-1.89,1.75-3.08-.45-1.4-1.69-1.97-3.08-1.75h0Z"/>
    <path class="cls-1" d="M299.91,269.64c.65-.11-.19,0-.33,0-.13,0-.27,0-.4-.02.33.05.36.05.07,0-.26-.07-.52-.14-.78-.21-.26-.1-.25-.09.03.03-.12-.06-.25-.11-.37-.18-.24-.12-.48-.26-.71-.41-.11-.07-.23-.15-.34-.23.23.19.24.19.02.01-.36-.33-.69-.66-1.02-1.02-.18-.22-.18-.21,0,.01-.08-.11-.16-.23-.24-.34-.16-.23-.3-.47-.43-.72-.06-.11-.37-.91-.18-.35-.09-.26-.18-.52-.25-.79-.03-.13-.06-.27-.09-.4-.05-.29-.05-.27,0,.05-.08-.22-.03-.59-.03-.82,0-.14.01-.27.03-.41-.05.34-.05.37,0,.1.06-.2.13-.41.17-.61.06-.17.04-.12-.08.17.05-.11.1-.22.16-.33.08-.15.23-.54.38-.62-.21.26-.23.29-.05.08.08-.09.16-.18.25-.27.08-.09.17-.17.26-.25.21-.18.18-.16-.08.06.09-.16.46-.28.61-.37.25-.12.21-.1-.11.04.11-.04.22-.08.34-.11.11-.03.23-.06.35-.08-.37.04-.42.05-.13.03.12,0,.23,0,.35,0,.23.02.23.02,0,0-.22-.03-.22-.03,0,.02.11.03.22.06.33.1-.33-.15-.37-.17-.13-.05.1.05.2.11.3.17.1.06.19.12.29.19-.28-.22-.31-.24-.11-.06.08.08.16.16.24.25.18.21.15.17-.07-.11.05.01.37.55.35.58-.14-.34-.16-.39-.06-.13.03.11.06.21.09.32.05.27.05.22-.02-.17,0,.11,0,.22,0,.33-.02.28-.01.22.03-.17-.02.11-.05.22-.09.33-.39,1.25.46,2.78,1.75,3.08,1.36.31,2.66-.41,3.08-1.75.82-2.63-.51-5.28-2.65-6.81-2.09-1.5-5.07-1.42-7.17.02-2.18,1.5-3.53,3.89-3.58,6.55-.05,2.67,1.21,5.27,3.03,7.17,2.19,2.28,5.21,3.46,8.34,2.92,1.29-.22,2.13-1.88,1.75-3.08-.45-1.39-1.69-1.98-3.08-1.75h0Z"/>
    <path class="cls-1" d="M302.07,261c-.36-.23.36.38,0,0-.36-.38.18.36,0,.01-.04-.09-.13-.32-.2-.37.05.04.2.59.09.2-.03-.09-.06-.19-.09-.28-.05-.17-.07-.34-.11-.51-.06-.26.03.29.03.29.01-.08-.02-.24-.03-.3-.03-.35-.03-.71-.02-1.07.01-.42.05-.84.09-1.26.04-.5-.08.39.01-.1.04-.25.09-.51.15-.76.05-.22.11-.43.18-.64,0-.03.07-.27.09-.27,0,0-.27.55-.03.07.08-.16.17-.33.26-.48-.01.02.17-.28.18-.28,0,0-.36.41-.09.11.13-.14.26-.28.4-.41.05-.05.15-.11.19-.16-.04.07-.47.31-.11.1.11-.06.35-.15.42-.24-.18.22-.43.15-.15.07.1-.03.21-.06.31-.09.27-.08.15.11-.19.01.06.02.18,0,.24,0,.06,0,.19.03.24,0-.06.03-.6-.14-.19-.02.13.04.32.13.46.14-.35-.01-.39-.19-.16-.06.09.05.19.1.28.16.06.04.21.17.27.18-.01,0-.38-.32-.18-.14.14.13.29.25.43.39.12.12.23.24.34.37.02.03.2.2.21.26-.02-.09-.28-.4-.09-.11.21.32.42.63.6.97.08.14.15.29.22.44.19.39-.05-.09-.06-.15.02.1.08.21.12.31.15.41.25.83.34,1.26.02.08.06.36,0-.01-.06-.42,0,.05,0,.14.01.21.02.42,0,.63,0,.08-.02.16-.02.23,0,.3.14-.63.01-.13-.04.17-.08.35-.14.52-.18.55.22-.4-.05.1-.1.19-.54.73-.1.2-.84,1-1.06,2.57,0,3.54.92.85,2.64,1.07,3.54,0,1.69-2.03,2.09-4.55,1.43-7.09-.61-2.34-2.02-4.51-3.97-5.93-1.03-.76-2.36-1.22-3.64-1.19-1.49.04-2.78.64-3.92,1.57-2.11,1.72-2.76,4.5-2.94,7.08-.19,2.67.36,5.5,2.77,7.04,1.1.71,2.81.26,3.42-.9.65-1.24.28-2.67-.9-3.42h0Z"/>
    <path class="cls-1" d="M311.56,259.73c.23.47-.18-.76-.09-.19-.04-.24-.04-.52,0-.76-.07.57.3-.65.07-.19.03-.06.44-.6.16-.29.11-.12.22-.23.34-.34-.19.14-.17.13.07-.03.5-.33-.31.03.27-.14.15-.05.31-.09.46-.12-.27.03-.26.04.05.02.46.02-.05-.09.43.05.11.03.99.37.66.21.21.1.41.21.61.33.08.05.82.57.44.27.18.14.35.3.52.46.19.19.38.38.55.58.08.09.15.17.22.27-.16-.2-.15-.18.02.05.14.23.29.45.42.69.05.09.39.8.19.34.21.5.33,1.02.46,1.54.15.56.02-.29.04.25.01.31.03.61.02.92,0,.06-.09.79,0,.25-.05.3-.11.6-.2.9-.06.22-.14.44-.22.65.17-.47-.18.36-.23.45-.11.2-.23.4-.36.59-.08.13-.17.26-.26.38.16-.2.14-.19-.04.04-.37.39-.73.79-1.16,1.12.34-.26-.15.09-.24.15-.23.14-.46.28-.7.4-.1.05-.21.1-.31.15.25-.1.23-.1-.04,0-.3.09-.58.18-.89.26-1.27.31-2.15,1.82-1.75,3.08.43,1.32,1.71,2.07,3.08,1.75,5.25-1.26,8.91-6.52,8.19-11.87-.34-2.53-1.61-5-3.54-6.69-2.18-1.92-5.35-3.27-8.21-2.09-3.68,1.51-5.09,5.58-3.36,9.11.59,1.21,2.32,1.54,3.42.9,1.24-.72,1.49-2.2.9-3.42h0Z"/>
    <path class="cls-1" d="M311.7,253.9c1.14-6.7,5.47-12.47,11.61-15.4,3.59-1.71,7.68-2.05,11.59-2.08,4.06-.03,8.31.24,11.99,2.11,6.4,3.24,10.33,9.85,9.99,17.03-.09,1.87-.5,3.71-1.13,5.46-.3.81-.67,1.59-1.09,2.34-.81,1.44-.65,2.32.06,3.75,1.53,3.13,1.93,6.97,1.24,10.37-1.62,7.99-8.88,13.58-16.99,13.34-3.22-.09-3.22,4.91,0,5,7.49.22,14.82-3.63,18.92-9.9,4.26-6.53,4.39-15.21.79-22.03v2.52c3.12-5.3,4.05-11.78,2.48-17.74-1.46-5.54-5.15-10.38-9.96-13.46-5.44-3.48-12.05-4.04-18.35-3.76-6.18.27-11.95,1.87-16.83,5.77-4.73,3.78-8.12,9.34-9.14,15.33-.23,1.33.35,2.69,1.75,3.08,1.2.33,2.85-.41,3.08-1.75h0Z"/>
    <path class="cls-1" d="M291.73,256.46c-8.42-.97-15.71-8.12-16.57-16.57-.46-4.49.57-9.04,3.03-12.84,2.7-4.17,7.19-7.12,11.43-9.53,4.11-2.33,10.16-4.46,14.35-1.05,1.1.89,2.44.97,3.54,0,4.67-4.14,11.47-2.48,16.13.7,4.32,2.94,9.1,8.46,7,14.03-.48,1.26.53,2.74,1.75,3.08,1.4.39,2.6-.48,3.08-1.75,2.94-7.78-3.22-15.54-9.3-19.68-6.66-4.54-15.84-5.56-22.19.08h3.54c-4.94-4.02-11.39-3.82-17.03-1.42-2.88,1.23-5.56,2.9-8.12,4.69-2.51,1.76-4.93,3.71-6.87,6.1-7.24,8.95-7.18,22.08.31,30.84,4.03,4.72,9.8,7.6,15.93,8.31,1.34.15,2.5-1.26,2.5-2.5,0-1.48-1.15-2.35-2.5-2.5h0Z"/>
    <path class="cls-1" d="M272.32,229.57c-7.56-.7-15.21,2.08-20.82,7.13-5.91,5.32-8.99,13.29-8.56,21.2.25,4.55,1.55,8.99,3.94,12.88v-2.52c-2.45,4.16-2.65,9.33-.5,13.65,1.95,3.91,6,6.8,10.3,7.43,1.33.2,2.69-.33,3.08-1.75.32-1.18-.4-2.88-1.75-3.08-3.02-.45-5.67-2.08-7.14-4.81-1.51-2.79-1.25-6.25.33-8.94.45-.76.46-1.77,0-2.52-3.5-5.72-4.21-12.78-2.08-19.12,2-5.96,6.83-10.77,12.66-13.06,3.39-1.33,6.94-1.84,10.56-1.5,1.35.12,2.5-1.24,2.5-2.5,0-1.46-1.15-2.38-2.5-2.5h0Z"/>
    <path class="cls-1" d="M291.35,267.57c-5.53,1.51-11.14,2.87-16.58,4.69-5.01,1.67-9.89,3.88-13.95,7.31-7.2,6.07-11.53,17.01-5.57,25.41,3.16,4.46,8.03,7.07,13.54,6.32-.94-.38-1.88-.77-2.82-1.15,4.15,7.51,13.5,11.37,21.74,9.04,3.09-.87,1.78-5.7-1.33-4.82-6.15,1.74-13.01-1.16-16.09-6.74-.59-1.07-1.72-1.3-2.82-1.15-3.14.43-6.27-1.69-7.99-4.16-2.14-3.06-2.52-6.64-1.45-10.18,2.5-8.28,10.85-12.68,18.5-15.19,5.32-1.74,10.77-3.08,16.17-4.55,3.1-.85,1.78-5.67-1.33-4.82h0Z"/>
    <path class="cls-1" d="M254.18,179.13c-9.49-1.05-19.37-4.48-26.94-10.43-6.36-4.99-11.13-12.76-8.73-21.05.48-1.67,1.27-3.29,2.42-4.6,1.5-1.72,3.53-2.8,5.16-4.38,2.94-2.85,3.61-8.09,8.17-8.88,3.97-.69,7.51,1.83,9.8,4.84,2.85,3.74,4.67,8.39,5.86,12.91,1.45,5.51,1.52,10.98,1.31,16.64-.21,5.64-.15,11.36,2.55,16.48,1.5,2.85,5.82.32,4.32-2.52-2.46-4.66-2.01-10.16-1.81-15.25.21-5.56-.08-11.04-1.48-16.45-2.37-9.16-8.17-21.77-19.31-21.73-2.37,0-4.79.67-6.71,2.09-2.21,1.64-3.32,3.98-4.67,6.29-1.36,2.31-3.53,3.48-5.49,5.21-1.65,1.46-3.01,3.33-3.91,5.34-4.15,9.2-.68,19.38,6.23,26.17,8.7,8.55,21.32,13.01,33.24,14.33,1.34.15,2.5-1.26,2.5-2.5,0-1.48-1.15-2.35-2.5-2.5h0Z"/>
    <path class="cls-1" d="M258.51,181.61c1.18-3.23,3.2-6.07,5.09-8.91,1.88-2.82,3.61-5.72,5.01-8.81,2.87-6.33,4.64-13.25,4.34-20.23-.28-6.45-2.19-13-5.96-18.29-3.73-5.23-9.7-10.08-16.53-9.41-6.83.67-12.16,7.71-9.34,14.32.53,1.24,2.36,1.52,3.42.9,1.28-.75,1.43-2.17.9-3.42-.63-1.48.15-3.38,1.27-4.64,1.4-1.58,3.25-2.3,5.34-2.21,5.28.22,9.57,4.93,12.04,9.18,5.77,9.95,4.56,22.23-.26,32.28-2.98,6.21-7.77,11.41-10.14,17.91-.46,1.27.52,2.74,1.75,3.08,1.39.38,2.61-.47,3.08-1.75h0Z"/>
    <path class="cls-1" d="M217.12,156.68c-3.09-1.02-6.58-1.89-9.74-.65-3.28,1.3-4.99,4.48-5.83,7.75-1.5,5.9-.16,12.3,3.04,17.41,7.08,11.32,21.48,14.45,33.87,11.87,7.35-1.53,14.17-5.04,19.85-9.92,1.03-.88.9-2.63,0-3.54-1.02-1.02-2.51-.88-3.54,0-8.13,6.98-19.66,10.87-30.34,8.86-5.09-.96-9.96-3.19-13.48-7.08-3.14-3.47-5.08-8.15-5.02-12.85.03-2.32.48-5.61,2.29-7.26,1.99-1.82,5.38-.51,7.57.21,3.06,1.01,4.38-3.82,1.33-4.82h0Z"/>
    <path class="cls-1" d="M252.58,181.77c1.47,4.23,5.68,5.69,9.53,7.12,4.37,1.63,8.83,3.03,13.35,4.2,9.1,2.36,18.44,3.79,27.82,4.32,3.22.18,3.2-4.82,0-5-8.48-.47-16.89-1.74-25.14-3.79-4.08-1.01-8.1-2.22-12.07-3.6-1.86-.65-3.76-1.28-5.55-2.09-1.14-.52-2.67-1.21-3.12-2.48-.44-1.27-1.71-2.12-3.08-1.75-1.24.34-2.19,1.79-1.75,3.08h0Z"/>
    <path class="cls-1" d="M250.46,95.88c15.43,7.1,25.71,21.75,31.81,37.16,3.74,9.45,6.23,19.32,8.53,29.2,2.16,9.29,3.6,19.26,8.11,27.77,4.09,7.73,11.18,12.88,18.7,16.98,7.22,3.94,14.68,7.3,21.4,12.11,12.8,9.16,22.94,21.85,29.69,36.02,6.73,14.12,9.98,29.94,8.98,45.57-.12,1.95-.32,3.89-.57,5.83-.17,1.34,1.27,2.5,2.5,2.5,1.5,0,2.33-1.15,2.5-2.5,2.08-16.06-.32-32.62-6.34-47.62-6.05-15.04-15.57-28.74-27.97-39.23-6.37-5.39-13.36-9.63-20.77-13.41-7.29-3.72-15.01-7.39-20.43-13.73-6.1-7.13-7.65-17.09-9.67-25.94-2.28-9.97-4.55-19.98-7.9-29.66-5.78-16.69-15.26-32.99-30.64-42.48-1.74-1.07-3.55-2.03-5.4-2.89-1.23-.56-2.69-.35-3.42.9-.63,1.08-.34,2.85.9,3.42h0Z"/>
    <path class="cls-1" d="M337.26,297.05c7.38,1.28,14.54,3.65,21.16,7.17,6.12,3.25,13.28,7.34,15.71,14.24.45,1.27,1.71,2.12,3.08,1.75,1.23-.34,2.2-1.8,1.75-3.08-2.84-8.04-10.05-12.89-17.24-16.82-7.2-3.93-15.04-6.69-23.12-8.08-1.33-.23-2.69.35-3.08,1.75-.33,1.2.41,2.84,1.75,3.08h0Z"/>
    <path class="cls-1" d="M248.89,90.76c-3.36.52-7.07-1.27-10.12-2.49-2.97-1.2-5.87-2.65-8.51-4.46-4.84-3.31-9.07-8.6-9.24-14.7-.07-2.59.55-5.23,2.97-6.54,2-1.08,4.6-1.06,6.77-.58,5.45,1.21,10.22,5.01,13.27,9.6,4.18,6.3,5.31,13.97,4.56,21.38-.14,1.35,1.25,2.5,2.5,2.5,1.47,0,2.36-1.15,2.5-2.5.8-7.85-.5-16.12-4.63-22.94-3.65-6.03-9.6-11.1-16.54-12.79-6.81-1.66-14.88.76-16.15,8.54-1.26,7.71,2.75,15.3,8.58,20.16,3.43,2.85,7.31,4.93,11.4,6.65,4.45,1.87,9.06,3.75,13.96,2.99,1.34-.21,2.07-1.88,1.75-3.08-.39-1.43-1.74-1.95-3.08-1.75h0Z"/>
    <path class="cls-1" d="M226.61,60.2c4.77-4.96,12.83-4.92,18.46-1.47,6.37,3.91,9.53,11.75,9.99,18.95.31,4.77-.33,9.65-2.8,13.81-1.65,2.77,2.67,5.29,4.32,2.52,9.39-15.76.08-42.8-20.29-42.72-4.91.02-9.78,1.8-13.22,5.37-2.23,2.32,1.3,5.86,3.54,3.54h0Z"/>
    <path class="cls-1" d="M255.99,580.57c5.07-12.04,13.37-22.42,23.1-31.03,10.08-8.93,21.69-16.03,33.65-22.14,12.33-6.3,25.18-11.42,37.99-16.66,13.35-5.46,26.69-11.05,39.34-18.02,12.42-6.84,24.22-15.1,33.93-25.5,1.21-1.3,2.39-2.63,3.54-4,.87-1.03,1.01-2.52,0-3.54-.89-.89-2.66-1.04-3.54,0-9.13,10.85-20.44,19.47-32.67,26.58-12.5,7.26-25.8,13.02-39.15,18.51-13.06,5.38-26.23,10.51-38.9,16.77-12.36,6.11-24.3,13.22-34.92,22.06-10.23,8.51-19.14,18.83-25.02,30.83-.78,1.58-1.48,3.2-2.17,4.82-.52,1.25.56,2.75,1.75,3.08,1.44.4,2.55-.5,3.08-1.75h0Z"/>
    <path class="cls-1" d="M330.83,518.16c15.79-14.42,29.25-32.07,38.27-51.51,2.46-5.3,4.43-10.82,4.93-16.68.39-4.61-.07-10.34-4.12-13.32-4.64-3.42-10.41,0-14.04,3.27-3.62,3.26-6.17,7.59-7.74,12.17-4.17,12.1-.56,24.99,4.52,36.2.56,1.23,2.34,1.53,3.42.9,1.26-.74,1.46-2.19.9-3.42-4-8.82-7.13-18.96-5.03-28.69.86-3.97,2.47-7.88,5.05-11.06,1.27-1.56,2.74-2.99,4.42-4.11,1.42-.95,3.51-2.23,5.21-1.44,1.34.62,1.93,2.37,2.25,3.79.47,2.13.34,4.47.08,6.63-.6,4.99-2.49,9.8-4.65,14.3-4.22,8.81-9.35,17.21-15.1,25.1-6.45,8.84-13.82,16.99-21.9,24.36-2.38,2.18,1.16,5.7,3.54,3.54h0Z"/>
    <path class="cls-1" d="M369.08,441.24c3.83-1.25,7.15,1.56,8.85,4.78,1.93,3.67,2.5,8.07,2.28,12.16-.44,8.22-4.81,15.93-11.71,20.43-3.74,2.44-8.04,4-12.5,4.35-1.35.1-2.5,1.07-2.5,2.5,0,1.27,1.15,2.6,2.5,2.5,9.96-.77,19.29-6.19,24.58-14.74,5.34-8.62,6.49-20.62,1.66-29.73-2.72-5.14-8.58-9.01-14.5-7.08-3.05.99-1.74,5.82,1.33,4.82h0Z"/>
    <path class="cls-1" d="M427.69,460.71c1.7-19.1,13.63-38.47,31.88-45.74,4.7-1.87,10.5-3.54,15.42-1.48,4.88,2.04,6.87,7.59,6.55,12.54-.35,5.43-3.2,10.77-6.59,14.93-3.27,4-7.28,7.3-11.68,9.98-5.1,3.1-10.62,5.39-16.34,7.04-6.88,2-14.2,3.17-21.36,2.16-1.34-.19-2.69.33-3.08,1.75-.32,1.17.4,2.89,1.75,3.08,13.17,1.86,27.11-1.85,38.73-8.09,10.33-5.55,20.01-14.63,22.9-26.39,1.55-6.31.58-13.29-3.98-18.16-4.58-4.89-11.56-5.41-17.76-4.03-10.76,2.38-20.51,9.35-27.39,17.8-8.03,9.85-12.9,21.96-14.03,34.62-.12,1.35,1.24,2.5,2.5,2.5,1.45,0,2.38-1.15,2.5-2.5h0Z"/>
    <path class="cls-1" d="M471.55,408.82c-1.3-6.13-6.65-10.87-12.64-12.28-3.03-.71-6.3-.65-9.22.5-.75.29-1.46.74-2.22,1.01-.74.26-1.3-.1-1.96-.45-1.66-.87-3.35-1.64-5.27-1.57-3.75.15-6.86,2.74-9.12,5.53-2.5,3.08-4.61,6.54-6.64,9.94-4.26,7.12-7.51,14.9-7.25,23.34.16,5.1,1.22,10.17,2.08,15.19.88,5.15,1.76,10.3,2.64,15.46.23,1.33,1.87,2.08,3.08,1.75,1.41-.39,1.97-1.74,1.75-3.08-1.4-8.22-3.09-16.45-4.15-24.73-.5-3.86-.62-7.77.23-11.58.78-3.51,2.14-6.84,3.81-10.02,1.69-3.22,3.65-6.3,5.65-9.34,1.66-2.53,3.43-5.34,6.15-6.86,1.02-.57,2.11-.79,3.23-.37,1.68.63,3.04,1.75,4.9,1.89,1.84.14,3.3-.88,4.87-1.45,1.2-.44,2.19-.61,3.41-.62,5.36-.05,10.72,3.68,11.86,9.08.67,3.15,5.49,1.81,4.82-1.33h0Z"/>
    <path class="cls-1" d="M424.38,464.92c6.91,5.51,14.05,10.72,21.44,15.56,6.85,4.49,14.69,10.03,23.29,9.57,4.17-.22,7.98-1.93,11.36-4.29,3.28-2.29,6.58-4.89,9.36-7.77,2.83-2.94,4.95-6.58,5.06-10.75.05-1.99-.44-4.02-1.47-5.72-.48-.79-1.19-1.51-1.54-2.37-.32-.78-.09-1.64.07-2.45,1.63-8.2-1.81-16.75-9.06-21.13-2.76-1.67-5.28,2.66-2.52,4.32,4.84,2.92,7.75,8.8,6.96,14.44-.29,2.09-.99,4.11-.26,6.2.56,1.61,1.85,2.77,2.46,4.32,1.15,2.91-.35,6.26-2.23,8.5-2.27,2.69-5.17,4.96-7.96,7.09-2.75,2.1-5.87,4.1-9.38,4.55-7.36.95-14.39-4.15-20.22-7.93-7.52-4.86-14.81-10.09-21.81-15.68-1.05-.84-2.51-1.03-3.54,0-.87.87-1.06,2.69,0,3.54h0Z"/>
  </g>
  <path class="cls-1" d="M434.8,1030.66c-6.79-24.6-9.87-50.13-9.12-75.64.75-25.3,5.43-50.36,12.76-74.56,7.3-24.08,17.19-47.28,28.32-69.81,11.39-23.04,24.05-45.41,36.91-67.64,13.06-22.57,26.34-45.01,38.81-67.92,1.47-2.7,2.93-5.41,4.38-8.13,1.51-2.84-2.8-5.37-4.32-2.52-12.31,23.1-25.56,45.69-38.7,68.32-13.09,22.55-26.1,45.16-37.9,68.42-11.5,22.65-21.89,45.93-29.83,70.08-7.98,24.3-13.38,49.51-15.02,75.07-1.64,25.52.58,51.32,6.46,76.2.75,3.17,1.56,6.33,2.43,9.47.85,3.1,5.68,1.78,4.82-1.33h0Z"/>
  <path class="cls-1" d="M490.06,1025.05c7.94-50.63-2.7-102.42-24.58-148.35-21.49-45.11-53.62-84.44-89.26-119.12-35.53-34.57-75.29-64.39-111.57-98.13-18.16-16.89-35.51-34.82-50.54-54.59-14.71-19.36-27.05-40.48-36.76-62.77-19.41-44.57-28.19-93.82-25.18-142.35.38-6.1.95-12.19,1.7-18.25.39-3.19-4.61-3.16-5,0-5.86,47.89-.17,97.04,15.99,142.47,8.08,22.72,18.73,44.55,31.84,64.8,13.18,20.37,28.91,38.99,45.9,56.27,34.7,35.3,74.36,65.16,111.05,98.29,36.99,33.39,71.11,70.7,96.04,114.09,25.51,44.4,40.89,95.67,37.65,147.18-.4,6.41-1.11,12.8-2.1,19.14-.49,3.15,4.32,4.5,4.82,1.33h0Z"/>
  <path class="cls-1" d="M578.66,573.76c-13.58-7.86-30.02-10.64-45.39-7.31-14.47,3.14-27.07,12.12-34.91,24.66-7.51,12.01-10.21,26.99-5.89,40.63,4.1,12.94,13.75,24.31,26.31,29.67,3.25,1.39,6.59,2.37,10.09,2.91,4.12.64,8.33.85,12.35,2.04,7.06,2.11,11.32,8.39,16.8,12.85,3.03,2.47,6.38,4.36,10.16,5.43,3.71,1.06,7.63,1.36,11.48,1.34,7.8-.05,15.58-1.43,23.39-.8,14.74,1.19,26.42,14.53,41.74,12.06,13.55-2.18,21.43-17.43,20.3-30.16-1.47-16.45-13-29.14-23.79-40.62-10.54-11.22-22.21-24.07-21.78-40.53.09-3.52.85-7.02,2.39-10.2.59-1.21.33-2.7-.9-3.42-1.1-.64-2.83-.32-3.42.9-7.07,14.61-.9,31.17,8.33,43.24,9.46,12.36,22.19,22.23,29.56,36.15,3.25,6.13,5.41,13.23,4.53,20.22-.72,5.74-3.4,11.38-7.69,15.3-4.58,4.19-10.65,5.27-16.59,3.8-6.86-1.7-12.92-5.61-19.37-8.35-3.47-1.47-7-2.6-10.75-3.11-3.8-.51-7.63-.51-11.45-.31-7.25.38-14.76,1.62-21.98.29-3.5-.65-6.73-1.93-9.63-4.01-2.77-1.99-5.11-4.55-7.56-6.9-2.54-2.44-5.27-4.85-8.46-6.43-3.77-1.86-7.84-2.52-11.97-3.05-3.57-.45-7.12-.9-10.56-2-2.93-.94-5.7-2.26-8.32-3.88-5.35-3.31-9.93-7.89-13.34-13.17-3.43-5.29-5.8-11.3-6.65-17.56-.89-6.58-.04-13.32,2.08-19.59,4.26-12.63,13.87-23.3,25.91-28.97,13.28-6.25,29-6.21,42.7-1.36,3.39,1.2,6.64,2.74,9.76,4.54,2.79,1.62,5.31-2.7,2.52-4.32h0Z"/>
  <path class="cls-1" d="M616.75,574.54c-12.61,11.49-16.44,30.01-12.25,46.16,2.21,8.52,6.45,16.38,11.87,23.27,5.77,7.35,13.19,13.01,19.89,19.45,6.81,6.54,13.3,14.78,13.45,24.67.05,3.21,5.05,3.22,5,0-.14-8.89-4.6-16.87-10.32-23.43-6.13-7.03-13.79-12.49-20.19-19.24-11.05-11.66-18.52-28.02-15.9-44.34,1.41-8.77,5.37-16.99,11.98-23.01,2.38-2.17-1.16-5.7-3.54-3.54h0Z"/>
  <path class="cls-1" d="M641.99,633c18.9,10.89,44.1,10.12,62.75-.97,4.81-2.86,9.15-6.47,12.84-10.68,4.41-5.04,8.02-10.71,11.95-16.12,3.82-5.26,8.17-9.86,13.13-14.05,4.82-4.07,9.9-7.86,14.35-12.34,4.5-4.53,8.03-9.74,10.48-15.64,2.4-5.78,3.64-11.95,4.22-18.17.58-6.14.46-12.34,0-18.49-.41-5.46-1.16-10.97-2.85-16.19-1.68-5.21-4.3-10.19-8.23-14.05-4.32-4.23-9.96-6.85-15.91-7.74-13.13-1.96-25.68,3.09-36.41,10.3-5.47,3.68-10.59,7.83-15.87,11.77-5.21,3.88-10.57,7.58-16.1,10.99-11.03,6.79-22.8,12.43-35.35,15.77-3.13.83-6.29,1.51-9.48,2.05-1.33.23-2.08,1.87-1.75,3.08.39,1.41,1.74,1.97,3.08,1.75,25.33-4.29,47.38-17.99,67.45-33.36,9.89-7.57,20.24-15.32,32.84-17.35,5.54-.89,11.44-.58,16.69,1.51,4.83,1.92,8.73,5.56,11.33,10.02,5.26,9.04,5.89,20.41,5.95,30.63.07,11.74-1.77,23.85-8.6,33.69-6.97,10.06-18.23,16.05-26.5,24.89-8.46,9.06-13.78,20.74-23.31,28.84-15.42,13.11-38.92,15.98-57.55,8.75-2.29-.89-4.49-1.98-6.62-3.21-2.79-1.61-5.31,2.71-2.52,4.32h0Z"/>
  <path class="cls-1" d="M722.75,490.13c-15.34-1.52-31.09.91-45.3,6.87-7.02,2.94-13.65,6.69-19.68,11.34-6.42,4.95-11.96,10.85-17.3,16.92-6.03,6.86-11.91,13.88-18.87,19.83-1.03.88-.9,2.63,0,3.54,1.02,1.02,2.51.88,3.54,0,12.1-10.35,20.88-23.95,33.04-34.24,11.17-9.45,25.06-15.51,39.39-18.2,8.29-1.56,16.8-1.88,25.19-1.05,1.35.13,2.5-1.24,2.5-2.5,0-1.46-1.15-2.37-2.5-2.5h0Z"/>
  <path class="cls-1" d="M708.73,493.32c2.87-9.38.99-19.98-1.54-29.22-2.37-8.64-5.68-17.47-10.51-25.07-5.95-9.36-16.01-16.09-27.05-17.48-3.02-.38-5.99-.21-9,.18-3.14.4-6.54,1.09-9.69.4-5.73-1.25-9.19-6.71-13.43-10.28-8.27-6.95-20.07-11.94-30.91-8.69-2.85.85-5.41,2.28-7.73,4.12-2.5,1.99-4.57,4.42-6.85,6.64-4.39,4.25-9.73,7.26-14.92,10.41-4.94,3-9.84,6.21-13.79,10.48-3.4,3.68-6.16,7.94-8.15,12.53-4.07,9.34-5.23,19.76-3.38,29.78.9,4.86,2.59,9.61,4.99,13.93,2.54,4.55,5.98,8.47,9.76,12.03,7.11,6.7,16.07,12.53,20.58,21.48,1.04,2.07,1.7,4.31,2.05,6.6.21,1.34,1.88,2.07,3.08,1.75,1.43-.39,1.95-1.74,1.75-3.08-1.56-10.06-9.22-17.33-16.52-23.71-3.79-3.31-7.67-6.56-11.08-10.28-3.08-3.36-5.61-7.24-7.32-11.48-6.99-17.3-2.3-39.14,12.85-50.62,4.81-3.64,10.18-6.42,15.21-9.72,2.51-1.64,4.95-3.41,7.18-5.41,2.32-2.07,4.33-4.47,6.64-6.56,3.75-3.4,8.37-5.02,13.41-4.86,5.1.16,10.07,2,14.43,4.57,2.25,1.32,4.36,2.85,6.3,4.6,2.03,1.84,3.84,3.9,5.88,5.73,2.27,2.03,4.81,3.8,7.77,4.64,3.13.9,6.42.69,9.61.3,3.12-.39,6.22-.86,9.38-.66,2.58.16,5.12.74,7.56,1.59,5.08,1.76,9.65,4.9,13.32,8.79,5.56,5.88,8.83,13.9,11.47,21.4,3.15,8.93,5.64,18.67,4.89,28.21-.15,1.85-.47,3.69-1.07,5.63-.94,3.08,3.88,4.4,4.82,1.33h0Z"/>
  <path class="cls-1" d="M558.15,447.16c-4.65-.77-9.15-2.13-13.76-3.1-4.47-.94-8.89-1.13-13.41-.35-8.05,1.4-15.75,5.1-20.65,11.79-3.58,4.89-5.04,11.02-6.95,16.69-1.01,3.01-2.03,6.03-3.12,9.01-.19.52-.38,1.04-.58,1.56-.09.24-.19.49-.29.73-.12.31-.31.68-.05.13-.14.28-.3.56-.43.84.21-.45.17-.19-.1.07-.22.21-.45.41-.68.6.43-.34-.21.14-.35.24-.29.2-.59.39-.89.58-.68.42-1.37.81-2.07,1.19-1.52.82-3.07,1.58-4.63,2.32-2.67,1.27-5.44,2.39-8.05,3.78-3.18,1.69-6.31,3.5-9.48,5.22-2.85,1.54-5.67,3.19-8.09,5.37-5.84,5.26-8,13.48-8.78,21.03-.97,9.34.82,19.01,5.17,27.33,4.16,7.95,10.89,14.52,18.98,18.43,7.86,3.8,16.49,5.3,25.01,6.84,2.28.41,4.56.83,6.83,1.28,1.32.26,2.7-.38,3.08-1.75.34-1.23-.42-2.81-1.75-3.08-8.36-1.66-16.91-2.72-25.03-5.39-7.76-2.55-14.78-7.09-19.63-13.76-5.11-7.02-7.76-15.59-7.9-24.25-.07-4.34.47-8.64,1.65-12.81.49-1.72,1.05-3.36,1.83-4.91.36-.71.75-1.4,1.18-2.07.19-.3.39-.59.6-.87.17-.24.13-.19.48-.61,1.96-2.31,3.83-3.57,6.45-5.09,3.1-1.81,6.33-3.39,9.45-5.16,5.27-2.99,10.99-5.1,16.25-8.13,1.96-1.13,4.23-2.46,5.2-4.6,1.03-2.29,1.82-4.69,2.65-7.06,1.75-5.02,3.22-10.16,5.1-15.13,2.5-6.6,7.42-11.28,14.03-13.69,4.05-1.47,8.32-2.4,12.64-2.2,3.96.18,7.79,1.34,11.61,2.29,2.38.59,4.76,1.1,7.18,1.5,1.33.22,2.69-.35,3.08-1.75.33-1.2-.41-2.85-1.75-3.08h0Z"/>
  <path class="cls-1" d="M599.26,532.92c.1.06.78.55.38.24.28.23.55.47.8.73.1.1.2.21.3.32.05.05.47.62.15.17.21.3.41.6.59.92.11.19.2.39.3.58.05.11.13.43,0,0,.11.35.24.68.32,1.03.03.14.06.28.09.42.16.66,0-.49.03.19.01.36.03.72.01,1.08,0,.11-.14.77-.01.2-.03.14-.05.27-.09.41-.04.17-.09.34-.14.5-.04.13-.22.57,0,.08-.14.32-.3.63-.49.92-.07.12-.15.23-.23.35-.25.4.22-.23-.19.23-.21.24-.44.44-.66.66-.46.47.4-.24-.15.13-.12.08-.23.16-.34.23-.29.18-.6.34-.91.49.46-.21.13-.05.02-.02-.23.06-.46.14-.69.2-.15.03-.61.09-.05.03-.14.01-.27.03-.41.03-.2,0-.41,0-.61,0-.15,0-.45-.09.09.03-.32-.07-.63-.13-.94-.23-.12-.04-.25-.09-.37-.13.57.22-.09-.07-.21-.13-.27-.15-.52-.31-.77-.48-.54-.36.33.34-.13-.11-.1-.1-.2-.18-.3-.28-.25-.24-.46-.5-.7-.75.32.34.09.12.02.02-.13-.2-.27-.39-.39-.6-.16-.26-.29-.53-.42-.81.26.55,0-.05-.04-.15-.04-.13-.08-.25-.11-.38-.04-.15-.05-.34-.11-.48-.14-.31.01.57,0-.01,0-.13-.02-.26-.02-.39,0-.07.04-.83,0-.44-.04.41.05-.21.06-.24.03-.13.07-.27.1-.4.09-.33.2-.67.32-.99,0,0,.26-.63.11-.28-.15.35.13-.27.13-.27.18-.37.38-.73.6-1.07.07-.11.15-.23.22-.34.13-.19.36-.46.08-.13.25-.3.51-.58.79-.85.09-.09.19-.17.28-.25-.46.41.04-.02.17-.1.13-.08.26-.16.39-.23.17-.09.61-.19.06-.05.14-.04.28-.1.43-.14.09-.03.17-.05.26-.07.28-.05.24-.05-.12,0,.24-.12.68-.02.94-.01-.63-.01-.04,0,.12.03.2.05.4.11.6.17.44.13.12.04.02,0,.29.13.57.29.84.45,1.13.67,2.79.29,3.42-.9.64-1.2.31-2.71-.9-3.42-1.9-1.13-4.06-1.63-6.24-1.14-1.8.4-3.44,1.57-4.6,2.97-2.44,2.96-3.95,7.14-2.46,10.86,1.49,3.73,5.19,6.94,9.39,6.75,4.18-.19,7.91-3.28,9.02-7.3,1.27-4.62-1.11-9.69-5.11-12.14-1.12-.68-2.8-.28-3.42.9-.64,1.22-.3,2.69.9,3.42Z"/>
  <path class="cls-1" d="M612.73,534.68c.69-.09,1.38-.08,2.07-.03-.56-.04.17.03.25.05.15.03.3.06.45.1.45.11.89.25,1.32.42-.4-.16-.03-.01.04.03.2.11.41.21.61.32.33.19.66.4.97.62-.09-.06-.32-.28.04.04.17.15.34.3.51.46.27.27.54.55.77.85-.32-.41.12.2.14.24.08.13.16.26.24.39.11.2.22.4.31.61-.05-.1-.14-.41.01.04.11.35.22.69.3,1.05.02.1.09.79.04.2.02.22.03.43.04.65,0,.37-.02.73-.05,1.09.03-.49.02-.13,0-.02-.05.21-.08.43-.14.64-.09.35-.21.7-.33,1.04.03-.09.21-.42,0,0-.11.23-.23.46-.35.68-.16.28-.34.56-.53.82.33-.45-.11.11-.16.17-.1.11-.2.21-.3.31-.15.15-.32.29-.48.44.07-.07.39-.26,0,0-.36.24-.73.46-1.12.65.43-.2-.02,0-.14.04-.18.06-.37.12-.55.16-.15.04-.3.06-.45.1-.69.16.46,0-.25.03-.39.01-.77,0-1.15,0-.09,0-.49-.06-.02.01-.27-.04-.53-.1-.79-.16-.34-.09-.67-.19-.99-.31.49.19-.2-.1-.25-.13-.14-.07-.27-.15-.4-.22-.2-.12-.39-.24-.58-.38.34.24.02.02-.04-.03-.34-.31-.69-.62-.96-.99.2.28-.12-.22-.16-.29-.12-.2-.24-.4-.33-.61.13.29-.03-.09-.04-.13-.07-.24-.14-.48-.2-.73-.11-.49-.03-.19-.02-.07-.03-.24-.04-.49-.04-.74,0-.46.02-.92.07-1.37.02-.21.05-.42.07-.63-.06.44.04-.29.06-.37.1-.66.19-1.33.28-2,.11-.85-.1.27.02-.14.07-.23.09-.48.14-.71.03-.13.07-.26.11-.39.02-.07.29-.76.14-.43-.17.36.11-.18.12-.2.09-.16.19-.31.29-.46-.35.52-.03.06.08-.04.12-.12.55-.39.06-.08.13-.08.27-.16.4-.25.09-.05.17-.09.26-.14-.29.12-.3.12-.03.02.45-.12.88-.24,1.34-.31,1.34-.2,2.07-1.89,1.75-3.08-.39-1.43-1.73-1.94-3.08-1.75-2.14.31-4.01,1.43-5.21,3.24-.52.78-.87,1.72-1.08,2.62-.13.56-.2,1.13-.27,1.7-.02.13-.03.25-.05.38,0-.06.04-.29,0,0-.04.31-.09.61-.14.92-.37,2.55-.55,4.98.53,7.39.93,2.07,2.73,3.82,4.8,4.77,4.18,1.91,9.31,1.24,12.36-2.38,2.9-3.43,3.65-8.21,1.7-12.28-2.04-4.28-7.28-7.09-11.98-6.47-1.29.17-2.57,1.03-2.5,2.5.05,1.21,1.11,2.68,2.5,2.5Z"/>
  <path class="cls-1" d="M592.3,551.69c-2.01,4.18-1.49,9.57,1.91,12.9,3.11,3.05,8.51,3.68,12.13,1.13,4.21-2.96,4.64-8.75,4.05-13.47-.32-2.57-1.26-5.01-3.44-6.54-1.62-1.14-3.61-1.28-5.51-.96-1.87.32-3.66,1.29-5.15,2.43-1.59,1.22-3.1,2.68-4,4.5-.58,1.17-.35,2.76.9,3.42,1.13.6,2.8.36,3.42-.9.11-.23.24-.45.37-.67.08-.13.17-.27.26-.4.04-.06.08-.11.12-.17.2-.28-.06.12-.13.17.22-.14.4-.48.58-.67.25-.26.5-.51.77-.75.12-.11.24-.21.36-.31.06-.05.13-.1.18-.15.2-.18-.18.15-.19.15.05.03.8-.57.91-.64.27-.17.54-.33.82-.48.14-.07.28-.14.42-.21.02,0,.26-.1.28-.13-.04.06-.51.2-.17.07.28-.1.56-.21.86-.29.14-.04.28-.07.43-.11.09-.02.19-.04.28-.06.35-.07-.16.04-.24.03.25.04.57-.03.83-.03.56.01-.13,0-.13-.04,0-.01.49.11.52.12.08.02.31.15.38.13-.19.05-.51-.26-.11-.02.09.05.25.21.35.22-.02,0-.38-.35-.23-.18.07.09.18.16.27.24.04.04.26.34.3.33-.03,0-.28-.42-.15-.19.04.07.09.14.14.2.09.14.16.3.26.44.01.02.15.29.05.08-.1-.21.08.21.09.25.17.49.28.99.36,1.51-.06-.42,0,.15.02.29.02.28.04.56.05.84.04.96.05,1.93,0,2.9-.01.25-.03.51-.05.76-.02.19-.07.65,0,.19-.07.46-.15.91-.28,1.36-.05.2-.12.41-.18.61-.02.07-.18.49-.06.19.11-.27-.02.05-.04.08-.1.19-.19.37-.3.55-.05.09-.11.18-.17.27-.03.05-.31.41-.11.16.2-.23-.16.16-.22.22-.1.1-.32.4-.45.41-.02,0,.42-.27.16-.13-.07.04-.14.1-.21.15-.17.11-.34.21-.52.3-.11.06-.58.21-.25.13.36-.09-.28.08-.36.11-.17.05-.34.09-.51.13-.08.02-.18.03-.26.05-.31.1.47-.03.14-.01-.35.02-.7.05-1.06.04-.09,0-.54.03-.62-.04-.02-.02.52.1.23.03-.11-.03-.23-.04-.35-.07-.35-.07-.67-.22-1.02-.3-.28-.06.19.09.19.09-.08-.01-.23-.11-.32-.15-.18-.09-.36-.19-.54-.3-.07-.05-.15-.1-.22-.14-.33-.2.08,0,.08.08,0-.07-.42-.37-.49-.44-.18-.18-.34-.37-.51-.56-.19-.2.09.11.1.13-.07-.11-.15-.21-.21-.31-.24-.37-.45-.76-.63-1.17.22.5-.02-.1-.08-.29-.07-.21-.12-.43-.17-.65-.01-.06-.14-.65-.13-.66s.04.49.03.19c0-.13-.02-.26-.03-.38-.03-.48,0-.96.03-1.44,0-.07.06-.38,0-.05-.07.35.02-.08.03-.14.04-.22.09-.44.15-.66.07-.25.15-.49.24-.73.16-.45-.16.32.05-.11.57-1.18.36-2.75-.9-3.42-1.12-.59-2.82-.36-3.42.9Z"/>
  <path class="cls-1" d="M621.35,563.22c.25-.33-.04.04-.15.16-.16.18-.32.35-.49.51-.14.13-.29.25-.43.39-.25.24.36-.22.07-.05-.1.06-.2.14-.29.2-.15.09-.29.18-.45.26-.1.05-.21.09-.3.15-.24.15.21-.12.22-.09.01.07-.99.28-1.07.3-.45.1.5-.02.05-.01-.18,0-.36.02-.54.01-.15,0-.31-.03-.46-.03-.26,0,.28.04.29.04-.06-.05-.29-.05-.38-.07-.16-.04-.85-.35-.96-.3.01,0,.47.22.24.1-.07-.04-.14-.07-.21-.1-.19-.09-.38-.2-.56-.3-.14-.08-.27-.17-.4-.26-.07-.05-.13-.1-.2-.14-.28-.17.36.32.12.09-.28-.27-.58-.5-.84-.79-.12-.12-.22-.25-.34-.37-.38-.43.17.26-.08-.09-.23-.33-.45-.66-.64-1.01-.08-.15-.16-.3-.24-.46-.04-.08-.07-.16-.11-.23-.14-.25.09.21.08.2-.22-.25-.3-.84-.39-1.16-.05-.2-.1-.4-.14-.6-.02-.11-.06-.64-.05-.28,0,.37-.01-.25-.02-.38-.01-.21-.01-.42,0-.63,0-.21.02-.42.04-.64.03-.49-.09.39,0-.05.08-.37.16-.74.28-1.1.04-.13.14-.67.1-.3-.03.26-.07.14,0,0,.04-.07.07-.14.11-.21.17-.33.36-.63.57-.94.31-.47-.24.26.03-.05.1-.12.2-.24.31-.35.25-.27.52-.5.78-.75.33-.3-.39.27-.02.01.15-.1.29-.21.44-.3.3-.19.62-.36.94-.52.44-.22-.18.06-.04,0,.17-.06.33-.13.5-.18.33-.11.67-.2,1.02-.26.07-.01.15-.02.22-.04.26-.06-.3.04-.3.04.16.02.36-.03.52-.04.35-.02.69.02,1.03.02.27,0-.31-.05-.3-.05.06.02.15.02.22.04.17.03.34.07.51.11.14.04.29.08.43.13.07.02.14.06.21.08.28.07-.56-.28-.11-.05.27.14.54.28.8.45-.02-.01.25.18.26.18-.02,0-.39-.33-.19-.15.14.13.29.24.42.37.16.15.3.32.46.48.04.05.25.26.02.01-.26-.28.09.13.12.17.12.18.24.36.35.55.05.09.1.19.15.28.03.06.27.59.14.28-.09-.22.13.38.16.5.08.27.15.55.2.82.02.1.04.21.06.31.07.36-.01-.4,0-.03,0,.28.04.57.04.85,0,.25,0,.5-.02.75,0,.14-.03.29-.04.43.02-.23.05-.29,0-.02-.1.53-.22,1.05-.39,1.57-.08.24-.17.47-.26.71.18-.48-.12.24-.19.37-.26.5-.56.97-.89,1.43-.77,1.06-.22,2.83.9,3.42,1.3.69,2.6.24,3.42-.9,2.89-3.98,3.5-10.06.49-14.14-1.3-1.76-3.04-3.12-5.18-3.68-1.83-.48-3.86-.4-5.65.2-3.73,1.26-6.83,4.44-7.47,8.4-.72,4.54,1.2,9.03,4.89,11.73,1.7,1.25,3.96,1.98,6.08,1.75,2.93-.32,5.11-1.98,6.85-4.27.79-1.05.2-2.84-.9-3.42-1.32-.7-2.57-.22-3.42.9Z"/>
  <path class="cls-1" d="M626.32,550.49c.13-.25.29-.49.44-.73.28-.43-.39.44-.05.06.09-.1.18-.21.28-.31.19-.2.45-.36.62-.57-.37.45-.28.21-.06.06.15-.11.31-.21.48-.3.24-.14.52-.24.76-.38-.56.35-.29.12-.07.04.09-.03.18-.06.27-.09.27-.09.55-.16.83-.22.13-.03.29-.03.42-.08-.43.05-.51.07-.24.03.09-.01.19-.02.28-.03.28-.02.57-.03.86-.02.14,0,.28.01.43.02.24.02.56.17-.1-.02.27.08.56.1.83.17.26.07.54.22.8.26-.55-.09-.35-.15-.08-.03.13.06.25.13.37.2.24.14.46.33.7.46-.56-.31-.24-.19-.07-.03.11.1.21.19.31.3.1.1.19.21.29.32.29.32-.34-.5.03.07.15.24.28.49.41.74.23.44-.15-.46-.06-.15.03.11.08.22.12.33.09.27.16.54.21.81.04.21.02.62,0-.11,0,.19.04.38.05.56.01.28.01.57,0,.85,0,.14-.02.28-.03.43-.04.53.12-.62,0-.1-.06.28-.11.56-.19.84-.07.26-.24.55-.27.81.08-.55.15-.34.03-.07-.06.13-.13.26-.19.38-.13.25-.28.49-.44.72-.15.22-.39.32.05-.05-.1.08-.18.22-.27.32-.22.24-.46.46-.71.68-.38.34.49-.33.06-.05-.12.08-.23.16-.35.23-.19.11-.47.19-.62.33.36-.32.39-.15.07-.04-.21.07-.42.14-.64.19-.1.02-.79.1-.21.06-.3.02-.58.02-.88,0,.57.03-.09-.03-.2-.06-.12-.03-.24-.07-.35-.12.31.14.35.15.1.03-.15-.1-.31-.19-.47-.28-.22-.16-.2-.14.06.06-.09-.08-.19-.16-.28-.24-.14-.13-.27-.26-.39-.4-.07-.08-.52-.51-.08-.07-.29-.29-.51-.75-.7-1.11-.1-.19-.19-.39-.29-.58-.12-.26-.12-.26,0,0-.05-.13-.11-.27-.16-.4-.17-.47-.31-.96-.43-1.45-.05-.21-.08-.42-.13-.63-.05-.29-.05-.28,0,.02-.02-.14-.03-.29-.04-.43-.04-.5-.04-1-.02-1.51.05-1.31-1.19-2.56-2.5-2.5-1.4.06-2.44,1.1-2.5,2.5-.1,2.4.44,4.75,1.47,6.91.87,1.84,2.31,3.67,4.19,4.53,4.01,1.84,8.51-.15,10.74-3.73,1.83-2.93,2.08-6.65.7-9.8-1.4-3.21-4.75-4.99-8.13-5.17-3.68-.2-7.6,1.67-9.35,4.99-.61,1.16-.33,2.77.9,3.42,1.15.61,2.77.34,3.42-.9h0Z"/>
  <path class="cls-1" d="M578.83,552.98c.78,1.9,2.08,3.47,3.9,4.45,1.55.84,3.38,1.31,5.15,1.2,1.99-.13,3.79-.81,5.3-2.12,1.45-1.25,2.21-3.01,2.44-4.87.39-3.12-1.31-6.47-3.72-8.39-1.49-1.18-3.2-1.98-5.14-2.01-1.6-.02-3.27.52-4.56,1.47-3.1,2.3-4.85,6.52-3.37,10.26.25.63.55,1.14,1.15,1.49.54.31,1.33.45,1.93.25,1.17-.38,2.26-1.77,1.75-3.08-.1-.26-.19-.51-.26-.78-.04-.15-.05-.31-.1-.46-.07-.24.04.35.04.34,0-.08-.02-.18-.02-.26-.02-.26-.01-.52,0-.79,0-.06.02-.13.02-.19,0-.26-.06.37-.05.34.05-.16.06-.35.1-.51.06-.25.15-.5.23-.74.13-.4-.24.5-.05.12.08-.15.15-.31.23-.46.13-.23.27-.44.41-.65.23-.35-.36.41-.08.1.1-.11.19-.23.3-.33.19-.19.43-.36.6-.56.02-.02-.47.33-.26.2.05-.03.1-.07.15-.11.12-.08.24-.16.37-.24.11-.06.22-.12.33-.18.06-.03.11-.05.17-.08.34-.17-.23.1-.25.11.26-.04.51-.17.77-.23.11-.02.56-.09.1-.03-.47.06,0,.01.1,0,.15,0,.3,0,.44,0,.06,0,.13.02.19.01.28,0-.55-.12-.28-.04.26.07.52.12.78.2.05.02.14.07.2.07,0,0-.5-.23-.27-.11.17.09.33.16.49.25.23.13.43.29.65.42.21.13-.26-.21-.25-.19.04.05.1.08.15.13.12.1.23.2.34.31.21.2.4.41.59.63.04.05.08.11.13.15.02.01-.33-.46-.19-.24.09.13.18.25.27.38.16.24.3.49.44.75.06.12.11.24.17.36.12.23-.13-.32-.12-.29.02.08.07.17.09.25.1.27.18.54.24.81.03.13.05.25.08.38.1.52-.03-.48-.01-.09,0,.25.03.5.01.76,0,.11-.07.66,0,.17.06-.47-.02.05-.05.16-.03.12-.06.24-.1.36-.02.06-.05.12-.06.18-.05.23.14-.31.13-.3-.17.25-.29.54-.45.79-.22.36.35-.39.06-.08-.1.1-.19.21-.29.31-.1.1-.21.2-.32.29-.3.27.45-.31,0,0-.26.17-.54.28-.8.44-.02,0,.53-.2.27-.12-.07.02-.13.05-.2.07-.15.05-.31.1-.47.14-.18.05-.36.08-.55.11-.27.05.35-.04.32-.04-.09,0-.19.02-.28.02-.33.02-.66.02-.99,0-.07,0-.14-.02-.21-.02-.32-.02.55.1.24.03-.19-.04-.37-.07-.56-.11-.32-.08-.63-.19-.95-.3-.25-.09.29.13.27.11-.08-.05-.17-.08-.26-.12-.17-.08-.33-.18-.49-.27-.14-.09-.27-.18-.41-.27-.22-.14.24.19.23.18-.07-.06-.15-.12-.21-.18-.12-.11-.24-.22-.35-.34-.06-.06-.11-.12-.17-.18-.05-.06-.4-.42-.13-.15.22.23.04.04,0-.03-.06-.1-.12-.2-.18-.3-.12-.22-.43-.95-.06-.03-.26-.63-.54-1.14-1.15-1.49-.54-.31-1.33-.45-1.93-.25-1.16.38-2.28,1.78-1.75,3.08Z"/>
  <path class="cls-1" d="M574.6,565.21c.42,3.92,3.19,6.96,6.87,8.2,4.06,1.37,8.22-.25,10.73-3.6,2.45-3.27,2.55-7.94.26-11.32-1.17-1.73-2.82-3.17-4.86-3.75-1.9-.54-3.81-.13-5.6.6-4.03,1.65-7.83,5.12-7.4,9.86.12,1.3,1.07,2.56,2.5,2.5,1.25-.06,2.63-1.11,2.5-2.5-.03-.33-.02-.66-.02-1,0-.62-.15.49,0-.09.03-.12.05-.24.08-.36.05-.18.11-.35.17-.53-.02.08-.24.48-.03.09.17-.33.36-.64.56-.95.31-.47-.26.2.01,0,.12-.09.21-.24.31-.35.22-.23.46-.44.69-.65.33-.3.01-.02-.06.03.15-.12.31-.23.47-.34.3-.2.6-.38.91-.55.28-.15.6-.27.87-.43.32-.2-.55.2.02-.01.15-.06.3-.11.44-.17.29-.1.59-.2.89-.28.15-.04.31-.08.47-.12.58-.15-.45-.03.13,0,.14,0,.46-.06.58.02-.02-.01-.59-.14-.1,0,.18.05.36.1.54.15.17.05.33.21-.08-.04.27.17.55.31.82.48-.45-.29-.1-.08.02.03.17.15.34.31.49.47.09.1.17.2.26.29.43.48-.25-.42.09.13.18.28.35.56.51.86.06.12.11.24.17.36-.26-.55,0,.03.04.14.11.33.14.72.27,1.04.13.33-.03-.59,0,0,0,.14.02.28.02.42,0,.21-.01.41-.02.62-.01.47,0,.05.02-.05-.06.34-.13.68-.23,1.01-.06.2-.13.39-.21.59.16-.41,0-.02-.09.16-.16.31-.35.59-.54.89-.35.54.22-.2-.05.07-.12.12-.23.26-.35.38-.12.12-.25.24-.37.36-.1.09-.47.37-.06.07-.34.24-.7.44-1.06.65-.1.06-.43.16.03,0-.17.06-.34.12-.52.18-.12.03-.24.06-.35.09-.04,0-.63.13-.21.05.42-.08-.16,0-.21.01-.15,0-.3.01-.45,0-.15,0-.3-.02-.45-.02-.56,0,.45.11-.06,0-.36-.08-.71-.15-1.06-.27-.14-.05-.29-.12-.43-.15-.17-.07-.11-.04.17.07-.11-.05-.22-.1-.33-.16-.33-.17-.63-.37-.94-.57-.11-.07-.35-.29.07.06-.14-.12-.28-.23-.41-.36-.27-.25-.51-.52-.74-.79.41.49.04.03-.03-.08-.1-.15-.19-.31-.27-.46-.02-.03-.3-.55-.11-.19.18.33-.1-.29-.12-.38-.06-.2-.2-1.11-.13-.41-.14-1.3-1.05-2.56-2.5-2.5-1.24.06-2.65,1.11-2.5,2.5Z"/>
  <path class="cls-1" d="M585.18,587.33c3.83.11,7.78-2.38,9.32-5.89.82-1.86,1.12-3.93.53-5.91-.47-1.55-1.41-3.01-2.65-4.05-2.5-2.09-6.02-3.18-9.21-2.16-1.74.55-3.14,1.65-4.26,3.06-1.45,1.83-2.48,3.86-2.7,6.21-.46,4.99,4.46,8.55,8.98,8.75,1.31.06,2.56-1.19,2.5-2.5-.06-1.4-1.1-2.44-2.5-2.5-.17,0-.4.01-.57-.04.52.17.24.04.1,0-.31-.08-.63-.14-.93-.25-.11-.04-.68-.3-.13-.03-.12-.06-.23-.11-.35-.17-.35-.18-.67-.39-.99-.61.49.36-.26-.26-.36-.37-.01-.01-.44-.48-.18-.18.25.29-.12-.19-.14-.21-.09-.13-.17-.27-.24-.41-.08-.15-.19-.54-.02-.02-.05-.16-.11-.31-.15-.47-.03-.1-.05-.2-.07-.3.04.32.04.34.02.05,0-.14,0-.28,0-.41,0-.13.13-.75,0-.17.08-.35.18-.69.28-1.04.02-.09.17-.45,0-.02.09-.2.19-.4.29-.6.19-.36.4-.71.63-1.05.1-.15.21-.3.32-.45-.29.38,0,.01.08-.08.22-.26.46-.51.71-.75.03-.03.31-.27.31-.28.03.08-.45.3-.13.11.15-.1.71-.3.8-.45-.13.22-.49.18-.03.03.1-.03.19-.06.29-.09.15-.04.3-.07.44-.1.24-.06.24.08-.21.02.23.03.52-.04.76-.04.15,0,.31,0,.46.02h.15c.27.04.21.03-.2-.02.19.1.55.1.77.16.25.07.5.15.75.24.42.13-.13-.03-.16-.08.03.06.36.17.43.2.28.14.55.3.81.48.04.02.25.18.26.18-.1.04-.44-.37-.02,0,.19.17.38.35.56.54.07.08.13.16.2.23.34.38-.2-.38-.06-.08.12.25.31.47.43.72.24.46-.08.13,0-.04,0,.02.09.24.1.29.06.18.07.62.18.76-.02-.12-.03-.23-.05-.35.01.12.02.24.02.36,0,.13,0,.26,0,.39,0,.06,0,.13,0,.19-.03.29-.02.26.03-.09.02.01-.11.54-.12.56-.04.16-.09.31-.14.46-.21.61.16-.24-.08.2-.19.34-.38.67-.6,1-.08.12-.3.29.03-.04-.16.16-.3.34-.46.51-.12.12-.23.23-.36.34-.17.15-.46.35-.11.1-.33.23-.65.44-1.01.63-.01,0-.59.3-.24.13.31-.15-.36.13-.44.15-.13.04-.25.08-.38.11-.13.04-.98.17-.3.09-.33.04-.65.05-.98.04-1.31-.04-2.56,1.18-2.5,2.5.06,1.39,1.1,2.46,2.5,2.5Z"/>
  <path class="cls-1" d="M591.45,575.91c3.41,6.42,14.72,5.25,16.05-2.15.57-3.19-.26-6.74-2.57-9.1-2.67-2.72-6.85-2.64-9.84-.45-3.63,2.65-5.84,7.43-3.65,11.71.6,1.17,2.33,1.6,3.42.9,1.19-.77,1.54-2.17.9-3.42-.03-.06-.08-.2-.12-.25,0,0,.17.51.12.28-.03-.15-.1-.3-.14-.45-.04-.15-.06-.3-.1-.45-.07-.25.04.35.04.34.01-.1-.02-.23-.02-.33-.01-.29.04-.57.04-.86,0,.74-.03.26.03,0,.04-.18.09-.35.14-.52.04-.13.09-.26.14-.39.13-.39-.25.51,0,.02.16-.31.32-.62.52-.92.09-.14.2-.27.28-.41.13-.22-.18.23-.18.22.06-.05.13-.16.18-.22.23-.27.48-.52.74-.76.1-.1.3-.21.37-.32,0,0-.44.31-.23.18.06-.04.11-.08.17-.12.28-.2.58-.38.88-.54.08-.04.17-.07.24-.12.22-.13-.3.12-.29.12.15-.04.29-.11.44-.16.15-.05.3-.09.45-.13.09-.02.17-.03.26-.06.33-.08-.21.03-.28.03.28,0,.57-.05.85-.03.06,0,.11.01.17.01.3.01-.62-.12-.33-.04.14.04.28.06.42.1.03,0,.35.13.36.12-.03.05-.64-.32-.21-.07.11.06.22.12.32.19.06.04.12.08.18.12.23.13-.44-.38-.25-.2.19.17.38.33.56.52.09.09.16.2.25.29,0,0-.39-.55-.19-.24.04.06.09.12.13.18.15.22.28.45.41.69.06.12.11.25.18.36.12.22-.15-.38-.14-.33.03.09.07.18.11.27.19.52.32,1.05.42,1.59.1.55-.05-.55-.02-.14,0,.14.02.27.03.41.01.29.01.57,0,.86,0,.13-.03.26-.03.39,0,.21.04-.39.05-.39,0,0-.03.19-.04.22-.05.27-.12.53-.2.79-.08.24-.29.49.08-.15-.05.09-.09.19-.13.28-.06.11-.11.21-.18.31-.05.09-.38.54-.11.18.28-.37-.05.04-.12.12-.1.1-.2.2-.31.3-.05.04-.09.08-.14.12-.28.25.2-.16.22-.17-.14.07-.27.19-.4.27-.12.07-.25.14-.37.21-.05.03-.11.05-.16.08-.33.18.25-.1.26-.1-.29.09-.57.21-.87.29-.16.04-.32.07-.48.11-.53.11.6-.04.05,0-.33.02-.66.04-.99.03-.16,0-.33-.03-.49-.04-.26,0,.4.06.36.05-.1-.03-.2-.03-.3-.05-.32-.06-.64-.15-.95-.25-.06-.02-.11-.04-.17-.06-.39-.13.47.23.2.09-.14-.07-.29-.14-.43-.22-.14-.08-.28-.16-.41-.25-.05-.03-.1-.07-.15-.1-.36-.24.34.32.17.13-.2-.22-.46-.48-.68-.68-.17-.15.21.28.2.27-.04-.09-.12-.17-.17-.25-.08-.12-.15-.25-.22-.37-.61-1.16-2.32-1.61-3.42-.9-1.18.76-1.55,2.18-.9,3.42Z"/>
  <path class="cls-1" d="M604.51,569.74c.12,3.48.69,7.76,4.18,9.52,3.02,1.52,6.56.63,9-1.57,1.13-1.01,2.04-2.46,2.35-3.95.39-1.89.09-3.74-.72-5.47-1.51-3.22-5.1-5.4-8.56-5.75-1.99-.2-3.84.66-5.01,2.25-1.03,1.4-1.29,3.28-1.24,4.97.03,1.31,1.13,2.56,2.5,2.5,1.33-.06,2.54-1.1,2.5-2.5,0-.31,0-.61.01-.92,0-.14.04-.29.04-.43.03.65-.06.38,0,.13.04-.21.09-.42.15-.62.04-.11.09-.23.12-.34-.23.74-.13.3,0,.09.05-.08.15-.19.18-.27-.12.4-.37.44-.12.19.41-.41-.54.27-.02,0,.07-.04.23-.09.28-.15-.3.31-.56.19-.19.1.11-.03.23-.04.33-.07-.69.21-.42.05-.12.04.11,0,.22,0,.32,0,.31.02.4.18-.11-.03.27.11.62.12.9.21.15.04.3.09.44.14.1.03.47.26.14.04-.35-.23.06.03.13.06.19.09.38.19.56.29.28.16.53.33.8.5.47.3-.42-.37,0,0,.08.07.16.13.24.2.23.21.46.43.67.66.06.07.22.32.3.36-.23-.3-.27-.35-.11-.13.06.08.12.17.17.26.14.22.25.45.37.67.26.48-.18-.55-.01-.03.05.15.1.29.14.44.04.15.07.3.11.45.14.53-.02-.6,0-.04.01.32,0,.64,0,.97,0,.28-.09.11.04-.28-.04.12-.05.25-.08.38-.05.21-.14.4-.2.6.17-.65.15-.35.04-.14-.06.11-.12.22-.19.33-.06.1-.16.21-.21.32.26-.33.32-.4.16-.2-.05.07-.11.13-.17.19-.14.16-.3.31-.46.45-.1.09-.2.16-.3.25.5-.49.27-.21.09-.09-.21.14-.44.27-.67.39-.08.04-.15.07-.23.11-.38.19.63-.23,0-.01-.24.08-.48.15-.73.2-.23.05-.58.01.17,0-.1,0-.21.02-.31.03-.23.01-.45,0-.67,0-.48-.02.65.13.18.03-.16-.04-.31-.07-.47-.12-.24-.08-.42-.27.14.08-.1-.06-.22-.11-.33-.16-.11-.06-.21-.13-.31-.2-.34-.22.48.44.02-.01-.03-.03-.35-.33-.34-.36.22.3.25.34.1.12-.06-.09-.12-.18-.18-.27-.06-.09-.11-.19-.16-.28-.05-.1-.1-.19-.14-.29.14.35.16.4.06.15-.12-.37-.24-.73-.32-1.11-.04-.16-.07-.33-.1-.49,0-.06-.02-.11-.03-.17-.04-.28-.04-.22.02.16-.14-.11-.1-1-.11-1.19-.02-.39-.04-.78-.05-1.18-.04-1.31-1.12-2.56-2.5-2.5-1.32.06-2.55,1.1-2.5,2.5Z"/>
  <path class="cls-1" d="M627.31,577.97c2.58.1,4.83-1.41,6.55-3.19,1.08-1.11,2.02-2.42,2.47-3.93.41-1.39.26-2.82-.37-4.12-.51-1.04-1.43-1.89-2.41-2.47-2.09-1.25-4.63-1.49-6.99-1.09-1.04.18-2.12.58-2.99,1.18-1.23.86-2.08,1.93-2.6,3.34-.73,1.97-.27,4.25.55,6.1.43.97,1.08,1.9,1.9,2.58,1.15.96,2.41,1.48,3.91,1.59,1.31.1,2.56-1.22,2.5-2.5-.06-1.44-1.1-2.4-2.5-2.5-.1,0-.2-.02-.3-.03.22.03.44.06.66.09-.29-.05-.58-.12-.85-.23.2.08.4.17.6.25-.33-.14-.63-.32-.91-.54.17.13.34.26.51.39-.31-.25-.58-.53-.82-.84.13.17.26.34.39.51-.31-.4-.55-.84-.76-1.3.08.2.17.4.25.6-.24-.56-.4-1.15-.49-1.75.03.22.06.44.09.66-.07-.51-.08-1.02-.02-1.53-.03.22-.06.44-.09.66.05-.36.14-.71.28-1.05-.08.2-.17.4-.25.6.13-.3.29-.57.48-.83-.13.17-.26.34-.39.51.22-.28.46-.52.74-.74-.17.13-.34.26-.51.39.34-.26.72-.47,1.11-.64-.2.08-.4.17-.6.25.56-.23,1.14-.38,1.74-.46-.22.03-.44.06-.66.09.71-.09,1.43-.09,2.13,0-.22-.03-.44-.06-.66-.09.67.09,1.32.26,1.94.52-.2-.08-.4-.17-.6-.25.41.18.81.4,1.16.67-.17-.13-.34-.26-.51-.39.25.2.49.42.69.67-.13-.17-.26-.34-.39-.51.16.21.3.43.4.68-.08-.2-.17-.4-.25-.6.1.23.16.47.2.72-.03-.22-.06-.44-.09-.66.04.28.03.57,0,.85.03-.22.06-.44.09-.66-.05.34-.15.67-.28.99.08-.2.17-.4.25-.6-.22.52-.52,1-.87,1.46.13-.17.26-.34.39-.51-.62.8-1.36,1.53-2.16,2.15.17-.13.34-.26.51-.39-.47.35-.96.65-1.5.88.2-.08.4-.17.6-.25-.37.15-.75.25-1.14.31.22-.03.44-.06.66-.09-.26.03-.51.04-.77.03-1.31-.05-2.56,1.19-2.5,2.5.06,1.4,1.1,2.45,2.5,2.5Z"/>
  <path class="cls-1" d="M601.36,591.75c3.49-.24,6.31-2.37,7.59-5.62.55-1.39.62-2.91.34-4.37-.32-1.66-1.36-3.05-2.69-4.04-2.5-1.86-6.12-1.81-9-1.03-1.59.43-3.21,1.2-4.36,2.41-1.44,1.52-1.96,3.47-1.62,5.51.38,2.25,2,4.06,3.82,5.32,1.67,1.16,3.86,1.91,5.91,1.81,1.3-.06,2.56-1.1,2.5-2.5-.06-1.3-1.1-2.57-2.5-2.5-.3.01-.59-.02-.88-.02-.31,0,.6.11.3.04-.06-.01-.12-.02-.18-.03-.19-.04-.37-.08-.56-.13-.32-.09-.62-.24-.93-.31.03,0,.59.27.23.09-.08-.04-.16-.08-.24-.12-.16-.08-.32-.17-.48-.25-.3-.17-.57-.37-.85-.56-.26-.17.4.36.19.14-.05-.05-.1-.09-.15-.13-.15-.13-.3-.27-.44-.41-.12-.13-.24-.26-.35-.39-.35-.39.25.39.04.04-.18-.29-.33-.59-.5-.89.36.63.11.25.04,0-.04-.14-.06-.28-.1-.43-.08-.3.02.6.04.29,0-.06,0-.13-.01-.19,0-.17.01-.34.01-.51,0-.3-.12.63-.04.35.02-.07.03-.14.04-.2.03-.12.07-.23.11-.34.1-.35-.34.6-.04.14.07-.11.14-.23.21-.34.19-.32-.21.3-.21.26,0-.03.13-.15.13-.15.08-.08.16-.17.25-.26.09-.08.19-.16.27-.24-.58.55-.25.19-.03.05.23-.15.47-.28.72-.4.21-.1.69-.24-.08.02.14-.05.28-.11.43-.16.57-.2,1.15-.34,1.74-.44.08-.01.15-.02.23-.04.3-.05-.63.07-.32.04.13-.01.26-.03.4-.04.29-.03.59-.04.88-.04.26,0,.52,0,.78.02.12,0,.23.02.35.03.34.02-.38-.05-.38-.05.02.02.19.03.23.04.26.05.52.11.78.19.07.02.41.09.44.15.02.04-.55-.25-.34-.14.08.04.17.08.25.12.23.12.44.27.66.41.12.07-.5-.45-.16-.11.1.1.21.2.3.3.33.36,0-.12-.13-.18.07.04.16.23.2.3.06.1.12.21.17.32.24.45-.18-.52-.08-.18.07.22.14.43.18.65.1.51.03-.2-.03-.26.05.05.03.33.03.41,0,.23-.01.46-.02.69-.02.38.14-.74.02-.2-.03.12-.05.24-.08.37-.04.14-.08.27-.12.41-.08.25-.33.62.07-.11-.13.24-.23.49-.37.73-.07.13-.16.25-.24.37-.29.44.33-.39.1-.12-.2.22-.39.44-.61.64-.1.09-.21.17-.3.26.59-.56.27-.21.06-.07-.24.16-.5.29-.76.42-.31.16.3-.14.31-.13-.03-.02-.22.08-.25.09-.15.05-.3.1-.46.14-.14.04-.28.06-.43.09-.37.08.34-.06.34-.04,0,0-.32.03-.34.03-1.3.09-2.56,1.08-2.5,2.5.06,1.28,1.1,2.6,2.5,2.5Z"/>
  <path class="cls-1" d="M629.78,564.5c.06-.12.13-.23.21-.34-.13.17-.26.34-.39.51.13-.16.27-.3.43-.43-.17.13-.34.26-.51.39.19-.15.4-.26.62-.36-.2.08-.4.17-.6.25.26-.11.53-.18.82-.22-.22.03-.44.06-.66.09.3-.04.61-.04.91,0-.22-.03-.44-.06-.66-.09.3.04.59.12.88.23-.2-.08-.4-.17-.6-.25.24.1.47.23.67.39-.17-.13-.34-.26-.51-.39.16.13.3.27.43.43-.13-.17-.26-.34-.39-.51.13.17.23.34.31.53-.08-.2-.17-.4-.25-.6.02.04.03.07.04.11l.64-2.43c-.51.65-1.01,1.31-1.52,1.96.59-.24,1.18-.49,1.77-.73-.02,0-.05,0-.07,0,.22.03.44.06.66.09-.1-.02-.19-.04-.28-.08.2.08.4.17.6.25-.14-.06-.26-.13-.38-.22.17.13.34.26.51.39-.1-.08-.18-.17-.26-.26.13.17.26.34.39.51-.07-.1-.14-.2-.19-.32.08.2.17.4.25.6-.05-.12-.08-.23-.1-.35.03.22.06.44.09.66,0-.07-.01-.15-.01-.22,0-.64-.28-1.31-.73-1.77s-1.15-.76-1.77-.73c-1.35.06-2.5,1.1-2.5,2.5,0,1.05.43,2.09,1.18,2.82,1.07,1.05,2.84,1.6,4.13.6.31-.24.52-.54.76-.85.21-.27.42-.55.63-.82.1-.12.19-.25.29-.37.15-.2.39-.45.49-.63.21-.39.34-.81.34-1.26,0-.58-.23-1.16-.52-1.65-1.26-2.12-3.95-2.97-6.28-2.38-1.31.33-2.54,1.22-3.19,2.42-.31.58-.43,1.28-.25,1.93.16.58.61,1.21,1.15,1.49.58.31,1.28.46,1.93.25.61-.2,1.18-.57,1.49-1.15h0Z"/>
  <path class="cls-1" d="M625.63,582.24c-.04.06-.09.13-.14.19.13-.17.26-.34.39-.51-.2.24-.41.46-.66.65.17-.13.34-.26.51-.39-.35.26-.72.47-1.12.64.2-.08.4-.17.6-.25-.44.18-.89.3-1.36.37.22-.03.44-.06.66-.09-.44.05-.88.05-1.32,0,.22.03.44.06.66.09-.49-.07-.96-.2-1.42-.39.2.08.4.17.6.25-.44-.19-.85-.43-1.24-.73.17.13.34.26.51.39-.35-.27-.66-.58-.93-.92.13.17.26.34.39.51-.26-.34-.47-.7-.64-1.09.08.2.17.4.25.6-.12-.31-.21-.62-.26-.95.03.22.06.44.09.66-.04-.33-.04-.65,0-.98-.03.22-.06.44-.09.66.05-.31.13-.61.26-.9-.08.2-.17.4-.25.6.14-.31.32-.6.53-.87-.13.17-.26.34-.39.51.27-.33.58-.63.91-.89-.17.13-.34.26-.51.39.29-.22.6-.4.94-.54-.2.08-.4.17-.6.25.36-.14.72-.24,1.11-.29-.22.03-.44.06-.66.09.44-.05.88-.05,1.31,0-.22-.03-.44-.06-.66-.09.53.07,1.03.22,1.52.42-.2-.08-.4-.17-.6-.25.49.21.94.47,1.36.79-.17-.13-.34-.26-.51-.39.36.28.69.6.97.96-.13-.17-.26-.34-.39-.51.24.31.43.64.59,1.01-.08-.2-.17-.4-.25-.6.11.29.2.58.24.88-.03-.22-.06-.44-.09-.66.04.31.04.62,0,.93.03-.22.06-.44.09-.66-.05.33-.14.65-.27.96.08-.2.17-.4.25-.6-.11.25-.25.49-.4.73-.72,1.1-.25,2.81.9,3.42,1.25.66,2.65.27,3.42-.9.72-1.1,1.15-2.52,1.01-3.84-.1-.88-.29-1.55-.67-2.36-.27-.57-.67-1.08-1.08-1.55-1.55-1.79-4.23-2.94-6.6-2.72-.66.06-1.31.15-1.93.4-.86.34-1.51.74-2.22,1.33-1.19.99-2,2.42-2.21,3.95-.38,2.84,1.31,5.57,3.77,6.91,1.35.74,2.95,1.14,4.49.97,2.18-.25,4.18-1.23,5.43-3.09.73-1.09.25-2.82-.9-3.42-1.26-.67-2.64-.26-3.42.9Z"/>
  <path class="cls-1" d="M647.41,425.07c-5.31,14.88-12.97,28.74-20.28,42.7-7.15,13.64-14.02,27.59-18.06,42.52-2.25,8.32-3.56,16.9-3.49,25.53,0,1.29,2.01,1.29,2,0-.12-15.51,4.33-30.6,10.42-44.74,6.14-14.26,13.95-27.71,20.9-41.58,3.9-7.78,7.52-15.7,10.45-23.9.43-1.21-1.5-1.74-1.93-.53h0Z"/>
  <path class="cls-1" d="M557.68,446.73c-2.2,12.22,3.69,23.63,10.32,33.46,3.43,5.09,7.02,10.07,10.32,15.25,3.32,5.22,6.45,10.55,9.4,15.99,3.38,6.26,6.5,12.65,9.36,19.16.52,1.18,2.24.16,1.73-1.01-4.89-11.11-10.53-21.88-16.91-32.2-3.16-5.11-6.54-10.06-9.96-14.99-3.42-4.92-6.8-9.93-9.26-15.42-2.74-6.13-4.27-13.01-3.06-19.7.23-1.26-1.7-1.8-1.93-.53h0Z"/>
  <path class="cls-1" d="M596.09,415.52c-4.56,14.14-9.13,28.75-7.61,43.79.76,7.52,2.74,14.83,4.42,22.17,1.72,7.5,3.09,15.09,4.1,22.72,1.15,8.69,1.82,17.44,2.04,26.21.03,1.28,2.03,1.29,2,0-.39-15.34-2.18-30.65-5.38-45.67-1.56-7.31-3.61-14.53-4.74-21.94-1.14-7.5-.89-15.03.46-22.49,1.49-8.27,4.06-16.29,6.63-24.27.4-1.23-1.53-1.75-1.93-.53h0Z"/>
  <path class="cls-1" d="M676.51,427.69c-1.5,15.59-6.84,30.57-14.24,44.31-7.7,14.31-17.61,27.27-28.18,39.56-6.05,7.03-12.32,13.86-18.59,20.69-.87.95.54,2.36,1.41,1.41,11.33-12.34,22.69-24.71,32.67-38.19,9.51-12.84,17.72-26.75,23.08-41.86,2.97-8.38,4.99-17.07,5.84-25.92.12-1.28-1.88-1.27-2,0h0Z"/>
  <path class="cls-1" d="M703.16,465.5c-3.43,6.7-8.05,12.71-13.68,17.7-6.16,5.46-13.47,9.19-20.66,13.09-13.13,7.11-25.02,16.16-35.04,27.26-5.56,6.16-10.51,12.87-14.77,20-.66,1.11,1.07,2.11,1.73,1.01,7.62-12.76,17.51-24.11,29.1-33.43,5.87-4.72,12.18-8.83,18.78-12.45,7.12-3.9,14.43-7.52,20.72-12.72,6.44-5.33,11.75-12,15.55-19.44.59-1.14-1.14-2.16-1.73-1.01h0Z"/>
  <path class="cls-1" d="M730.26,491.93c-4.74,6.41-9.42,12.87-14.22,19.24-4.33,5.75-9.01,11.25-14.9,15.46-5.93,4.24-12.6,7.38-19.28,10.26-6.89,2.97-13.96,5.55-21.15,7.73-8.16,2.48-16.47,4.43-24.88,5.87-1.27.22-.73,2.14.53,1.93,15.28-2.61,30.25-6.96,44.55-12.97,6.68-2.81,13.36-5.84,19.41-9.84,6.16-4.07,11.16-9.31,15.66-15.11,5.48-7.06,10.68-14.36,15.99-21.55.77-1.04-.97-2.03-1.73-1.01h0Z"/>
  <path class="cls-1" d="M631.26,565.24c10.08,1.81,20.27-1.11,30.07-3.24,10.23-2.21,20.47-4.41,30.69-6.65,9.59-2.1,19.19-4.32,28.44-7.65,4.32-1.56,8.62-3.3,12.66-5.5,3.79-2.07,7.36-4.52,10.83-7.09,7.92-5.87,15.23-12.49,23.02-18.53,1.02-.79-.41-2.19-1.41-1.41-6.79,5.27-13.21,10.99-20.01,16.24-3.46,2.67-7.01,5.24-10.75,7.51-3.77,2.28-7.76,4.12-11.86,5.72-8.87,3.47-18.12,5.81-27.4,7.89-9.87,2.22-19.78,4.3-29.66,6.44-5.59,1.21-11.17,2.51-16.79,3.59-5.69,1.09-11.54,1.78-17.3.75-1.26-.23-1.8,1.7-.53,1.93h0Z"/>
  <path class="cls-1" d="M631.71,568.27c5.9,4.02,12.88,5.75,19.9,6.53,7.81.86,15.74.75,23.58.91,17.49.36,34.97.73,52.46,1.09,9.83.21,19.65.41,29.48.62,1.29.03,1.29-1.97,0-2-17.24-.36-34.47-.72-51.71-1.08-8.58-.18-17.15-.36-25.73-.54-7.97-.17-15.97-.13-23.92-.65-8.06-.53-16.24-1.99-23.04-6.62-1.07-.73-2.07,1.01-1.01,1.73h0Z"/>
  <path class="cls-1" d="M624.69,578.52c22.35,10.22,41.1,26.42,62.04,39.01,5.92,3.56,12.01,6.82,18.35,9.56,1.17.51,2.19-1.22,1.01-1.73-22.56-9.75-41.41-25.88-62.18-38.7-5.88-3.63-11.93-6.99-18.22-9.87-1.16-.53-2.18,1.19-1.01,1.73h0Z"/>
  <path class="cls-1" d="M624.57,587.93c1.21,7.13,3.68,14.02,7.27,20.3,1.78,3.11,3.84,6.06,6.13,8.82,2.25,2.7,4.75,5.18,7.06,7.84,2.57,2.95,4.88,6.17,6.04,9.95.38,1.23,2.31.7,1.93-.53-2.02-6.54-7.03-11.32-11.51-16.25-4.99-5.5-9.01-11.8-11.71-18.72-1.5-3.85-2.59-7.85-3.28-11.92-.22-1.27-2.14-.73-1.93.53h0Z"/>
  <path class="cls-1" d="M583.74,583.94c-10.49,7.37-23.7,1.24-34.95-.35-6.37-.9-12.8-.73-19.2-.38-5.37.29-10.79.55-16.08,1.56-5.71,1.09-11.22,3.19-15.58,7.13-.96.87.46,2.28,1.41,1.41,8.08-7.32,19.96-7.55,30.25-8.1,6.53-.35,13.14-.58,19.62.45,6.18.98,12.17,2.95,18.41,3.59,5.89.6,12.17-.1,17.12-3.58,1.05-.73.05-2.47-1.01-1.73h0Z"/>
  <path class="cls-1" d="M591.05,583.72c-3.8,6.42-8.57,12.21-14.16,17.15-5.8,5.13-12.46,9.05-19.36,12.5-13.05,6.52-27.07,11.89-37.25,22.77-5.08,5.43-8.94,12.04-10.08,19.46-.19,1.26,1.73,1.8,1.93.53,2.11-13.74,13.32-23.73,24.82-30.29,13.28-7.57,28.07-12.39,39.94-22.33,6.32-5.3,11.7-11.69,15.89-18.78.66-1.11-1.07-2.12-1.73-1.01h0Z"/>
  <path class="cls-1" d="M596.65,590.09c-.66,5.82-3.15,11.19-6.1,16.19-3.14,5.31-6.72,10.37-10.11,15.53-7.16,10.93-14.16,21.96-20.97,33.12-3.31,5.43-6.65,11.29-6.41,17.86.05,1.28,2.05,1.29,2,0-.22-6.07,2.86-11.46,5.91-16.48,3.41-5.6,6.88-11.17,10.38-16.71,3.47-5.49,6.99-10.95,10.54-16.38,3.39-5.18,6.98-10.25,10.15-15.57,3.24-5.43,5.87-11.23,6.59-17.57.15-1.28-1.86-1.27-2,0h0Z"/>
  <path class="cls-1" d="M604.47,590.84c-3.4,11.47-6.81,23.1-7.53,35.11-.73,12.12,2.16,24.05,4.42,35.87,1.34,7,2.68,14.01,4.02,21.01.24,1.26,2.17.73,1.93-.53-2.29-12-4.73-23.99-6.86-36.02-1.05-5.94-1.79-11.92-1.61-17.96.17-5.92,1.07-11.8,2.34-17.58,1.43-6.53,3.32-12.95,5.22-19.36.37-1.24-1.56-1.76-1.93-.53h0Z"/>
  <path class="cls-1" d="M535.5,448.66c.35,14.41,4,28.65,10.54,41.49,3.28,6.44,7.3,12.5,11.95,18.03,4.73,5.62,10.14,10.61,15.46,15.66,6.06,5.75,12.08,11.63,16.8,18.56.72,1.06,2.45.06,1.73-1.01-8.21-12.05-20.02-20.81-29.79-31.47-9.75-10.63-16.94-23.5-20.97-37.35-2.26-7.78-3.52-15.82-3.71-23.92-.03-1.28-2.03-1.29-2,0h0Z"/>
  <path class="cls-1" d="M498.66,488c4.72,4.96,10.3,8.97,16.02,12.7,6.13,3.99,12.39,7.8,18.73,11.47,6.33,3.66,12.74,7.17,19.24,10.52,5.59,2.88,11.31,5.55,16.73,8.77,5.85,3.48,11.35,7.69,15.17,13.41.71,1.07,2.44.07,1.73-1.01-6.81-10.21-18.17-15.6-28.79-20.95-13.2-6.65-26.07-13.94-38.55-21.86-6.7-4.25-13.35-8.68-18.86-14.46-.89-.93-2.3.48-1.41,1.41h0Z"/>
  <path class="cls-1" d="M461.73,514.28c6.3,5.81,12.38,11.9,19.18,17.14,6.74,5.19,14.21,9.25,22.42,11.58,16.75,4.75,34.4,3.13,51.51,5.22,9.44,1.15,18.76,3.63,26.76,8.92,1.08.71,2.08-1.02,1.01-1.73-14.31-9.46-31.95-9.84-48.51-10.57-8.71-.38-17.48-.83-26.03-2.71-8.35-1.84-16.1-5.26-23.1-10.18-7.92-5.57-14.74-12.55-21.84-19.09-.95-.87-2.36.54-1.41,1.41h0Z"/>
  <path class="cls-1" d="M575.27,561c-14.03,3.23-28.17-1.09-41.83-4.1-6.73-1.48-13.56-2.73-20.47-2.81-7.85-.08-15.65,1.15-23.5,1.27-8.79.13-17.58-.63-26.23-2.24-1.26-.23-1.8,1.69-.53,1.93,7.71,1.44,15.53,2.23,23.37,2.32,7.85.09,15.61-.94,23.45-1.22,14.7-.53,28.6,4.51,42.94,6.87,7.75,1.28,15.64,1.68,23.34-.09,1.25-.29.72-2.22-.53-1.93h0Z"/>
  <path class="cls-1" d="M452.99,844.42c11.34-9.31,22.55-18.78,34.29-27.58,12.05-9.03,24.65-17.5,38.27-24.01,6.39-3.05,13.01-5.61,19.85-7.45,7.04-1.89,14.31-2.91,21.55-3.58,15.11-1.38,30.44-.85,45.38,1.89,14.81,2.71,29.25,7.5,42.57,14.55,1.7.9,3.38,1.84,5.04,2.8-.17-1.31-.34-2.62-.51-3.93-12.69,14.21-30.9,22.58-49.67,24.92-20.42,2.55-41.04-2.03-59.46-10.86-10.74-5.15-20.84-11.64-30.15-19.06-1.05-.84-2.51-1.03-3.54,0-.87.87-1.06,2.69,0,3.54,17.21,13.72,37.02,24.72,58.65,29.52,20.24,4.49,41.53,3.11,60.63-5.18,10.24-4.45,19.62-10.99,27.07-19.33,1.06-1.19.95-3.08-.51-3.93-13.45-7.83-28.17-13.43-43.36-16.76-15.26-3.35-31.01-4.51-46.59-3.58-7.67.46-15.39,1.34-22.92,2.87-7.15,1.46-14.08,3.81-20.79,6.65-14.06,5.96-27.05,14.22-39.38,23.17-12.35,8.97-24.1,18.72-35.87,28.43-1.36,1.12-2.72,2.24-4.09,3.36-1.04.86-.89,2.65,0,3.54,1.03,1.03,2.49.86,3.54,0h0Z"/>
  <path class="cls-1" d="M520.51,794.77c12.99-18.71,32.88-32.28,54.78-38.31,11.1-3.06,22.71-4.16,34.18-3.03,11.89,1.17,24.15,5.06,33.34,12.95,9.59,8.25,15.76,20.67,14.19,33.48-.16,1.34,1.27,2.5,2.5,2.5,1.49,0,2.33-1.15,2.5-2.5,1.51-12.29-3.7-24.6-12.01-33.51-8.85-9.49-21.39-14.89-34.02-17.05-24.21-4.15-49.69,1.81-70.34,14.87-11.56,7.31-21.62,16.84-29.43,28.08-.77,1.11-.2,2.78.9,3.42,1.24.73,2.65.22,3.42-.9h0Z"/>
  <path class="cls-1" d="M150.89,377.6c-20.78-2.74-39.42-15.75-51.19-32.79-13.39-19.37-17.41-43.67-13.5-66.69,2.06-12.14,6.14-23.93,12.02-34.75,5.03-9.25,12.53-19.48,24.07-19.96,4.98-.21,9.92,1.55,12.83,5.77,3.35,4.88,4.36,11.16,5.58,16.84,2.97,13.78,4.85,27.78,5.64,41.86.78,13.87.22,27.67-.63,41.52-.84,13.64-1.52,27.41.86,40.95.58,3.28,1.35,6.51,2.33,9.7.94,3.07,5.77,1.76,4.82-1.33-4.15-13.54-4.15-27.77-3.44-41.79.73-14.44,1.84-28.79,1.33-43.26-.51-14.69-2.2-29.35-5.02-43.77-1.27-6.5-2.41-13.32-5.08-19.42-2.4-5.49-6.7-9.75-12.56-11.34-5.64-1.53-11.78-.62-16.98,1.91-5.48,2.66-9.82,7.23-13.32,12.12-3.6,5.02-6.46,10.6-8.94,16.23-2.66,6.04-4.86,12.27-6.48,18.67-6.13,24.19-4.34,50.77,8.07,72.75,10.95,19.38,29.62,34.94,51.42,40.29,2.69.66,5.42,1.13,8.17,1.49,1.34.18,2.5-1.28,2.5-2.5,0-1.5-1.16-2.32-2.5-2.5h0Z"/>
  <path class="cls-1" d="M150.7,378.85c17.54-19.87,29.69-44.39,34.87-70.39,2.58-12.94,3.77-26.5,2.28-39.65-1.44-12.69-5.65-25.68-15.02-34.78-9.38-9.1-23.68-14.29-36.41-9.61-1.27.47-2.13,1.7-1.75,3.08.34,1.22,1.8,2.21,3.08,1.75,10.09-3.71,21.33-.36,29.37,6.37,9.34,7.81,13.82,19.59,15.51,31.38,1.75,12.28.84,25.13-1.33,37.29-2.2,12.33-5.96,24.42-11.22,35.79-5.9,12.77-13.59,24.7-22.91,35.25-.89,1.01-1,2.54,0,3.54.91.91,2.64,1.02,3.54,0h0Z"/>
  <path class="cls-1" d="M149.22,372.44c-25.75-.38-51.67-12.11-66.9-33.28-7.43-10.33-12.46-22.56-13.9-35.24-.75-6.59-.57-13.26.56-19.79,1.28-7.41,3.55-14.61,6.17-21.65,2.5-6.71,4.92-14.51,10.28-19.55,2.24-2.11,4.8-3.96,7.54-5.36,1.26-.64,2.63-1.19,4.04-1.4,1.05-.15,2.03-.04,2.94.49,2.78,1.63,5.3-2.69,2.52-4.32-5.51-3.22-12.25.54-16.74,3.9-2.66,1.98-5.03,4.13-7,6.82-2.09,2.85-3.58,6.07-4.95,9.32-5.95,14.15-11.09,29.25-10.81,44.78.25,13.77,4.39,27.41,11.49,39.18,7.2,11.94,17.45,21.81,29.51,28.77,12.16,7.03,25.95,11.12,39.94,12.11,1.76.13,3.53.2,5.3.22,3.22.05,3.22-4.95,0-5h0Z"/>
  <path class="cls-1" d="M152.47,377.26c21.9-12.83,39.52-32.83,49.6-56.11,10.41-24.05,15.43-56.23-3.8-77.36-4.61-5.06-10.43-9.07-16.93-11.26-1.6-.54-3.24-.95-4.9-1.23-1.82-.3-3.64-.68-5.34.25-1.27.7-2.45,1.95-2.78,3.4-.46,2.06,1.11,3.79,3.18,3.72,3.21-.11,3.22-5.11,0-5,.29.09.33.1.1.01.37.21.74.43,1.1.64.16.6.31,1.19.47,1.79-.14.3-.14.31.01.05-.34.15.19-.13.28-.24-.23.26.33-.09.1-.03-.24.07-.32-.08.04.03,1.25.38,2.7.39,3.98.71,2.48.62,4.85,1.55,7.11,2.76,4.75,2.55,8.89,6.19,12.18,10.46,7.58,9.85,9.95,22.49,9.3,34.68-.63,11.93-3.92,23.87-8.73,34.78-4.61,10.46-10.73,20.27-18.15,28.96-8.35,9.78-18.25,18.15-29.35,24.66-2.78,1.63-.26,5.95,2.52,4.32h0Z"/>
  <path class="cls-1" d="M116.66,223.28c-9.06,18.81-13.6,39.61-13.7,60.47-.1,20.8,4.17,41.6,12.59,60.63,4.75,10.73,10.85,20.81,18.16,29.98.8,1.01,2.21-.42,1.41-1.41-12.8-16.04-21.66-35.04-26.32-55-4.66-19.95-5.15-40.93-1.21-61.04,2.21-11.27,5.8-22.26,10.79-32.62.56-1.15-1.17-2.17-1.73-1.01h0Z"/>
  <path class="cls-1" d="M148.6,226.66c9.86,15.26,13.3,33.36,13.64,51.3.36,19.01-2.4,37.91-4.78,56.71-1.55,12.22-3.1,24.45-4.65,36.67-.16,1.27,1.84,1.26,2,0,2.67-21.03,5.67-42.04,7.87-63.12,1.89-18.18,2.79-36.86-1.1-54.85-2.12-9.81-5.79-19.27-11.24-27.71-.7-1.08-2.43-.08-1.73,1.01h0Z"/>
  <path class="cls-1" d="M125.52,221.95c-2.93,20.01-3.32,40.32-1.68,60.46,1.67,20.47,5.37,40.78,10.92,60.55,3.06,10.89,6.69,21.61,10.9,32.11.47,1.18,2.41.66,1.93-.53-7.48-18.66-13.15-38.04-16.99-57.77-3.89-19.95-5.92-40.3-5.71-60.63.12-11.26.93-22.51,2.56-33.66.18-1.26-1.74-1.8-1.93-.53h0Z"/>
</svg>